<?xml version="1.0" encoding="UTF-8"?>
<!DOCTYPE svg PUBLIC "-//W3C//DTD SVG 1.1//EN" "http://www.w3.org/Graphics/SVG/1.1/DTD/svg11.dtd">
<svg xmlns="http://www.w3.org/2000/svg" version="1.1" width="300px" height="168px" style="shape-rendering:geometricPrecision; text-rendering:geometricPrecision; image-rendering:optimizeQuality; fill-rule:evenodd; clip-rule:evenodd" xmlns:xlink="http://www.w3.org/1999/xlink">
<g><path style="opacity:1" fill="#83562b" d="M 63.5,-0.5 C 71.8333,-0.5 80.1667,-0.5 88.5,-0.5C 89.2982,4.74904 87.9649,9.24904 84.5,13C 84.8919,14.0105 85.5585,14.5105 86.5,14.5C 84.2573,15.4742 81.924,15.8076 79.5,15.5C 79.762,16.9778 79.4287,18.3112 78.5,19.5C 74.223,18.3945 69.8897,18.2278 65.5,19C 63.8934,20.049 63.2267,21.549 63.5,23.5C 68.813,24.0978 74.1463,24.4312 79.5,24.5C 76.8481,26.2023 74.0147,26.5356 71,25.5C 67.0648,26.1378 63.2315,26.8045 59.5,27.5C 55.5,27.5 51.5,27.5 47.5,27.5C 47.5,23.5 47.5,19.5 47.5,15.5C 50.5,15.5 53.5,15.5 56.5,15.5C 57.6866,12.6334 59.6866,10.3 62.5,8.5C 63.4841,5.57186 63.8174,2.57186 63.5,-0.5 Z"/></g>
<g><path style="opacity:1" fill="#744e29" d="M 246.5,-0.5 C 251.167,-0.5 255.833,-0.5 260.5,-0.5C 262.784,4.60807 265.451,9.60807 268.5,14.5C 265.762,17.6527 266.095,20.486 269.5,23C 270.549,23.4922 271.549,23.3256 272.5,22.5C 274.273,25.3759 276.107,25.7092 278,23.5C 281.137,24.3606 284.303,25.0272 287.5,25.5C 287.5,26.8333 287.5,28.1667 287.5,29.5C 290.167,29.5 292.833,29.5 295.5,29.5C 295.5,28.5 295.5,27.5 295.5,26.5C 296.833,26.5 298.167,26.5 299.5,26.5C 299.5,30.5 299.5,34.5 299.5,38.5C 293.225,38.0331 287.558,35.8664 282.5,32C 280.527,31.5045 278.527,31.3379 276.5,31.5C 274.833,31.5 273.167,31.5 271.5,31.5C 271.5,30.5 271.5,29.5 271.5,28.5C 270.127,28.6567 268.793,28.49 267.5,28C 265,25.5 262.5,23 260,20.5C 259.506,18.8659 259.34,17.1992 259.5,15.5C 260.552,15.6495 261.552,15.4828 262.5,15C 261.736,12.9307 261.236,10.764 261,8.5C 260,9.5 259,10.5 258,11.5C 256.934,8.43693 254.767,6.93693 251.5,7C 248.8,5.14327 247.134,2.64327 246.5,-0.5 Z"/></g>
<g><path style="opacity:1" fill="#6b4a28" d="M 260.5,-0.5 C 273.5,-0.5 286.5,-0.5 299.5,-0.5C 299.5,8.5 299.5,17.5 299.5,26.5C 298.167,26.5 296.833,26.5 295.5,26.5C 295.5,27.5 295.5,28.5 295.5,29.5C 292.833,29.5 290.167,29.5 287.5,29.5C 287.5,28.1667 287.5,26.8333 287.5,25.5C 284.303,25.0272 281.137,24.3606 278,23.5C 276.107,25.7092 274.273,25.3759 272.5,22.5C 271.549,23.3256 270.549,23.4922 269.5,23C 266.095,20.486 265.762,17.6527 268.5,14.5C 265.451,9.60807 262.784,4.60807 260.5,-0.5 Z"/></g>
<g><path style="opacity:1" fill="#95602f" d="M 88.5,-0.5 C 136.167,-0.5 183.833,-0.5 231.5,-0.5C 231.055,2.36456 231.722,4.86456 233.5,7C 238.214,8.754 242.881,10.754 247.5,13C 246.221,14.6461 244.555,15.8128 242.5,16.5C 243.5,18.5 244.5,20.5 245.5,22.5C 248.55,24.5491 250.883,27.2157 252.5,30.5C 255.485,32.5973 258.652,32.9306 262,31.5C 265.225,33.3594 268.392,35.0261 271.5,36.5C 273.262,39.8098 274.262,43.4764 274.5,47.5C 273.5,47.5 272.5,47.5 271.5,47.5C 271.5,46.1667 271.5,44.8333 271.5,43.5C 267.743,43.9292 264.243,43.2625 261,41.5C 260.517,42.448 260.351,43.448 260.5,44.5C 258.708,44.634 257.042,44.3007 255.5,43.5C 254.713,41.8958 253.38,41.2291 251.5,41.5C 250.486,40.2353 248.986,39.5687 247,39.5C 245.236,39.5445 243.569,39.8778 242,40.5C 241.005,39.9341 240.172,39.2674 239.5,38.5C 237.669,36.2243 235.336,34.391 232.5,33C 233.167,32.6667 233.833,32.3333 234.5,32C 227.174,31.5003 219.841,31.3337 212.5,31.5C 211.907,28.4041 212.907,26.0708 215.5,24.5C 214.695,22.5283 213.361,21.0283 211.5,20C 207.034,16.7031 202.034,14.3697 196.5,13C 189.378,12.1075 182.378,10.6075 175.5,8.5C 175.5,8.16667 175.5,7.83333 175.5,7.5C 162.647,6.28683 149.647,6.45349 136.5,8C 138.901,8.805 138.734,9.63834 136,10.5C 134.657,9.7865 133.324,10.1198 132,11.5C 128.681,10.3559 127.181,11.6893 127.5,15.5C 118.429,16.7392 109.429,18.7392 100.5,21.5C 93.2928,20.6622 86.2928,21.6622 79.5,24.5C 74.1463,24.4312 68.813,24.0978 63.5,23.5C 63.2267,21.549 63.8934,20.049 65.5,19C 69.8897,18.2278 74.223,18.3945 78.5,19.5C 79.4287,18.3112 79.762,16.9778 79.5,15.5C 81.924,15.8076 84.2573,15.4742 86.5,14.5C 85.5585,14.5105 84.8919,14.0105 84.5,13C 87.9649,9.24904 89.2982,4.74904 88.5,-0.5 Z"/></g>
<g><path style="opacity:1" fill="#6a4327" d="M 175.5,7.5 C 169.824,7.33391 164.157,7.50058 158.5,8C 148.137,10.5234 137.804,13.0234 127.5,15.5C 127.181,11.6893 128.681,10.3559 132,11.5C 133.324,10.1198 134.657,9.7865 136,10.5C 138.734,9.63834 138.901,8.805 136.5,8C 149.647,6.45349 162.647,6.28683 175.5,7.5 Z"/></g>
<g><path style="opacity:1" fill="#6d4825" d="M -0.5,-0.5 C 17.1667,-0.5 34.8333,-0.5 52.5,-0.5C 51.2129,1.80483 49.8796,4.13816 48.5,6.5C 43.0095,7.51065 37.6761,8.84398 32.5,10.5C 31.5481,12.0453 31.2148,13.712 31.5,15.5C 27.3863,15.7492 23.7197,17.2492 20.5,20C 18.8659,20.4935 17.1992,20.6602 15.5,20.5C 15.1703,26.8682 15.5037,33.2015 16.5,39.5C 18.5,41.1667 20.5,42.8333 22.5,44.5C 26.0374,43.5701 29.0374,41.9035 31.5,39.5C 31.8578,42.8096 32.1912,46.1429 32.5,49.5C 37.2644,51.5934 41.931,51.5934 46.5,49.5C 48.9368,49.5984 50.9368,50.5984 52.5,52.5C 51.7884,54.0459 50.6217,55.0459 49,55.5C 46.3333,54.8333 43.6667,54.1667 41,53.5C 40.2352,53.5699 39.7352,53.9033 39.5,54.5C 31.2144,54.634 23.2144,55.9674 15.5,58.5C 15.5,60.1667 15.5,61.8333 15.5,63.5C 13.4727,63.3379 11.4727,63.5045 9.5,64C 9.83333,64.3333 10.1667,64.6667 10.5,65C 9.5,65.8333 8.5,66.6667 7.5,67.5C 8.13468,71.3669 8.80135,75.2002 9.5,79C 8.33333,79.5 7.5,80.3333 7,81.5C 5.92737,79.4534 4.76071,77.4534 3.5,75.5C 3.84569,74.3044 4.34569,74.3044 5,75.5C 5.49885,71.5138 5.66551,67.5138 5.5,63.5C 3.5,63.5 1.5,63.5 -0.5,63.5C -0.5,42.1667 -0.5,20.8333 -0.5,-0.5 Z"/></g>
<g><path style="opacity:1" fill="#6d4326" d="M 175.5,8.5 C 182.378,10.6075 189.378,12.1075 196.5,13C 202.034,14.3697 207.034,16.7031 211.5,20C 213.361,21.0283 214.695,22.5283 215.5,24.5C 212.907,26.0708 211.907,28.4041 212.5,31.5C 219.841,31.3337 227.174,31.5003 234.5,32C 233.833,32.3333 233.167,32.6667 232.5,33C 235.336,34.391 237.669,36.2243 239.5,38.5C 236.446,37.8037 233.78,36.3037 231.5,34C 229.821,33.6053 228.155,33.772 226.5,34.5C 224.37,31.9259 222.704,32.2592 221.5,35.5C 219.186,34.1786 216.853,34.1786 214.5,35.5C 212.58,34.3306 210.58,33.3306 208.5,32.5C 208.167,31.8333 207.833,31.1667 207.5,30.5C 208.823,28.8349 210.156,27.1683 211.5,25.5C 212.043,25.44 212.376,25.1067 212.5,24.5C 211.833,23.5 211.167,22.5 210.5,21.5C 206.935,20.0667 203.602,18.2333 200.5,16C 196.179,15.501 191.846,15.3343 187.5,15.5C 182.962,13.8969 178.962,11.5635 175.5,8.5 Z"/></g>
<g><path style="opacity:1" fill="#81552b" d="M 231.5,-0.5 C 236.5,-0.5 241.5,-0.5 246.5,-0.5C 247.134,2.64327 248.8,5.14327 251.5,7C 254.767,6.93693 256.934,8.43693 258,11.5C 259,10.5 260,9.5 261,8.5C 261.236,10.764 261.736,12.9307 262.5,15C 261.552,15.4828 260.552,15.6495 259.5,15.5C 259.34,17.1992 259.506,18.8659 260,20.5C 262.5,23 265,25.5 267.5,28C 268.793,28.49 270.127,28.6567 271.5,28.5C 271.5,29.5 271.5,30.5 271.5,31.5C 273.167,31.5 274.833,31.5 276.5,31.5C 276.414,32.4959 276.748,33.3292 277.5,34C 281.785,35.9523 285.118,38.9523 287.5,43C 286.297,44.3685 285.297,45.8685 284.5,47.5C 277.389,51.029 270.056,51.8623 262.5,50C 261.663,48.9887 261.33,47.8221 261.5,46.5C 259.5,46.5 257.5,46.5 255.5,46.5C 255.5,45.5 255.5,44.5 255.5,43.5C 257.042,44.3007 258.708,44.634 260.5,44.5C 260.351,43.448 260.517,42.448 261,41.5C 264.243,43.2625 267.743,43.9292 271.5,43.5C 271.5,44.8333 271.5,46.1667 271.5,47.5C 272.5,47.5 273.5,47.5 274.5,47.5C 274.262,43.4764 273.262,39.8098 271.5,36.5C 268.392,35.0261 265.225,33.3594 262,31.5C 258.652,32.9306 255.485,32.5973 252.5,30.5C 250.883,27.2157 248.55,24.5491 245.5,22.5C 244.5,20.5 243.5,18.5 242.5,16.5C 244.555,15.8128 246.221,14.6461 247.5,13C 242.881,10.754 238.214,8.754 233.5,7C 231.722,4.86456 231.055,2.36456 231.5,-0.5 Z"/></g>
<g><path style="opacity:1" fill="#5e3922" d="M 127.5,15.5 C 127.5,16.8333 127.5,18.1667 127.5,19.5C 124.728,17.5662 122.895,18.2329 122,21.5C 117.408,19.8432 113.241,20.5099 109.5,23.5C 109.539,22.2438 109.039,21.2438 108,20.5C 107.167,22 106,23.1667 104.5,24C 105.308,24.3076 105.975,24.8076 106.5,25.5C 104.902,25.6097 103.235,25.943 101.5,26.5C 99.0841,31.6624 96.7508,31.4958 94.5,26C 92.0797,25.3131 89.913,25.8131 88,27.5C 87.6924,26.6919 87.1924,26.0253 86.5,25.5C 82.7443,25.9024 78.9109,26.9024 75,28.5C 73.2493,27.1912 71.7493,27.5245 70.5,29.5C 69.2278,28.954 67.8945,28.6207 66.5,28.5C 60.4174,28.6922 54.7508,29.6922 49.5,31.5C 48.8333,31.5 48.1667,31.5 47.5,31.5C 47.5,30.5 47.5,29.5 47.5,28.5C 51.7016,28.8168 55.7016,28.4834 59.5,27.5C 63.2315,26.8045 67.0648,26.1378 71,25.5C 74.0147,26.5356 76.8481,26.2023 79.5,24.5C 86.2928,21.6622 93.2928,20.6622 100.5,21.5C 109.429,18.7392 118.429,16.7392 127.5,15.5 Z"/></g>
<g><path style="opacity:1" fill="#332019" d="M 187.5,15.5 C 191.846,15.3343 196.179,15.501 200.5,16C 203.602,18.2333 206.935,20.0667 210.5,21.5C 211.167,22.5 211.833,23.5 212.5,24.5C 212.376,25.1067 212.043,25.44 211.5,25.5C 206.365,27.7306 201.031,29.3972 195.5,30.5C 194.209,29.5272 194.209,28.5272 195.5,27.5C 194.147,26.3147 192.98,24.9814 192,23.5C 191.626,24.4162 191.126,25.2496 190.5,26C 192.481,26.6054 192.815,27.6054 191.5,29C 189.541,29.9309 187.541,30.7643 185.5,31.5C 183.452,30.917 181.619,30.917 180,31.5C 179.68,28.6501 179.513,25.6501 179.5,22.5C 179.167,22.1667 178.833,21.8333 178.5,21.5C 176.363,24.1149 174.363,24.1149 172.5,21.5C 173.496,21.4142 174.329,21.7476 175,22.5C 179.076,20.9809 182.576,19.6476 185.5,18.5C 185.351,19.552 185.517,20.552 186,21.5C 187.319,19.7505 187.819,17.7505 187.5,15.5 Z"/></g>
<g><path style="opacity:1" fill="#3a2117" d="M 109.5,23.5 C 109.062,23.4346 108.728,23.6012 108.5,24C 109.973,24.7096 110.64,25.8762 110.5,27.5C 108.473,27.3379 106.473,27.5045 104.5,28C 102.679,30.2437 100.346,31.4103 97.5,31.5C 97.281,32.675 97.6143,33.675 98.5,34.5C 99.5237,33.1468 100.857,32.4802 102.5,32.5C 103.226,36.2708 101.893,38.9374 98.5,40.5C 96.9996,40.5472 95.9996,39.8805 95.5,38.5C 96.7161,37.9041 98.0494,37.7374 99.5,38C 97.4534,36.9274 95.4534,35.7607 93.5,34.5C 94.376,33.7492 95.376,33.2492 96.5,33C 93.9863,31.816 91.153,30.316 88,28.5C 86.1237,30.1231 84.7904,29.7898 84,27.5C 80.0669,30.0325 75.7336,31.3659 71,31.5C 64.0474,30.2507 56.8807,30.2507 49.5,31.5C 54.7508,29.6922 60.4174,28.6922 66.5,28.5C 67.8945,28.6207 69.2278,28.954 70.5,29.5C 71.7493,27.5245 73.2493,27.1912 75,28.5C 78.9109,26.9024 82.7443,25.9024 86.5,25.5C 87.1924,26.0253 87.6924,26.6919 88,27.5C 89.913,25.8131 92.0797,25.3131 94.5,26C 96.7508,31.4958 99.0841,31.6624 101.5,26.5C 103.235,25.943 104.902,25.6097 106.5,25.5C 105.975,24.8076 105.308,24.3076 104.5,24C 106,23.1667 107.167,22 108,20.5C 109.039,21.2438 109.539,22.2438 109.5,23.5 Z"/></g>
<g><path style="opacity:1" fill="#764e29" d="M 52.5,-0.5 C 56.1667,-0.5 59.8333,-0.5 63.5,-0.5C 63.8174,2.57186 63.4841,5.57186 62.5,8.5C 59.6866,10.3 57.6866,12.6334 56.5,15.5C 53.5,15.5 50.5,15.5 47.5,15.5C 47.5,19.5 47.5,23.5 47.5,27.5C 51.5,27.5 55.5,27.5 59.5,27.5C 55.7016,28.4834 51.7016,28.8168 47.5,28.5C 47.5,29.5 47.5,30.5 47.5,31.5C 45.8863,33.0746 43.8863,33.7413 41.5,33.5C 41.5,34.5 41.5,35.5 41.5,36.5C 38.4509,37.3574 35.4509,37.3574 32.5,36.5C 31.6143,37.325 31.281,38.325 31.5,39.5C 29.0374,41.9035 26.0374,43.5701 22.5,44.5C 20.5,42.8333 18.5,41.1667 16.5,39.5C 15.5037,33.2015 15.1703,26.8682 15.5,20.5C 17.1992,20.6602 18.8659,20.4935 20.5,20C 23.7197,17.2492 27.3863,15.7492 31.5,15.5C 31.2148,13.712 31.5481,12.0453 32.5,10.5C 37.6761,8.84398 43.0095,7.51065 48.5,6.5C 49.8796,4.13816 51.2129,1.80483 52.5,-0.5 Z"/></g>
<g><path style="opacity:1" fill="#4a2b1f" d="M 211.5,25.5 C 210.156,27.1683 208.823,28.8349 207.5,30.5C 207.833,31.1667 208.167,31.8333 208.5,32.5C 210.58,33.3306 212.58,34.3306 214.5,35.5C 216.853,34.1786 219.186,34.1786 221.5,35.5C 216.646,38.2417 211.979,37.7417 207.5,34C 205.833,33.3333 204.167,33.3333 202.5,34C 197.514,36.2281 192.514,38.3947 187.5,40.5C 185.117,39.538 184.117,40.538 184.5,43.5C 181.461,44.01 178.461,44.6766 175.5,45.5C 174.855,40.6852 176.688,39.0186 181,40.5C 182.562,39.0686 184.062,37.5686 185.5,36C 183.527,35.5045 181.527,35.3379 179.5,35.5C 184.767,34.0143 190.1,32.3476 195.5,30.5C 201.031,29.3972 206.365,27.7306 211.5,25.5 Z"/></g>
<g><path style="opacity:1" fill="#643f2a" d="M 168.5,25.5 C 170.199,25.3398 171.866,25.5065 173.5,26C 174.833,28 176.5,29.6667 178.5,31C 174.03,33.9914 169.53,36.158 165,37.5C 164.363,34.59 164.863,31.9233 166.5,29.5C 168.104,28.713 168.771,27.3797 168.5,25.5 Z"/></g>
<g><path style="opacity:1" fill="#50311f" d="M 239.5,38.5 C 240.172,39.2674 241.005,39.9341 242,40.5C 243.569,39.8778 245.236,39.5445 247,39.5C 248.986,39.5687 250.486,40.2353 251.5,41.5C 251.421,42.9305 251.754,44.2638 252.5,45.5C 252.043,46.2975 251.376,46.6309 250.5,46.5C 250.044,43.7144 248.377,42.381 245.5,42.5C 243.307,42.8644 241.473,43.8644 240,45.5C 239.751,44.376 239.251,43.376 238.5,42.5C 234.206,41.3497 230.54,39.183 227.5,36C 226.216,35.3162 225.049,35.4829 224,36.5C 223.658,34.3808 222.825,34.0474 221.5,35.5C 222.704,32.2592 224.37,31.9259 226.5,34.5C 228.155,33.772 229.821,33.6053 231.5,34C 233.78,36.3037 236.446,37.8037 239.5,38.5 Z"/></g>
<g><path style="opacity:1" fill="#2a1814" d="M 44.5,35.5 C 48.3152,37.7069 48.3152,39.8735 44.5,42C 45.4162,42.3742 46.2496,42.8742 47,43.5C 48.7998,41.683 50.9664,40.5163 53.5,40C 52.8333,39.6667 52.1667,39.3333 51.5,39C 52.8721,38.5983 54.2054,38.0983 55.5,37.5C 56.9574,39.275 58.1241,41.275 59,43.5C 59.3333,42.5 59.6667,41.5 60,40.5C 61.3876,41.5536 62.8876,41.7203 64.5,41C 63.1667,40.3333 61.8333,39.6667 60.5,39C 63.6846,38.6121 66.6846,39.2787 69.5,41C 68.3044,41.6543 68.3044,42.1543 69.5,42.5C 70.1667,42.1667 70.8333,41.8333 71.5,41.5C 73.21,42.8872 74.8767,44.2206 76.5,45.5C 75.1779,45.33 74.0113,45.6634 73,46.5C 72.6667,45.5 72.3333,44.5 72,43.5C 70.9914,45.0249 70.4914,46.6916 70.5,48.5C 69.596,49.209 69.2627,50.209 69.5,51.5C 68.1779,51.67 67.0113,51.3366 66,50.5C 65.5359,44.8252 64.8693,44.4919 64,49.5C 61.6023,49.0418 59.9356,47.7085 59,45.5C 58.5899,46.9007 58.0899,48.234 57.5,49.5C 56.7109,49.2172 56.0442,48.7172 55.5,48C 49.1406,47.8306 42.8072,47.3306 36.5,46.5C 35.8333,45.5 35.1667,44.5 34.5,43.5C 35.6161,43.598 36.6161,43.098 37.5,42C 37.0946,41.0546 36.428,40.3879 35.5,40C 38.5162,39.7801 41.0162,38.6134 43,36.5C 44.1068,37.7119 44.6068,37.3786 44.5,35.5 Z"/></g>
<g><path style="opacity:1" fill="#69422d" d="M 127.5,35.5 C 131.126,35.4862 134.46,36.4862 137.5,38.5C 139.155,41.153 141.155,43.4864 143.5,45.5C 140.608,48.204 140.942,48.8706 144.5,47.5C 144.5,50.1667 144.5,52.8333 144.5,55.5C 139.995,55.7295 135.661,55.0628 131.5,53.5C 131.5,52.5 131.5,51.5 131.5,50.5C 132.833,50.5 134.167,50.5 135.5,50.5C 135.281,51.675 135.614,52.675 136.5,53.5C 138.747,54.3742 141.08,54.7076 143.5,54.5C 143.5,52.8333 143.5,51.1667 143.5,49.5C 142.167,49.5 140.833,49.5 139.5,49.5C 137.139,49.3259 134.806,48.9926 132.5,48.5C 132.629,46.7839 132.962,45.1172 133.5,43.5C 132.003,42.6942 130.336,42.0276 128.5,41.5C 127.261,39.9928 127.595,38.8261 129.5,38C 128.244,37.5831 127.577,36.7498 127.5,35.5 Z"/></g>
<g><path style="opacity:1" fill="#58321c" d="M 47.5,31.5 C 47.6567,32.8734 47.49,34.2068 47,35.5C 46.0228,34.2264 45.1894,34.2264 44.5,35.5C 44.6068,37.3786 44.1068,37.7119 43,36.5C 41.0162,38.6134 38.5162,39.7801 35.5,40C 36.428,40.3879 37.0946,41.0546 37.5,42C 36.6161,43.098 35.6161,43.598 34.5,43.5C 35.1667,44.5 35.8333,45.5 36.5,46.5C 42.8072,47.3306 49.1406,47.8306 55.5,48C 56.0442,48.7172 56.7109,49.2172 57.5,49.5C 60.7442,50.4629 63.7442,51.7962 66.5,53.5C 63.2011,52.6239 59.8678,52.4572 56.5,53C 56.8333,53.3333 57.1667,53.6667 57.5,54C 54.8232,54.2494 52.4899,55.2494 50.5,57C 52.5,58 54.5,59 56.5,60C 59.7934,59.847 62.9601,60.0137 66,60.5C 69.2634,61.0676 70.7634,59.7343 70.5,56.5C 73.6356,57.4338 75.3023,59.6005 75.5,63C 71.2625,63.8037 67.2625,63.3037 63.5,61.5C 62.8826,61.6107 62.3826,61.944 62,62.5C 55.838,60.9481 49.6713,59.2814 43.5,57.5C 39.524,58.1638 35.524,58.4971 31.5,58.5C 31.67,59.8221 31.3366,60.9887 30.5,62C 27.2432,63.0429 23.9099,63.5429 20.5,63.5C 20.8839,66.7325 20.8839,69.8992 20.5,73C 19.6721,73.9147 18.6721,74.5814 17.5,75C 22.1729,76.4747 26.5062,75.4747 30.5,72C 36.7616,70.2125 38.095,71.8792 34.5,77C 34.8333,77.3333 35.1667,77.6667 35.5,78C 34.1667,78.3333 32.8333,78.6667 31.5,79C 33.5,79.3333 35.5,79.6667 37.5,80C 35.4049,80.5556 35.2382,81.0556 37,81.5C 38.585,80.9561 40.085,80.2894 41.5,79.5C 39.1873,82.9175 35.854,84.2508 31.5,83.5C 31.6476,86.3523 30.3143,88.019 27.5,88.5C 23.6268,86.7918 19.6268,85.4585 15.5,84.5C 17.3159,83.1851 18.9825,81.6851 20.5,80C 17.5738,79.7822 14.7405,79.2822 12,78.5C 11.1041,75.975 11.6041,73.8083 13.5,72C 11.8078,70.5993 11.1412,68.7659 11.5,66.5C 15.1233,65.403 18.1233,63.2363 20.5,60C 23.0398,58.8888 25.5398,58.7222 28,59.5C 31.6869,57.37 35.5202,55.7034 39.5,54.5C 39.7352,53.9033 40.2352,53.5699 41,53.5C 43.6667,54.1667 46.3333,54.8333 49,55.5C 50.6217,55.0459 51.7884,54.0459 52.5,52.5C 50.9368,50.5984 48.9368,49.5984 46.5,49.5C 41.931,51.5934 37.2644,51.5934 32.5,49.5C 32.1912,46.1429 31.8578,42.8096 31.5,39.5C 31.281,38.325 31.6143,37.325 32.5,36.5C 35.4509,37.3574 38.4509,37.3574 41.5,36.5C 41.5,35.5 41.5,34.5 41.5,33.5C 43.8863,33.7413 45.8863,33.0746 47.5,31.5 Z"/></g>
<g><path style="opacity:1" fill="#b36123" d="M 139.5,49.5 C 140.833,49.5 142.167,49.5 143.5,49.5C 143.5,51.1667 143.5,52.8333 143.5,54.5C 141.08,54.7076 138.747,54.3742 136.5,53.5C 135.614,52.675 135.281,51.675 135.5,50.5C 137.099,50.7678 138.432,50.4345 139.5,49.5 Z"/></g>
<g><path style="opacity:1" fill="#7a4927" d="M 66.5,53.5 C 67.8333,54.5 69.1667,55.5 70.5,56.5C 70.7634,59.7343 69.2634,61.0676 66,60.5C 62.9601,60.0137 59.7934,59.847 56.5,60C 54.5,59 52.5,58 50.5,57C 52.4899,55.2494 54.8232,54.2494 57.5,54C 57.1667,53.6667 56.8333,53.3333 56.5,53C 59.8678,52.4572 63.2011,52.6239 66.5,53.5 Z"/></g>
<g><path style="opacity:1" fill="#45281d" d="M 76.5,45.5 C 77.9907,47.1268 79.4907,48.7935 81,50.5C 84.2803,51.2822 87.4469,52.2822 90.5,53.5C 90.5,54.8333 90.5,56.1667 90.5,57.5C 93.4951,57.2938 96.1617,57.9605 98.5,59.5C 94.56,58.766 93.2266,60.0993 94.5,63.5C 93.9569,63.56 93.6236,63.8933 93.5,64.5C 94.1667,65.5 94.8333,66.5 95.5,67.5C 94.635,68.5827 93.635,68.7494 92.5,68C 87.1806,64.3417 82.1806,60.3417 77.5,56C 75.3496,54.5886 73.0163,53.7553 70.5,53.5C 70.5,51.8333 70.5,50.1667 70.5,48.5C 70.4914,46.6916 70.9914,45.0249 72,43.5C 72.3333,44.5 72.6667,45.5 73,46.5C 74.0113,45.6634 75.1779,45.33 76.5,45.5 Z"/></g>
<g><path style="opacity:1" fill="#3a2018" d="M 252.5,47.5 C 253.5,47.5 254.5,47.5 255.5,47.5C 255.261,49.4672 255.594,51.3005 256.5,53C 260.141,53.8058 263.475,55.3058 266.5,57.5C 265.652,59.4086 265.318,61.4086 265.5,63.5C 266.5,63.5 267.5,63.5 268.5,63.5C 268.5,64.5 268.5,65.5 268.5,66.5C 264.497,66.5835 260.831,65.5835 257.5,63.5C 255.042,64.919 252.375,65.919 249.5,66.5C 250.791,67.5272 250.791,68.5272 249.5,69.5C 248.518,70.1408 247.518,70.8075 246.5,71.5C 245.583,70.8728 244.583,70.5394 243.5,70.5C 241.801,70.6602 240.134,70.4935 238.5,70C 242.001,68.747 245.335,67.247 248.5,65.5C 250.515,64.0762 252.848,63.4095 255.5,63.5C 255.66,61.8008 255.494,60.1341 255,58.5C 254.667,58.8333 254.333,59.1667 254,59.5C 249.915,56.3425 245.415,55.6759 240.5,57.5C 241.936,56.5714 243.269,55.4048 244.5,54C 242.273,52.1645 240.44,52.6645 239,55.5C 239.109,54.2312 238.942,53.2312 238.5,52.5C 237.432,51.5655 236.099,51.2322 234.5,51.5C 234.5,50.5 234.5,49.5 234.5,48.5C 236.527,48.3379 238.527,48.5045 240.5,49C 239.304,49.6543 239.304,50.1543 240.5,50.5C 241.5,49.1667 242.5,49.1667 243.5,50.5C 244.478,50.0233 245.311,49.3567 246,48.5C 247.745,49.9557 249.578,51.289 251.5,52.5C 253.704,51.218 254.038,49.5514 252.5,47.5 Z"/></g>
<g><path style="opacity:1" fill="#1d0b08" d="M 172.5,21.5 C 174.363,24.1149 176.363,24.1149 178.5,21.5C 178.833,21.8333 179.167,22.1667 179.5,22.5C 179.513,25.6501 179.68,28.6501 180,31.5C 181.619,30.917 183.452,30.917 185.5,31.5C 187.541,30.7643 189.541,29.9309 191.5,29C 192.815,27.6054 192.481,26.6054 190.5,26C 191.126,25.2496 191.626,24.4162 192,23.5C 192.98,24.9814 194.147,26.3147 195.5,27.5C 194.209,28.5272 194.209,29.5272 195.5,30.5C 190.1,32.3476 184.767,34.0143 179.5,35.5C 174.163,37.5038 170.496,41.1704 168.5,46.5C 168.938,47.5063 169.604,47.5063 170.5,46.5C 171.281,45.2713 171.781,43.938 172,42.5C 172.483,43.448 172.649,44.448 172.5,45.5C 173.5,45.5 174.5,45.5 175.5,45.5C 178.461,44.6766 181.461,44.01 184.5,43.5C 184.117,40.538 185.117,39.538 187.5,40.5C 192.514,38.3947 197.514,36.2281 202.5,34C 204.167,33.3333 205.833,33.3333 207.5,34C 211.979,37.7417 216.646,38.2417 221.5,35.5C 222.825,34.0474 223.658,34.3808 224,36.5C 225.049,35.4829 226.216,35.3162 227.5,36C 230.54,39.183 234.206,41.3497 238.5,42.5C 239.251,43.376 239.751,44.376 240,45.5C 241.473,43.8644 243.307,42.8644 245.5,42.5C 248.377,42.381 250.044,43.7144 250.5,46.5C 250.842,47.3382 251.508,47.6716 252.5,47.5C 254.038,49.5514 253.704,51.218 251.5,52.5C 249.578,51.289 247.745,49.9557 246,48.5C 245.311,49.3567 244.478,50.0233 243.5,50.5C 242.5,49.1667 241.5,49.1667 240.5,50.5C 239.304,50.1543 239.304,49.6543 240.5,49C 238.527,48.5045 236.527,48.3379 234.5,48.5C 234.5,49.5 234.5,50.5 234.5,51.5C 236.099,51.2322 237.432,51.5655 238.5,52.5C 236.801,52.3398 235.134,52.5065 233.5,53C 229.084,56.2049 224.417,58.8716 219.5,61C 220.042,63.2548 221.209,65.0881 223,66.5C 228,63.1667 233,59.8333 238,56.5C 238.717,57.0442 239.217,57.7109 239.5,58.5C 235.151,62.3353 230.484,65.6687 225.5,68.5C 220.673,69.3725 216.007,69.7058 211.5,69.5C 210.163,70.3149 209.163,71.4815 208.5,73C 208.854,74.6255 208.854,76.4588 208.5,78.5C 209.93,78.4208 211.264,78.7542 212.5,79.5C 213.86,78.8201 215.193,78.1534 216.5,77.5C 217.476,78.8149 218.476,80.1482 219.5,81.5C 223.091,83.4644 226.758,85.1311 230.5,86.5C 231.968,81.2861 232.635,75.9528 232.5,70.5C 233.404,69.791 233.737,68.791 233.5,67.5C 238.616,67.569 243.616,66.9024 248.5,65.5C 245.335,67.247 242.001,68.747 238.5,70C 240.134,70.4935 241.801,70.6602 243.5,70.5C 242.122,71.2344 240.622,71.9011 239,72.5C 238.997,75.749 237.83,78.4156 235.5,80.5C 234.475,80.8966 234.308,81.5632 235,82.5C 236.975,83.478 238.642,84.8113 240,86.5C 246.247,86.0122 252.414,85.0122 258.5,83.5C 263.121,84.9994 267.454,86.6661 271.5,88.5C 271.03,89.6935 270.03,90.3601 268.5,90.5C 265.198,89.6203 261.865,88.9537 258.5,88.5C 253.204,87.4905 247.871,87.3239 242.5,88C 238.563,90.5448 234.23,92.0448 229.5,92.5C 233.953,95.9745 238.953,97.9745 244.5,98.5C 244.784,95.7462 245.451,93.0795 246.5,90.5C 247.363,92.7713 247.363,95.1046 246.5,97.5C 244.038,99.9793 244.371,101.479 247.5,102C 246.584,102.278 245.918,102.778 245.5,103.5C 240.606,100.851 235.606,98.184 230.5,95.5C 229.5,95.5 228.5,95.5 227.5,95.5C 227.167,95.5 226.833,95.5 226.5,95.5C 225.5,94.8333 224.5,94.1667 223.5,93.5C 223.707,90.2546 222.207,88.2546 219,87.5C 218.586,87.9574 218.086,88.2907 217.5,88.5C 211.951,86.9305 206.284,85.9305 200.5,85.5C 197.217,85.6412 194.217,86.6412 191.5,88.5C 186.282,89.189 181.116,89.8557 176,90.5C 175.217,88.5665 175.717,87.0665 177.5,86C 176.692,85.6924 176.025,85.1924 175.5,84.5C 177.833,83.8333 180.167,83.1667 182.5,82.5C 181.624,81.7492 180.624,81.2492 179.5,81C 180.672,80.5814 181.672,79.9147 182.5,79C 176.911,79.5675 171.244,79.5675 165.5,79C 164.756,77.9614 163.756,77.4614 162.5,77.5C 165.084,75.5275 168.084,74.5275 171.5,74.5C 171.421,73.0695 171.754,71.7362 172.5,70.5C 170.994,69.2528 169.494,69.2528 168,70.5C 167.027,68.36 165.527,66.6933 163.5,65.5C 159.61,71.3302 155.277,76.6635 150.5,81.5C 149.71,80.3915 149.21,79.0581 149,77.5C 147.174,76.1587 146.007,76.6587 145.5,79C 147.235,81.4019 147.568,83.9019 146.5,86.5C 145.833,86.1667 145.167,85.8333 144.5,85.5C 143.016,81.2205 143.35,77.2205 145.5,73.5C 147.296,72.2073 148.963,70.7073 150.5,69C 149.845,67.5134 148.845,66.3467 147.5,65.5C 146.16,66.8665 144.827,68.1999 143.5,69.5C 143.489,65.6482 145.489,63.8149 149.5,64C 147.709,63.5848 146.376,62.5848 145.5,61C 146.861,59.4157 147.528,57.5824 147.5,55.5C 146.5,55.5 145.5,55.5 144.5,55.5C 144.5,52.8333 144.5,50.1667 144.5,47.5C 147.582,48.0975 150.582,47.4308 153.5,45.5C 149.078,45.3592 145.411,43.6925 142.5,40.5C 143.576,39.3441 144.576,39.5108 145.5,41C 147.5,41.6667 149.5,41.6667 151.5,41C 149.953,38.2133 147.953,35.8799 145.5,34C 146.737,33.7679 147.737,33.2679 148.5,32.5C 148.833,32.5 149.167,32.5 149.5,32.5C 150.263,33.2679 151.263,33.7679 152.5,34C 151.833,34.3333 151.167,34.6667 150.5,35C 155.198,36.3242 156.198,38.8242 153.5,42.5C 153.887,43.7199 154.72,44.3865 156,44.5C 158.996,43.4491 161.83,42.1157 164.5,40.5C 163.891,37.1634 162.724,36.8301 161,39.5C 159.007,37.5665 156.841,35.8998 154.5,34.5C 156.398,33.2655 158.065,33.5989 159.5,35.5C 161.976,33.5975 164.309,31.5975 166.5,29.5C 164.863,31.9233 164.363,34.59 165,37.5C 169.53,36.158 174.03,33.9914 178.5,31C 176.5,29.6667 174.833,28 173.5,26C 171.866,25.5065 170.199,25.3398 168.5,25.5C 168.5,24.1667 168.5,22.8333 168.5,21.5C 169.833,21.5 171.167,21.5 172.5,21.5 Z"/></g>
<g><path style="opacity:1" fill="#6b4029" d="M 217.5,54.5 C 219.5,54.8333 221.5,55.1667 223.5,55.5C 222.249,57.2199 220.749,57.5532 219,56.5C 217.143,59.1998 214.643,60.8665 211.5,61.5C 212.141,60.5178 212.807,59.5178 213.5,58.5C 211.604,57.5344 209.604,57.2011 207.5,57.5C 210.575,55.952 213.909,54.952 217.5,54.5 Z"/></g>
<g><path style="opacity:1" fill="#b46327" d="M 179.5,52.5 C 179.611,53.1174 179.944,53.6174 180.5,54C 184.152,54.4986 187.818,54.6653 191.5,54.5C 191.5,56.1667 191.5,57.8333 191.5,59.5C 190.471,62.8908 188.471,65.5574 185.5,67.5C 185.976,64.2816 187.309,61.4483 189.5,59C 185.559,55.5661 181.892,55.7327 178.5,59.5C 179.668,60.9056 179.335,62.0723 177.5,63C 178.973,63.7096 179.64,64.8762 179.5,66.5C 177.621,65.6586 175.621,65.3253 173.5,65.5C 173.561,63.4078 174.561,61.9078 176.5,61C 175.049,61.2626 173.716,61.0959 172.5,60.5C 173.309,58.9291 173.643,57.2624 173.5,55.5C 174.68,53.9855 175.68,52.3188 176.5,50.5C 177.739,50.9424 178.739,51.6091 179.5,52.5 Z"/></g>
<g><path style="opacity:1" fill="#8c5a34" d="M 187.5,52.5 C 188.919,53.4511 190.585,53.7845 192.5,53.5C 194.062,55.9007 193.729,57.9007 191.5,59.5C 191.5,57.8333 191.5,56.1667 191.5,54.5C 187.818,54.6653 184.152,54.4986 180.5,54C 179.944,53.6174 179.611,53.1174 179.5,52.5C 183.182,53.2747 185.682,51.9414 187,48.5C 187.49,49.7932 187.657,51.1266 187.5,52.5 Z"/></g>
<g><path style="opacity:1" fill="#764c38" d="M 152.5,48.5 C 154.337,51.9013 153.337,54.2346 149.5,55.5C 148.534,53.604 148.201,51.604 148.5,49.5C 150.099,49.7678 151.432,49.4345 152.5,48.5 Z"/></g>
<g><path style="opacity:1" fill="#43281e" d="M 234.5,48.5 C 232.554,50.7069 230.388,52.7069 228,54.5C 225.833,53 226,51.8333 228.5,51C 228,50.5 227.5,50 227,49.5C 225.159,51.1591 223.992,53.1591 223.5,55.5C 221.5,55.1667 219.5,54.8333 217.5,54.5C 215.958,53.8365 214.291,53.1698 212.5,52.5C 214.284,51.394 216.118,51.394 218,52.5C 219.763,52.0245 221.43,51.3578 223,50.5C 223.866,48.1039 223.366,47.4372 221.5,48.5C 220.107,47.1369 218.441,46.3036 216.5,46C 218.017,44.3149 219.684,42.8149 221.5,41.5C 226.311,43.0914 230.644,45.4247 234.5,48.5 Z"/></g>
<g><path style="opacity:1" fill="#45291e" d="M 192.5,53.5 C 190.585,53.7845 188.919,53.4511 187.5,52.5C 188.847,51.8288 190.014,51.8288 191,52.5C 191.067,49.953 191.901,47.7863 193.5,46C 192.692,45.6924 192.025,45.1924 191.5,44.5C 192.23,42.9938 192.563,41.6605 192.5,40.5C 194.733,40.8645 196.566,41.8645 198,43.5C 198.333,42.8333 198.667,42.1667 199,41.5C 201.608,43.1818 204.275,43.8484 207,43.5C 207.549,39.3826 209.216,38.7159 212,41.5C 213.441,40.7402 214.941,40.0736 216.5,39.5C 219.088,41.72 218.588,43.3867 215,44.5C 214.667,43.8333 214.333,43.1667 214,42.5C 212.328,45.5138 210.328,47.5138 208,48.5C 206.612,47.4464 205.112,47.2797 203.5,48C 204.86,49.9376 204.527,51.6043 202.5,53C 199.323,52.6755 195.99,52.8422 192.5,53.5 Z"/></g>
<g><path style="opacity:1" fill="#75482d" d="M 179.5,35.5 C 181.527,35.3379 183.527,35.5045 185.5,36C 184.062,37.5686 182.562,39.0686 181,40.5C 176.688,39.0186 174.855,40.6852 175.5,45.5C 174.5,45.5 173.5,45.5 172.5,45.5C 172.649,44.448 172.483,43.448 172,42.5C 171.781,43.938 171.281,45.2713 170.5,46.5C 169.604,47.5063 168.938,47.5063 168.5,46.5C 170.496,41.1704 174.163,37.5038 179.5,35.5 Z"/></g>
<g><path style="opacity:1" fill="#543423" d="M 238.5,52.5 C 238.942,53.2312 239.109,54.2312 239,55.5C 240.44,52.6645 242.273,52.1645 244.5,54C 243.269,55.4048 241.936,56.5714 240.5,57.5C 240.5,58.1667 240.167,58.5 239.5,58.5C 239.217,57.7109 238.717,57.0442 238,56.5C 233,59.8333 228,63.1667 223,66.5C 221.209,65.0881 220.042,63.2548 219.5,61C 224.417,58.8716 229.084,56.2049 233.5,53C 235.134,52.5065 236.801,52.3398 238.5,52.5 Z"/></g>
<g><path style="opacity:1" fill="#aa6330" d="M 207.5,57.5 C 209.604,57.2011 211.604,57.5344 213.5,58.5C 212.807,59.5178 212.141,60.5178 211.5,61.5C 208.598,62.7837 205.598,63.7837 202.5,64.5C 202.241,60.7632 203.907,58.4298 207.5,57.5 Z"/></g>
<g><path style="opacity:1" fill="#c86419" d="M 185.5,67.5 C 183.379,67.6747 181.379,67.3414 179.5,66.5C 179.64,64.8762 178.973,63.7096 177.5,63C 179.335,62.0723 179.668,60.9056 178.5,59.5C 181.892,55.7327 185.559,55.5661 189.5,59C 187.309,61.4483 185.976,64.2816 185.5,67.5 Z"/></g>
<g><path style="opacity:1" fill="#815941" d="M 197.5,68.5 C 197.5,66.8333 197.5,65.1667 197.5,63.5C 196.5,63.5 195.5,63.5 194.5,63.5C 195.665,61.5839 197.332,60.7506 199.5,61C 198.877,63.6073 198.21,66.1073 197.5,68.5 Z"/></g>
<g><path style="opacity:1" fill="#714624" d="M 276.5,31.5 C 278.527,31.3379 280.527,31.5045 282.5,32C 287.558,35.8664 293.225,38.0331 299.5,38.5C 299.5,46.8333 299.5,55.1667 299.5,63.5C 296.833,63.5 294.167,63.5 291.5,63.5C 291.665,66.8499 291.498,70.1832 291,73.5C 290.184,74.8228 289.017,75.4894 287.5,75.5C 287.5,74.5 287.5,73.5 287.5,72.5C 280.825,72.6663 274.158,72.4996 267.5,72C 262.101,67.0259 256.101,66.1926 249.5,69.5C 250.791,68.5272 250.791,67.5272 249.5,66.5C 252.375,65.919 255.042,64.919 257.5,63.5C 260.831,65.5835 264.497,66.5835 268.5,66.5C 268.5,65.5 268.5,64.5 268.5,63.5C 267.5,63.5 266.5,63.5 265.5,63.5C 265.318,61.4086 265.652,59.4086 266.5,57.5C 263.475,55.3058 260.141,53.8058 256.5,53C 255.594,51.3005 255.261,49.4672 255.5,47.5C 254.5,47.5 253.5,47.5 252.5,47.5C 251.508,47.6716 250.842,47.3382 250.5,46.5C 251.376,46.6309 252.043,46.2975 252.5,45.5C 251.754,44.2638 251.421,42.9305 251.5,41.5C 253.38,41.2291 254.713,41.8958 255.5,43.5C 255.5,44.5 255.5,45.5 255.5,46.5C 257.5,46.5 259.5,46.5 261.5,46.5C 261.33,47.8221 261.663,48.9887 262.5,50C 270.056,51.8623 277.389,51.029 284.5,47.5C 285.297,45.8685 286.297,44.3685 287.5,43C 285.118,38.9523 281.785,35.9523 277.5,34C 276.748,33.3292 276.414,32.4959 276.5,31.5 Z"/></g>
<g><path style="opacity:1" fill="#6e4327" d="M 248.5,65.5 C 243.616,66.9024 238.616,67.569 233.5,67.5C 233.737,68.791 233.404,69.791 232.5,70.5C 230.521,68.8325 228.188,68.1658 225.5,68.5C 230.484,65.6687 235.151,62.3353 239.5,58.5C 240.167,58.5 240.5,58.1667 240.5,57.5C 245.415,55.6759 249.915,56.3425 254,59.5C 254.333,59.1667 254.667,58.8333 255,58.5C 255.494,60.1341 255.66,61.8008 255.5,63.5C 252.848,63.4095 250.515,64.0762 248.5,65.5 Z"/></g>
<g><path style="opacity:1" fill="#7c4527" d="M 173.5,55.5 C 173.643,57.2624 173.309,58.9291 172.5,60.5C 173.716,61.0959 175.049,61.2626 176.5,61C 174.561,61.9078 173.561,63.4078 173.5,65.5C 175.621,65.3253 177.621,65.6586 179.5,66.5C 181.379,67.3414 183.379,67.6747 185.5,67.5C 183.231,69.3837 180.564,70.717 177.5,71.5C 174.612,69.4366 171.612,67.6033 168.5,66C 169.624,65.7508 170.624,65.2508 171.5,64.5C 169.999,63.2485 168.332,62.2485 166.5,61.5C 164.575,57.6314 165.742,55.2981 170,54.5C 171.046,56.1952 172.213,56.5285 173.5,55.5 Z"/></g>
<g><path style="opacity:1" fill="#392018" d="M 63.5,61.5 C 62.5266,63.3002 61.5266,65.1335 60.5,67C 58.0913,67.7479 55.9246,68.9145 54,70.5C 47.4141,69.3696 41.7475,66.7029 37,62.5C 35.3333,63.8333 33.6667,63.8333 32,62.5C 30.887,63.7604 30.7203,64.927 31.5,66C 35.2837,66.8181 38.9504,67.8181 42.5,69C 40.5,69.3333 38.5,69.6667 36.5,70C 41.0556,70.1095 45.3889,71.1095 49.5,73C 47.9733,74.0319 46.64,75.1986 45.5,76.5C 44.1667,77.5 42.8333,78.5 41.5,79.5C 40.085,80.2894 38.585,80.9561 37,81.5C 35.2382,81.0556 35.4049,80.5556 37.5,80C 35.5,79.6667 33.5,79.3333 31.5,79C 32.8333,78.6667 34.1667,78.3333 35.5,78C 35.1667,77.6667 34.8333,77.3333 34.5,77C 38.095,71.8792 36.7616,70.2125 30.5,72C 26.5062,75.4747 22.1729,76.4747 17.5,75C 18.6721,74.5814 19.6721,73.9147 20.5,73C 20.8839,69.8992 20.8839,66.7325 20.5,63.5C 23.9099,63.5429 27.2432,63.0429 30.5,62C 31.3366,60.9887 31.67,59.8221 31.5,58.5C 35.524,58.4971 39.524,58.1638 43.5,57.5C 49.6713,59.2814 55.838,60.9481 62,62.5C 62.3826,61.944 62.8826,61.6107 63.5,61.5 Z"/></g>
<g><path style="opacity:1" fill="#9b5d37" d="M 193.5,65.5 C 192.962,67.1172 192.629,68.7839 192.5,70.5C 193.833,70.5 195.167,70.5 196.5,70.5C 194.17,73.0541 191.837,72.8874 189.5,70C 190.733,68.3333 192.067,66.8333 193.5,65.5 Z"/></g>
<g><path style="opacity:1" fill="#b77034" d="M 145.5,73.5 C 143.952,73.1788 143.285,72.1788 143.5,70.5C 143.5,70.1667 143.5,69.8333 143.5,69.5C 144.827,68.1999 146.16,66.8665 147.5,65.5C 148.845,66.3467 149.845,67.5134 150.5,69C 148.963,70.7073 147.296,72.2073 145.5,73.5 Z"/></g>
<g><path style="opacity:1" fill="#c46820" d="M 194.5,63.5 C 195.5,63.5 196.5,63.5 197.5,63.5C 197.5,65.1667 197.5,66.8333 197.5,68.5C 197.167,69.1667 196.833,69.8333 196.5,70.5C 195.167,70.5 193.833,70.5 192.5,70.5C 192.629,68.7839 192.962,67.1172 193.5,65.5C 193.328,64.5084 193.662,63.8417 194.5,63.5 Z"/></g>
<g><path style="opacity:1" fill="#150605" d="M 70.5,48.5 C 70.5,50.1667 70.5,51.8333 70.5,53.5C 73.0163,53.7553 75.3496,54.5886 77.5,56C 82.1806,60.3417 87.1806,64.3417 92.5,68C 93.635,68.7494 94.635,68.5827 95.5,67.5C 94.8333,66.5 94.1667,65.5 93.5,64.5C 93.6236,63.8933 93.9569,63.56 94.5,63.5C 96.5,64.8333 98.5,64.8333 100.5,63.5C 101.738,61.7857 102.405,59.7857 102.5,57.5C 103.5,57.5 104.5,57.5 105.5,57.5C 105.357,59.2624 105.691,60.9291 106.5,62.5C 104.728,63.2697 103.728,64.6031 103.5,66.5C 104,68.5 104.5,70.5 105,72.5C 106.145,73.6843 107.312,73.6843 108.5,72.5C 109.708,73.2341 111.041,73.5674 112.5,73.5C 112.953,74.4584 113.619,75.2917 114.5,76C 112.359,77.3076 110.359,78.8076 108.5,80.5C 114.402,82.5457 120.735,83.8791 127.5,84.5C 127.5,85.8333 127.5,87.1667 127.5,88.5C 124.575,88.5402 121.909,87.7068 119.5,86C 116.518,85.502 113.518,85.3354 110.5,85.5C 109.391,85.4431 108.391,85.1098 107.5,84.5C 105.485,83.0762 103.152,82.4095 100.5,82.5C 99.9995,88.43 102.666,91.0967 108.5,90.5C 109.5,90.5 110.5,90.5 111.5,90.5C 111.351,91.552 111.517,92.552 112,93.5C 116.919,92.1916 122.086,92.1916 127.5,93.5C 127.5,95.1667 127.5,96.8333 127.5,98.5C 126.5,98.5 125.5,98.5 124.5,98.5C 123.596,97.791 123.263,96.791 123.5,95.5C 121.143,95.3367 118.81,95.5034 116.5,96C 118.241,97.6196 120.075,99.1196 122,100.5C 122.26,102.618 123.26,104.284 125,105.5C 125.773,110.182 125.107,110.515 123,106.5C 120.266,107.362 120.099,108.195 122.5,109C 121.244,109.417 120.577,110.25 120.5,111.5C 118.393,112.3 116.226,112.967 114,113.5C 112.2,112.622 110.367,111.955 108.5,111.5C 108.5,109.833 108.5,108.167 108.5,106.5C 110.5,106.833 112.5,107.167 114.5,107.5C 114.67,106.178 114.337,105.011 113.5,104C 105.263,103.068 97.2629,103.568 89.5,105.5C 83.0127,106.1 77.3461,108.433 72.5,112.5C 69.4486,112.636 66.4486,112.302 63.5,111.5C 60.4661,111.723 58.1328,113.056 56.5,115.5C 54.2534,114.626 51.9201,114.292 49.5,114.5C 48.1876,111.464 45.8542,109.298 42.5,108C 44.1966,107.616 45.8632,107.782 47.5,108.5C 49.5713,106.9 51.9047,106.4 54.5,107C 50.0422,107.861 49.7088,109.028 53.5,110.5C 55.8193,109.936 58.1526,109.436 60.5,109C 62.0629,108.241 63.0629,107.074 63.5,105.5C 65.3666,105.955 67.1999,106.622 69,107.5C 70.0698,107.472 70.9032,107.139 71.5,106.5C 74.6059,103.799 77.6059,100.965 80.5,98C 83.319,98.4922 85.9856,98.3256 88.5,97.5C 94.689,94.5964 96.0223,90.0964 92.5,84C 90.5372,83.1558 89.2039,83.6558 88.5,85.5C 87.8423,86.3984 87.1757,87.3984 86.5,88.5C 86.1667,88.1667 85.8333,87.8333 85.5,87.5C 86.3094,85.9291 86.6427,84.2624 86.5,82.5C 82.0657,82.9086 77.7324,83.9086 73.5,85.5C 69.5345,85.5283 65.5345,85.1949 61.5,84.5C 59.9954,87.1306 59.3287,86.7973 59.5,83.5C 58.209,83.2627 57.209,83.596 56.5,84.5C 55.8333,84.5 55.5,84.1667 55.5,83.5C 55.3505,82.448 55.5172,81.448 56,80.5C 58.46,79.0422 60.6266,77.2089 62.5,75C 61.8333,74.3333 61.1667,73.6667 60.5,73C 55.4484,73.6786 50.4484,74.8452 45.5,76.5C 46.64,75.1986 47.9733,74.0319 49.5,73C 45.3889,71.1095 41.0556,70.1095 36.5,70C 38.5,69.6667 40.5,69.3333 42.5,69C 38.9504,67.8181 35.2837,66.8181 31.5,66C 30.7203,64.927 30.887,63.7604 32,62.5C 33.6667,63.8333 35.3333,63.8333 37,62.5C 41.7475,66.7029 47.4141,69.3696 54,70.5C 55.9246,68.9145 58.0913,67.7479 60.5,67C 61.5266,65.1335 62.5266,63.3002 63.5,61.5C 67.2625,63.3037 71.2625,63.8037 75.5,63C 75.3023,59.6005 73.6356,57.4338 70.5,56.5C 69.1667,55.5 67.8333,54.5 66.5,53.5C 63.7442,51.7962 60.7442,50.4629 57.5,49.5C 58.0899,48.234 58.5899,46.9007 59,45.5C 59.9356,47.7085 61.6023,49.0418 64,49.5C 64.8693,44.4919 65.5359,44.8252 66,50.5C 67.0113,51.3366 68.1779,51.67 69.5,51.5C 69.2627,50.209 69.596,49.209 70.5,48.5 Z"/></g>
<g><path style="opacity:1" fill="#925930" d="M 98.5,59.5 C 100.176,60.1834 100.843,61.5168 100.5,63.5C 98.5,64.8333 96.5,64.8333 94.5,63.5C 93.2266,60.0993 94.56,58.766 98.5,59.5 Z"/></g>
<g><path style="opacity:1" fill="#9b5829" d="M 225.5,68.5 C 228.188,68.1658 230.521,68.8325 232.5,70.5C 232.635,75.9528 231.968,81.2861 230.5,86.5C 226.758,85.1311 223.091,83.4644 219.5,81.5C 218.476,80.1482 217.476,78.8149 216.5,77.5C 217.097,77.2648 217.43,76.7648 217.5,76C 214.743,74.4715 212.743,72.3048 211.5,69.5C 216.007,69.7058 220.673,69.3725 225.5,68.5 Z"/></g>
<g><path style="opacity:1" fill="#683a2a" d="M 203.5,70.5 C 204.5,70.5 205.5,70.5 206.5,70.5C 206.5,72.8333 206.5,75.1667 206.5,77.5C 204.516,77.6168 202.85,76.9501 201.5,75.5C 202.95,74.1502 203.617,72.4835 203.5,70.5 Z"/></g>
<g><path style="opacity:1" fill="#725e54" d="M 234.5,70.5 C 236.561,71.7514 236.894,73.4181 235.5,75.5C 234.548,73.9547 234.215,72.288 234.5,70.5 Z"/></g>
<g><path style="opacity:1" fill="#c8722d" d="M 162.5,77.5 C 161.527,77.9867 160.527,78.4867 159.5,79C 156.635,82.6919 153.635,86.1919 150.5,89.5C 149.833,89.5 149.167,89.5 148.5,89.5C 148.5,88.8333 148.5,88.1667 148.5,87.5C 148.253,85.1417 148.919,83.1417 150.5,81.5C 155.277,76.6635 159.61,71.3302 163.5,65.5C 165.527,66.6933 167.027,68.36 168,70.5C 169.494,69.2528 170.994,69.2528 172.5,70.5C 171.754,71.7362 171.421,73.0695 171.5,74.5C 168.084,74.5275 165.084,75.5275 162.5,77.5 Z"/></g>
<g><path style="opacity:1" fill="#6b3c22" d="M 211.5,69.5 C 212.743,72.3048 214.743,74.4715 217.5,76C 217.43,76.7648 217.097,77.2648 216.5,77.5C 215.193,78.1534 213.86,78.8201 212.5,79.5C 211.264,78.7542 209.93,78.4208 208.5,78.5C 208.854,76.4588 208.854,74.6255 208.5,73C 209.163,71.4815 210.163,70.3149 211.5,69.5 Z"/></g>
<g><path style="opacity:1" fill="#77513c" d="M 78.5,74.5 C 80.9775,74.0508 82.9775,74.7175 84.5,76.5C 82.0457,78.8105 79.2124,80.4772 76,81.5C 77.2861,79.5434 78.1194,77.21 78.5,74.5 Z"/></g>
<g><path style="opacity:1" fill="#7d4821" d="M 287.5,75.5 C 287.5,76.8333 287.5,78.1667 287.5,79.5C 285.5,79.5 283.5,79.5 281.5,79.5C 281.033,81.711 280.033,83.711 278.5,85.5C 276.844,83.9776 275.677,84.311 275,86.5C 263.81,80.6838 252.31,80.0172 240.5,84.5C 238.725,83.1624 237.059,81.829 235.5,80.5C 237.83,78.4156 238.997,75.749 239,72.5C 240.622,71.9011 242.122,71.2344 243.5,70.5C 244.583,70.5394 245.583,70.8728 246.5,71.5C 247.518,70.8075 248.518,70.1408 249.5,69.5C 256.101,66.1926 262.101,67.0259 267.5,72C 274.158,72.4996 280.825,72.6663 287.5,72.5C 287.5,73.5 287.5,74.5 287.5,75.5 Z"/></g>
<g><path style="opacity:1" fill="#76492e" d="M 68.5,75.5 C 73.1606,74.8321 75.1606,76.8321 74.5,81.5C 71.314,81.6632 68.6473,80.6632 66.5,78.5C 67.1925,77.4822 67.8592,76.4822 68.5,75.5 Z"/></g>
<g><path style="opacity:1" fill="#1b0b07" d="M 175.5,7.5 C 175.5,7.83333 175.5,8.16667 175.5,8.5C 178.962,11.5635 182.962,13.8969 187.5,15.5C 187.819,17.7505 187.319,19.7505 186,21.5C 185.517,20.552 185.351,19.552 185.5,18.5C 182.576,19.6476 179.076,20.9809 175,22.5C 174.329,21.7476 173.496,21.4142 172.5,21.5C 171.167,21.5 169.833,21.5 168.5,21.5C 168.5,22.8333 168.5,24.1667 168.5,25.5C 168.771,27.3797 168.104,28.713 166.5,29.5C 164.309,31.5975 161.976,33.5975 159.5,35.5C 158.065,33.5989 156.398,33.2655 154.5,34.5C 156.841,35.8998 159.007,37.5665 161,39.5C 162.724,36.8301 163.891,37.1634 164.5,40.5C 161.83,42.1157 158.996,43.4491 156,44.5C 154.72,44.3865 153.887,43.7199 153.5,42.5C 156.198,38.8242 155.198,36.3242 150.5,35C 151.167,34.6667 151.833,34.3333 152.5,34C 151.263,33.7679 150.263,33.2679 149.5,32.5C 153.273,32.7367 156.94,32.2367 160.5,31C 159.619,30.2917 158.953,29.4584 158.5,28.5C 160.225,29.278 161.891,29.6114 163.5,29.5C 165.271,28.9646 165.604,28.1313 164.5,27C 166.363,25.5822 166.863,23.7489 166,21.5C 165.329,20.7476 164.496,20.4142 163.5,20.5C 160.938,19.4544 158.605,18.1211 156.5,16.5C 154.109,17.1914 154.109,18.1914 156.5,19.5C 156.376,20.1067 156.043,20.44 155.5,20.5C 154.531,19.6906 153.698,18.6906 153,17.5C 151.355,17.6932 149.521,17.8598 147.5,18C 148.167,19 148.833,20 149.5,21C 144.283,20.7498 139.616,22.0831 135.5,25C 136.085,26.3024 136.751,27.469 137.5,28.5C 137.5,29.1667 137.833,29.5 138.5,29.5C 140.599,30.6118 142.933,31.2785 145.5,31.5C 146.209,32.404 147.209,32.7373 148.5,32.5C 147.737,33.2679 146.737,33.7679 145.5,34C 147.953,35.8799 149.953,38.2133 151.5,41C 149.5,41.6667 147.5,41.6667 145.5,41C 144.576,39.5108 143.576,39.3441 142.5,40.5C 145.411,43.6925 149.078,45.3592 153.5,45.5C 150.582,47.4308 147.582,48.0975 144.5,47.5C 140.942,48.8706 140.608,48.204 143.5,45.5C 141.155,43.4864 139.155,41.153 137.5,38.5C 134.46,36.4862 131.126,35.4862 127.5,35.5C 127.809,31.6572 126.309,30.3239 123,31.5C 122.692,30.6919 122.192,30.0253 121.5,29.5C 117.705,29.819 114.205,30.819 111,32.5C 109.989,31.6634 108.822,31.33 107.5,31.5C 107.239,28.0848 106.072,28.0848 104,31.5C 103.242,33.7695 103.409,35.9361 104.5,38C 102.018,39.5944 101.852,41.4277 104,43.5C 104.837,41.6494 105.671,39.8161 106.5,38C 107.549,37.5078 108.549,37.6744 109.5,38.5C 110.548,37.6171 111.715,36.9504 113,36.5C 115.774,37.5358 118.607,38.3691 121.5,39C 120.304,39.6543 120.304,40.1543 121.5,40.5C 122.167,40.1667 122.833,39.8333 123.5,39.5C 124.696,39.8457 124.696,40.3457 123.5,41C 125.618,41.2602 127.284,42.2602 128.5,44C 130.265,44.6397 131.932,44.4731 133.5,43.5C 132.962,45.1172 132.629,46.7839 132.5,48.5C 134.806,48.9926 137.139,49.3259 139.5,49.5C 138.432,50.4345 137.099,50.7678 135.5,50.5C 134.167,50.5 132.833,50.5 131.5,50.5C 131.5,51.5 131.5,52.5 131.5,53.5C 135.661,55.0628 139.995,55.7295 144.5,55.5C 145.5,55.5 146.5,55.5 147.5,55.5C 147.528,57.5824 146.861,59.4157 145.5,61C 146.376,62.5848 147.709,63.5848 149.5,64C 145.489,63.8149 143.489,65.6482 143.5,69.5C 143.5,69.8333 143.5,70.1667 143.5,70.5C 142.842,71.3984 142.176,72.3984 141.5,73.5C 140.355,72.2243 140.355,70.891 141.5,69.5C 140.975,68.8076 140.308,68.3076 139.5,68C 140.91,67.6322 141.91,66.7989 142.5,65.5C 141.5,65.5 140.5,65.5 139.5,65.5C 140.348,63.5914 140.682,61.5914 140.5,59.5C 139.264,57.9572 137.598,56.9572 135.5,56.5C 134.203,58.9732 134.203,61.3066 135.5,63.5C 137.931,64.7409 137.931,65.9076 135.5,67C 140.75,73.7428 140.75,80.5761 135.5,87.5C 134.52,90.0865 134.187,92.7531 134.5,95.5C 132.24,96.1389 130.24,97.3055 128.5,99C 126.934,99.765 125.601,99.5983 124.5,98.5C 125.5,98.5 126.5,98.5 127.5,98.5C 127.5,96.8333 127.5,95.1667 127.5,93.5C 122.086,92.1916 116.919,92.1916 112,93.5C 111.517,92.552 111.351,91.552 111.5,90.5C 110.5,90.5 109.5,90.5 108.5,90.5C 108.5,90.1667 108.5,89.8333 108.5,89.5C 110.85,88.805 111.517,87.4717 110.5,85.5C 113.518,85.3354 116.518,85.502 119.5,86C 121.909,87.7068 124.575,88.5402 127.5,88.5C 127.5,87.1667 127.5,85.8333 127.5,84.5C 120.735,83.8791 114.402,82.5457 108.5,80.5C 110.359,78.8076 112.359,77.3076 114.5,76C 113.619,75.2917 112.953,74.4584 112.5,73.5C 112.435,73.0618 112.601,72.7284 113,72.5C 114.774,73.965 116.608,75.2983 118.5,76.5C 120.59,78.3902 122.923,80.0569 125.5,81.5C 126.298,81.0431 126.631,80.3764 126.5,79.5C 128.974,76.8132 129.141,73.8132 127,70.5C 125.921,68.6063 124.587,68.273 123,69.5C 121.497,66.0597 118.997,64.0597 115.5,63.5C 113.095,62.2318 110.428,61.5651 107.5,61.5C 107.085,63.7468 106.418,65.9135 105.5,68C 105.684,69.3756 106.351,70.2089 107.5,70.5C 107.833,71.1667 108.167,71.8333 108.5,72.5C 107.312,73.6843 106.145,73.6843 105,72.5C 104.5,70.5 104,68.5 103.5,66.5C 103.728,64.6031 104.728,63.2697 106.5,62.5C 105.691,60.9291 105.357,59.2624 105.5,57.5C 104.5,57.5 103.5,57.5 102.5,57.5C 102.405,59.7857 101.738,61.7857 100.5,63.5C 100.843,61.5168 100.176,60.1834 98.5,59.5C 96.1617,57.9605 93.4951,57.2938 90.5,57.5C 90.5,56.1667 90.5,54.8333 90.5,53.5C 87.4469,52.2822 84.2803,51.2822 81,50.5C 79.4907,48.7935 77.9907,47.1268 76.5,45.5C 74.8767,44.2206 73.21,42.8872 71.5,41.5C 70.8333,41.8333 70.1667,42.1667 69.5,42.5C 68.3044,42.1543 68.3044,41.6543 69.5,41C 66.6846,39.2787 63.6846,38.6121 60.5,39C 61.8333,39.6667 63.1667,40.3333 64.5,41C 62.8876,41.7203 61.3876,41.5536 60,40.5C 59.6667,41.5 59.3333,42.5 59,43.5C 58.1241,41.275 56.9574,39.275 55.5,37.5C 54.2054,38.0983 52.8721,38.5983 51.5,39C 52.1667,39.3333 52.8333,39.6667 53.5,40C 50.9664,40.5163 48.7998,41.683 47,43.5C 46.2496,42.8742 45.4162,42.3742 44.5,42C 48.3152,39.8735 48.3152,37.7069 44.5,35.5C 45.1894,34.2264 46.0228,34.2264 47,35.5C 47.49,34.2068 47.6567,32.8734 47.5,31.5C 48.1667,31.5 48.8333,31.5 49.5,31.5C 56.8807,30.2507 64.0474,30.2507 71,31.5C 75.7336,31.3659 80.0669,30.0325 84,27.5C 84.7904,29.7898 86.1237,30.1231 88,28.5C 91.153,30.316 93.9863,31.816 96.5,33C 95.376,33.2492 94.376,33.7492 93.5,34.5C 95.4534,35.7607 97.4534,36.9274 99.5,38C 98.0494,37.7374 96.7161,37.9041 95.5,38.5C 95.9996,39.8805 96.9996,40.5472 98.5,40.5C 101.893,38.9374 103.226,36.2708 102.5,32.5C 100.857,32.4802 99.5237,33.1468 98.5,34.5C 97.6143,33.675 97.281,32.675 97.5,31.5C 100.346,31.4103 102.679,30.2437 104.5,28C 106.473,27.5045 108.473,27.3379 110.5,27.5C 110.64,25.8762 109.973,24.7096 108.5,24C 108.728,23.6012 109.062,23.4346 109.5,23.5C 113.241,20.5099 117.408,19.8432 122,21.5C 122.895,18.2329 124.728,17.5662 127.5,19.5C 127.5,18.1667 127.5,16.8333 127.5,15.5C 137.804,13.0234 148.137,10.5234 158.5,8C 164.157,7.50058 169.824,7.33391 175.5,7.5 Z"/></g>
<g><path style="opacity:1" fill="#663520" d="M 126.5,79.5 C 126.631,80.3764 126.298,81.0431 125.5,81.5C 122.923,80.0569 120.59,78.3902 118.5,76.5C 120.045,75.7703 120.878,74.437 121,72.5C 121.432,76.0717 123.265,78.405 126.5,79.5 Z"/></g>
<g><path style="opacity:1" fill="#ba6524" d="M 115.5,63.5 C 118.997,64.0597 121.497,66.0597 123,69.5C 124.587,68.273 125.921,68.6063 127,70.5C 129.141,73.8132 128.974,76.8132 126.5,79.5C 123.265,78.405 121.432,76.0717 121,72.5C 120.878,74.437 120.045,75.7703 118.5,76.5C 116.608,75.2983 114.774,73.965 113,72.5C 112.601,72.7284 112.435,73.0618 112.5,73.5C 111.041,73.5674 109.708,73.2341 108.5,72.5C 108.167,71.8333 107.833,71.1667 107.5,70.5C 111.099,71.3439 114.766,71.6773 118.5,71.5C 118.5,69.8333 118.5,68.1667 118.5,66.5C 116.064,66.317 113.897,66.9837 112,68.5C 111.517,67.552 111.351,66.552 111.5,65.5C 110.5,65.5 109.5,65.5 108.5,65.5C 108.611,64.8826 108.944,64.3826 109.5,64C 111.473,63.5045 113.473,63.3379 115.5,63.5 Z"/></g>
<g><path style="opacity:1" fill="#db6608" d="M 108.5,65.5 C 109.5,65.5 110.5,65.5 111.5,65.5C 111.351,66.552 111.517,67.552 112,68.5C 113.897,66.9837 116.064,66.317 118.5,66.5C 118.5,68.1667 118.5,69.8333 118.5,71.5C 114.766,71.6773 111.099,71.3439 107.5,70.5C 107.216,68.5853 107.549,66.9187 108.5,65.5 Z"/></g>
<g><path style="opacity:1" fill="#97582d" d="M 115.5,63.5 C 113.473,63.3379 111.473,63.5045 109.5,64C 108.944,64.3826 108.611,64.8826 108.5,65.5C 107.549,66.9187 107.216,68.5853 107.5,70.5C 106.351,70.2089 105.684,69.3756 105.5,68C 106.418,65.9135 107.085,63.7468 107.5,61.5C 110.428,61.5651 113.095,62.2318 115.5,63.5 Z"/></g>
<g><path style="opacity:1" fill="#91583c" d="M 140.5,59.5 C 138.833,60.8333 137.167,62.1667 135.5,63.5C 134.203,61.3066 134.203,58.9732 135.5,56.5C 137.598,56.9572 139.264,57.9572 140.5,59.5 Z"/></g>
<g><path style="opacity:1" fill="#985b33" d="M 121.5,51.5 C 125.748,52.2802 128.415,54.7802 129.5,59C 127.557,60.345 125.724,59.845 124,57.5C 122.441,55.7834 121.608,53.7834 121.5,51.5 Z"/></g>
<g><path style="opacity:1" fill="#321f1b" d="M 86.5,36.5 C 89.7977,36.0162 92.4643,37.0162 94.5,39.5C 93.624,40.2508 92.624,40.7508 91.5,41C 93.9403,43.6236 96.607,45.957 99.5,48C 98.8333,48.3333 98.1667,48.6667 97.5,49C 104.271,49.8189 109.938,52.8189 114.5,58C 110.738,58.5515 108.072,57.0515 106.5,53.5C 103.854,54.3618 101.187,54.1951 98.5,53C 100.167,52.6667 101.833,52.3333 103.5,52C 100.466,50.8601 97.4664,50.1934 94.5,50C 93.283,48.3523 92.4497,46.519 92,44.5C 88.75,47.3526 84.9167,48.186 80.5,47C 79.7433,45.4878 78.7433,44.1545 77.5,43C 78.8721,42.5983 80.2054,42.0983 81.5,41.5C 83.0046,44.1306 83.6713,43.7973 83.5,40.5C 86.9864,40.7047 87.9864,39.3714 86.5,36.5 Z"/></g>
<g><path style="opacity:1" fill="#351f18" d="M 127.5,35.5 C 127.577,36.7498 128.244,37.5831 129.5,38C 127.595,38.8261 127.261,39.9928 128.5,41.5C 130.336,42.0276 132.003,42.6942 133.5,43.5C 131.932,44.4731 130.265,44.6397 128.5,44C 127.284,42.2602 125.618,41.2602 123.5,41C 124.696,40.3457 124.696,39.8457 123.5,39.5C 122.833,39.8333 122.167,40.1667 121.5,40.5C 120.304,40.1543 120.304,39.6543 121.5,39C 118.607,38.3691 115.774,37.5358 113,36.5C 111.715,36.9504 110.548,37.6171 109.5,38.5C 108.549,37.6744 107.549,37.5078 106.5,38C 105.671,39.8161 104.837,41.6494 104,43.5C 101.852,41.4277 102.018,39.5944 104.5,38C 103.409,35.9361 103.242,33.7695 104,31.5C 106.072,28.0848 107.239,28.0848 107.5,31.5C 108.822,31.33 109.989,31.6634 111,32.5C 114.205,30.819 117.705,29.819 121.5,29.5C 122.192,30.0253 122.692,30.6919 123,31.5C 126.309,30.3239 127.809,31.6572 127.5,35.5 Z"/></g>
<g><path style="opacity:1" fill="#543b2f" d="M 131.5,31.5 C 136.334,30.5902 140.334,31.9235 143.5,35.5C 139.777,35.9961 136.11,35.3295 132.5,33.5C 131.702,33.0431 131.369,32.3764 131.5,31.5 Z"/></g>
<g><path style="opacity:1" fill="#834d2a" d="M 145.5,31.5 C 142.933,31.2785 140.599,30.6118 138.5,29.5C 141.796,27.4263 145.463,26.093 149.5,25.5C 149.92,27.326 149.92,29.326 149.5,31.5C 148.167,31.5 146.833,31.5 145.5,31.5 Z"/></g>
<g><path style="opacity:1" fill="#2a1711" d="M 155.5,20.5 C 153.612,25.4432 155.279,27.6099 160.5,27C 157.007,25.9116 156.841,24.745 160,23.5C 161.049,25.1066 162.549,25.7733 164.5,25.5C 164.634,23.7085 164.301,22.0418 163.5,20.5C 164.496,20.4142 165.329,20.7476 166,21.5C 166.863,23.7489 166.363,25.5822 164.5,27C 165.604,28.1313 165.271,28.9646 163.5,29.5C 161.891,29.6114 160.225,29.278 158.5,28.5C 156.84,30.2484 154.84,30.7484 152.5,30C 153.471,28.7964 154.471,28.2964 155.5,28.5C 154.352,26.8513 153.019,25.3513 151.5,24C 146.669,23.222 142.003,23.722 137.5,25.5C 137.5,26.5 137.5,27.5 137.5,28.5C 136.751,27.469 136.085,26.3024 135.5,25C 139.616,22.0831 144.283,20.7498 149.5,21C 148.833,20 148.167,19 147.5,18C 149.521,17.8598 151.355,17.6932 153,17.5C 153.698,18.6906 154.531,19.6906 155.5,20.5 Z"/></g>
<g><path style="opacity:1" fill="#563928" d="M 158.5,28.5 C 158.953,29.4584 159.619,30.2917 160.5,31C 156.94,32.2367 153.273,32.7367 149.5,32.5C 149.167,32.5 148.833,32.5 148.5,32.5C 147.209,32.7373 146.209,32.404 145.5,31.5C 146.833,31.5 148.167,31.5 149.5,31.5C 149.92,29.326 149.92,27.326 149.5,25.5C 145.463,26.093 141.796,27.4263 138.5,29.5C 137.833,29.5 137.5,29.1667 137.5,28.5C 137.5,27.5 137.5,26.5 137.5,25.5C 142.003,23.722 146.669,23.222 151.5,24C 153.019,25.3513 154.352,26.8513 155.5,28.5C 154.471,28.2964 153.471,28.7964 152.5,30C 154.84,30.7484 156.84,30.2484 158.5,28.5 Z"/></g>
<g><path style="opacity:1" fill="#4a3126" d="M 163.5,20.5 C 164.301,22.0418 164.634,23.7085 164.5,25.5C 162.549,25.7733 161.049,25.1066 160,23.5C 156.841,24.745 157.007,25.9116 160.5,27C 155.279,27.6099 153.612,25.4432 155.5,20.5C 156.043,20.44 156.376,20.1067 156.5,19.5C 154.109,18.1914 154.109,17.1914 156.5,16.5C 158.605,18.1211 160.938,19.4544 163.5,20.5 Z"/></g>
<g><path style="opacity:1" fill="#230f09" d="M 140.5,59.5 C 140.682,61.5914 140.348,63.5914 139.5,65.5C 140.5,65.5 141.5,65.5 142.5,65.5C 141.91,66.7989 140.91,67.6322 139.5,68C 140.308,68.3076 140.975,68.8076 141.5,69.5C 140.355,70.891 140.355,72.2243 141.5,73.5C 142.176,72.3984 142.842,71.3984 143.5,70.5C 143.285,72.1788 143.952,73.1788 145.5,73.5C 143.35,77.2205 143.016,81.2205 144.5,85.5C 145.167,85.8333 145.833,86.1667 146.5,86.5C 147.568,83.9019 147.235,81.4019 145.5,79C 146.007,76.6587 147.174,76.1587 149,77.5C 149.21,79.0581 149.71,80.3915 150.5,81.5C 148.919,83.1417 148.253,85.1417 148.5,87.5C 146.484,88.4859 145.151,90.1526 144.5,92.5C 144.913,99.1538 141.913,102.987 135.5,104C 135.868,106.437 136.534,109.103 137.5,112C 134.734,113.467 132.234,115.3 130,117.5C 129.581,116.328 128.915,115.328 128,114.5C 127.814,117.036 127.314,119.369 126.5,121.5C 126.672,120.508 126.338,119.842 125.5,119.5C 125.798,115.399 124.132,112.733 120.5,111.5C 120.577,110.25 121.244,109.417 122.5,109C 120.099,108.195 120.266,107.362 123,106.5C 125.107,110.515 125.773,110.182 125,105.5C 123.26,104.284 122.26,102.618 122,100.5C 120.075,99.1196 118.241,97.6196 116.5,96C 118.81,95.5034 121.143,95.3367 123.5,95.5C 123.263,96.791 123.596,97.791 124.5,98.5C 125.601,99.5983 126.934,99.765 128.5,99C 130.24,97.3055 132.24,96.1389 134.5,95.5C 134.187,92.7531 134.52,90.0865 135.5,87.5C 140.75,80.5761 140.75,73.7428 135.5,67C 137.931,65.9076 137.931,64.7409 135.5,63.5C 137.167,62.1667 138.833,60.8333 140.5,59.5 Z"/></g>
<g><path style="opacity:1" fill="#c5601a" d="M 107.5,84.5 C 108.391,85.1098 109.391,85.4431 110.5,85.5C 111.517,87.4717 110.85,88.805 108.5,89.5C 104.44,90.1518 102.44,88.4851 102.5,84.5C 104.167,84.5 105.833,84.5 107.5,84.5 Z"/></g>
<g><path style="opacity:1" fill="#8f5320" d="M 107.5,84.5 C 105.833,84.5 104.167,84.5 102.5,84.5C 102.44,88.4851 104.44,90.1518 108.5,89.5C 108.5,89.8333 108.5,90.1667 108.5,90.5C 102.666,91.0967 99.9995,88.43 100.5,82.5C 103.152,82.4095 105.485,83.0762 107.5,84.5 Z"/></g>
<g><path style="opacity:1" fill="#a65b27" d="M 207.5,88.5 C 211.897,88.4246 216.23,88.9246 220.5,90C 221.636,91.1451 222.636,92.3117 223.5,93.5C 224.5,94.1667 225.5,94.8333 226.5,95.5C 225.5,95.5 224.5,95.5 223.5,95.5C 221.381,94.2615 219.381,92.7615 217.5,91C 214.183,90.5017 210.85,90.335 207.5,90.5C 207.5,89.8333 207.5,89.1667 207.5,88.5 Z"/></g>
<g><path style="opacity:1" fill="#754020" d="M 258.5,88.5 C 259.508,90.3386 261.008,91.6719 263,92.5C 263.483,93.448 263.649,94.448 263.5,95.5C 264.675,95.281 265.675,95.6143 266.5,96.5C 259.947,98.8213 253.281,99.1546 246.5,97.5C 247.363,95.1046 247.363,92.7713 246.5,90.5C 245.451,93.0795 244.784,95.7462 244.5,98.5C 238.953,97.9745 233.953,95.9745 229.5,92.5C 234.23,92.0448 238.563,90.5448 242.5,88C 247.871,87.3239 253.204,87.4905 258.5,88.5 Z"/></g>
<g><path style="opacity:1" fill="#a8521a" d="M 88.5,97.5 C 85.5641,96.5942 82.5641,95.9275 79.5,95.5C 79.5,93.8333 79.5,92.1667 79.5,90.5C 78.5,90.5 77.5,90.5 76.5,90.5C 76.7373,89.209 76.404,88.209 75.5,87.5C 78.4915,86.6289 81.4915,85.6289 84.5,84.5C 84.5,86.8333 84.5,89.1667 84.5,91.5C 88.0681,91.2407 89.4015,89.2407 88.5,85.5C 89.2039,83.6558 90.5372,83.1558 92.5,84C 96.0223,90.0964 94.689,94.5964 88.5,97.5 Z"/></g>
<g><path style="opacity:1" fill="#592e19" d="M 71.5,106.5 C 70.9032,107.139 70.0698,107.472 69,107.5C 67.1999,106.622 65.3666,105.955 63.5,105.5C 59.6771,105.74 55.6771,105.24 51.5,104C 52.8882,103.111 52.7215,102.611 51,102.5C 48.5364,103.763 47.3697,105.763 47.5,108.5C 45.8632,107.782 44.1966,107.616 42.5,108C 45.8542,109.298 48.1876,111.464 49.5,114.5C 51.9201,114.292 54.2534,114.626 56.5,115.5C 58.1328,113.056 60.4661,111.723 63.5,111.5C 66.4486,112.302 69.4486,112.636 72.5,112.5C 68.3728,114.586 64.0395,116.42 59.5,118C 60.6341,119.016 60.3008,119.683 58.5,120C 62.6389,122.114 66.6389,121.947 70.5,119.5C 73.1667,120.167 75.8333,120.833 78.5,121.5C 78.8333,121.833 79.1667,122.167 79.5,122.5C 75.1119,122.87 71.1119,124.203 67.5,126.5C 71.5093,127.498 74.5093,129.832 76.5,133.5C 78.3707,134.767 80.2041,134.767 82,133.5C 85.8224,135.575 89.6558,137.575 93.5,139.5C 99.4165,137.314 105.417,136.981 111.5,138.5C 111.5,139.167 111.5,139.833 111.5,140.5C 108.399,140.308 105.399,139.642 102.5,138.5C 100.271,139.577 97.9372,140.244 95.5,140.5C 95.5,141.5 95.5,142.5 95.5,143.5C 93.5,143.5 91.5,143.5 89.5,143.5C 89.4142,142.504 89.7476,141.671 90.5,141C 87.7513,139.877 85.2513,138.377 83,136.5C 77.6224,137.675 72.9557,136.342 69,132.5C 68.6667,132.833 68.3333,133.167 68,133.5C 66.4635,130.427 64.9635,127.427 63.5,124.5C 58.2634,123.203 52.9301,122.536 47.5,122.5C 47.5,121.5 47.5,120.5 47.5,119.5C 43.0937,118.726 38.5937,117.726 34,116.5C 31.5025,117.378 29.1692,117.711 27,117.5C 21.6744,112.487 15.1744,110.154 7.5,110.5C 7.16667,109.167 6.83333,107.833 6.5,106.5C 4.33791,104.98 2.00458,103.98 -0.5,103.5C -0.5,100.833 -0.5,98.1667 -0.5,95.5C 4.94241,94.774 9.27574,96.6073 12.5,101C 19.2031,104.034 26.2031,105.034 33.5,104C 32.3044,103.346 32.3044,102.846 33.5,102.5C 35.1315,103.297 36.6315,104.297 38,105.5C 42.1,102.602 47.2667,100.602 53.5,99.5C 61.8279,101.02 65.1612,97.6865 63.5,89.5C 66.7281,89.2994 69.8948,89.6328 73,90.5C 74.7324,90.7336 75.5658,91.7336 75.5,93.5C 73.541,97.6926 70.2076,99.6926 65.5,99.5C 65.445,103.769 67.445,106.102 71.5,106.5 Z"/></g>
<g><path style="opacity:1" fill="#673a1e" d="M 39.5,54.5 C 35.5202,55.7034 31.6869,57.37 28,59.5C 25.5398,58.7222 23.0398,58.8888 20.5,60C 18.1233,63.2363 15.1233,65.403 11.5,66.5C 11.1412,68.7659 11.8078,70.5993 13.5,72C 11.6041,73.8083 11.1041,75.975 12,78.5C 14.7405,79.2822 17.5738,79.7822 20.5,80C 18.9825,81.6851 17.3159,83.1851 15.5,84.5C 19.6268,85.4585 23.6268,86.7918 27.5,88.5C 30.3143,88.019 31.6476,86.3523 31.5,83.5C 35.854,84.2508 39.1873,82.9175 41.5,79.5C 42.8333,78.5 44.1667,77.5 45.5,76.5C 50.4484,74.8452 55.4484,73.6786 60.5,73C 61.1667,73.6667 61.8333,74.3333 62.5,75C 60.6266,77.2089 58.46,79.0422 56,80.5C 55.5172,81.448 55.3505,82.448 55.5,83.5C 53.8867,85.2696 51.8867,86.4363 49.5,87C 43.4199,87.3741 37.4199,88.2074 31.5,89.5C 31.5,91.5 31.5,93.5 31.5,95.5C 34.2165,95.3215 36.8832,94.8215 39.5,94C 44.928,90.3616 50.5946,87.1949 56.5,84.5C 57.209,83.596 58.209,83.2627 59.5,83.5C 59.3287,86.7973 59.9954,87.1306 61.5,84.5C 65.5345,85.1949 69.5345,85.5283 73.5,85.5C 77.7324,83.9086 82.0657,82.9086 86.5,82.5C 86.6427,84.2624 86.3094,85.9291 85.5,87.5C 85.8333,87.8333 86.1667,88.1667 86.5,88.5C 87.1757,87.3984 87.8423,86.3984 88.5,85.5C 89.4015,89.2407 88.0681,91.2407 84.5,91.5C 84.5,89.1667 84.5,86.8333 84.5,84.5C 81.4915,85.6289 78.4915,86.6289 75.5,87.5C 70.4929,86.1194 65.4929,86.2861 60.5,88C 58.6763,90.1515 58.343,92.6515 59.5,95.5C 57.076,95.1924 54.7427,95.5258 52.5,96.5C 54.435,97.213 54.7683,98.213 53.5,99.5C 47.2667,100.602 42.1,102.602 38,105.5C 36.6315,104.297 35.1315,103.297 33.5,102.5C 32.3044,102.846 32.3044,103.346 33.5,104C 26.2031,105.034 19.2031,104.034 12.5,101C 9.27574,96.6073 4.94241,94.774 -0.5,95.5C -0.5,84.8333 -0.5,74.1667 -0.5,63.5C 1.5,63.5 3.5,63.5 5.5,63.5C 5.66551,67.5138 5.49885,71.5138 5,75.5C 4.34569,74.3044 3.84569,74.3044 3.5,75.5C 4.76071,77.4534 5.92737,79.4534 7,81.5C 7.5,80.3333 8.33333,79.5 9.5,79C 8.80135,75.2002 8.13468,71.3669 7.5,67.5C 8.5,66.6667 9.5,65.8333 10.5,65C 10.1667,64.6667 9.83333,64.3333 9.5,64C 11.4727,63.5045 13.4727,63.3379 15.5,63.5C 15.5,61.8333 15.5,60.1667 15.5,58.5C 23.2144,55.9674 31.2144,54.634 39.5,54.5 Z"/></g>
<g><path style="opacity:1" fill="#401e0e" d="M 55.5,83.5 C 55.5,84.1667 55.8333,84.5 56.5,84.5C 50.5946,87.1949 44.928,90.3616 39.5,94C 36.8832,94.8215 34.2165,95.3215 31.5,95.5C 31.5,93.5 31.5,91.5 31.5,89.5C 37.4199,88.2074 43.4199,87.3741 49.5,87C 51.8867,86.4363 53.8867,85.2696 55.5,83.5 Z"/></g>
<g><path style="opacity:1" fill="#c9661a" d="M 207.5,88.5 C 207.5,89.1667 207.5,89.8333 207.5,90.5C 204.482,90.3354 201.482,90.502 198.5,91C 200.811,96.9179 199.477,98.4179 194.5,95.5C 194.452,94.4929 195.452,94.1596 197.5,94.5C 197.5,93.5 197.5,92.5 197.5,91.5C 189.845,91.566 182.511,92.8993 175.5,95.5C 176.29,94.2058 177.29,93.0391 178.5,92C 183.143,91.1696 187.81,90.5029 192.5,90C 193.931,89.5348 195.097,88.7014 196,87.5C 196.333,88.1667 196.667,88.8333 197,89.5C 197.804,88.1955 198.971,87.5288 200.5,87.5C 202.782,88.2234 205.116,88.5567 207.5,88.5 Z"/></g>
<g><path style="opacity:1" fill="#593019" d="M 258.5,88.5 C 261.865,88.9537 265.198,89.6203 268.5,90.5C 270.03,90.3601 271.03,89.6935 271.5,88.5C 274.755,88.0136 277.422,89.0136 279.5,91.5C 278.092,92.2432 276.759,93.0766 275.5,94C 275.833,94.3333 276.167,94.6667 276.5,95C 273.833,95.3333 271.167,95.6667 268.5,96C 269.061,97.5655 268.394,98.8989 266.5,100C 266.833,100.333 267.167,100.667 267.5,101C 266.207,101.49 264.873,101.657 263.5,101.5C 263.863,103.911 262.863,105.411 260.5,106C 257.183,106.498 253.85,106.665 250.5,106.5C 248.632,105.737 246.965,104.737 245.5,103.5C 245.918,102.778 246.584,102.278 247.5,102C 244.371,101.479 244.038,99.9793 246.5,97.5C 253.281,99.1546 259.947,98.8213 266.5,96.5C 265.675,95.6143 264.675,95.281 263.5,95.5C 263.649,94.448 263.483,93.448 263,92.5C 261.008,91.6719 259.508,90.3386 258.5,88.5 Z"/></g>
<g><path style="opacity:1" fill="#783d1d" d="M 75.5,87.5 C 76.404,88.209 76.7373,89.209 76.5,90.5C 77.5,90.5 78.5,90.5 79.5,90.5C 79.5,92.1667 79.5,93.8333 79.5,95.5C 82.5641,95.9275 85.5641,96.5942 88.5,97.5C 85.9856,98.3256 83.319,98.4922 80.5,98C 77.6059,100.965 74.6059,103.799 71.5,106.5C 67.445,106.102 65.445,103.769 65.5,99.5C 70.2076,99.6926 73.541,97.6926 75.5,93.5C 75.5658,91.7336 74.7324,90.7336 73,90.5C 69.8948,89.6328 66.7281,89.2994 63.5,89.5C 65.1612,97.6865 61.8279,101.02 53.5,99.5C 54.7683,98.213 54.435,97.213 52.5,96.5C 54.7427,95.5258 57.076,95.1924 59.5,95.5C 58.343,92.6515 58.6763,90.1515 60.5,88C 65.4929,86.2861 70.4929,86.1194 75.5,87.5 Z"/></g>
<g><path style="opacity:1" fill="#d85e08" d="M 207.5,90.5 C 210.85,90.335 214.183,90.5017 217.5,91C 219.381,92.7615 221.381,94.2615 223.5,95.5C 221.629,98.2062 219.963,101.04 218.5,104C 219.167,104.667 219.833,105.333 220.5,106C 219.603,108.311 218.27,110.144 216.5,111.5C 215.391,110.71 214.058,110.21 212.5,110C 213.665,108.132 213.332,106.298 211.5,104.5C 208.911,103.795 206.244,103.795 203.5,104.5C 201.256,103.699 199.256,102.366 197.5,100.5C 196.476,101.853 195.143,102.52 193.5,102.5C 193.703,100.61 193.037,99.1096 191.5,98C 192.571,97.1482 193.571,96.3149 194.5,95.5C 199.477,98.4179 200.811,96.9179 198.5,91C 201.482,90.502 204.482,90.3354 207.5,90.5 Z"/></g>
<g><path style="opacity:1" fill="#c04e0a" d="M 223.5,95.5 C 224.5,95.5 225.5,95.5 226.5,95.5C 226.833,95.5 227.167,95.5 227.5,95.5C 227.508,100.56 227.674,105.56 228,110.5C 225.745,111.042 223.912,112.209 222.5,114C 221.207,114.49 219.873,114.657 218.5,114.5C 218.703,116.39 218.037,117.89 216.5,119C 211.264,121.25 205.93,122.75 200.5,123.5C 198.127,127.347 195.794,127.347 193.5,123.5C 197.802,121.597 202.468,120.597 207.5,120.5C 209.688,116.863 212.688,113.863 216.5,111.5C 218.27,110.144 219.603,108.311 220.5,106C 219.833,105.333 219.167,104.667 218.5,104C 219.963,101.04 221.629,98.2062 223.5,95.5 Z"/></g>
<g><path style="opacity:1" fill="#a8440f" d="M 166.5,103.5 C 169.649,103.211 172.649,103.711 175.5,105C 173.509,105.374 171.842,106.207 170.5,107.5C 166.74,105.22 163.073,105.22 159.5,107.5C 157.473,107.338 155.473,107.505 153.5,108C 151.613,111.182 150.28,114.682 149.5,118.5C 150.434,121.102 152.101,123.102 154.5,124.5C 156.076,125.143 157.41,126.143 158.5,127.5C 156.143,127.663 153.81,127.497 151.5,127C 150.347,125.117 148.681,124.284 146.5,124.5C 144.947,116.42 147.28,109.586 153.5,104C 157.821,103.501 162.154,103.334 166.5,103.5 Z"/></g>
<g><path style="opacity:1" fill="#cb6b18" d="M 174.5,95.5 C 174.833,95.5 175.167,95.5 175.5,95.5C 174.358,97.4331 172.692,98.9331 170.5,100C 173.685,102.542 177.352,104.042 181.5,104.5C 180.833,105.833 180.167,107.167 179.5,108.5C 180.025,109.192 180.692,109.692 181.5,110C 181.167,110.333 180.833,110.667 180.5,111C 183.7,111.101 186.7,111.768 189.5,113C 184.915,114.225 180.248,114.725 175.5,114.5C 175.649,115.552 175.483,116.552 175,117.5C 174.292,116.619 173.458,115.953 172.5,115.5C 171.25,112.994 170.584,110.327 170.5,107.5C 171.842,106.207 173.509,105.374 175.5,105C 172.649,103.711 169.649,103.211 166.5,103.5C 166.833,102.833 167.167,102.167 167.5,101.5C 169.275,98.7891 171.609,96.7891 174.5,95.5 Z"/></g>
<g><path style="opacity:1" fill="#66371c" d="M 299.5,63.5 C 299.5,79.5 299.5,95.5 299.5,111.5C 288.162,111.333 276.828,111.5 265.5,112C 262.382,113.147 259.382,114.48 256.5,116C 251.015,118.919 246.015,122.585 241.5,127C 237.74,128.071 234.74,127.071 232.5,124C 229.568,123.047 226.568,122.547 223.5,122.5C 224.274,121.853 225.274,121.52 226.5,121.5C 230.766,122.651 235.1,123.317 239.5,123.5C 239.5,122.167 239.5,120.833 239.5,119.5C 244.646,119.257 248.646,116.923 251.5,112.5C 255.459,111.673 259.459,111.173 263.5,111C 259.199,109.178 254.865,107.678 250.5,106.5C 253.85,106.665 257.183,106.498 260.5,106C 262.863,105.411 263.863,103.911 263.5,101.5C 264.873,101.657 266.207,101.49 267.5,101C 267.167,100.667 266.833,100.333 266.5,100C 268.394,98.8989 269.061,97.5655 268.5,96C 271.167,95.6667 273.833,95.3333 276.5,95C 276.167,94.6667 275.833,94.3333 275.5,94C 276.759,93.0766 278.092,92.2432 279.5,91.5C 277.422,89.0136 274.755,88.0136 271.5,88.5C 267.454,86.6661 263.121,84.9994 258.5,83.5C 252.414,85.0122 246.247,86.0122 240,86.5C 238.642,84.8113 236.975,83.478 235,82.5C 234.308,81.5632 234.475,80.8966 235.5,80.5C 237.059,81.829 238.725,83.1624 240.5,84.5C 252.31,80.0172 263.81,80.6838 275,86.5C 275.677,84.311 276.844,83.9776 278.5,85.5C 280.033,83.711 281.033,81.711 281.5,79.5C 283.5,79.5 285.5,79.5 287.5,79.5C 287.5,78.1667 287.5,76.8333 287.5,75.5C 289.017,75.4894 290.184,74.8228 291,73.5C 291.498,70.1832 291.665,66.8499 291.5,63.5C 294.167,63.5 296.833,63.5 299.5,63.5 Z"/></g>
<g><path style="opacity:1" fill="#3f251b" d="M 63.5,105.5 C 63.0629,107.074 62.0629,108.241 60.5,109C 58.1526,109.436 55.8193,109.936 53.5,110.5C 49.7088,109.028 50.0422,107.861 54.5,107C 51.9047,106.4 49.5713,106.9 47.5,108.5C 47.3697,105.763 48.5364,103.763 51,102.5C 52.7215,102.611 52.8882,103.111 51.5,104C 55.6771,105.24 59.6771,105.74 63.5,105.5 Z"/></g>
<g><path style="opacity:1" fill="#c04e0d" d="M 108.5,111.5 C 107.739,110.609 106.739,109.942 105.5,109.5C 104.133,110.225 102.8,110.892 101.5,111.5C 96.9977,110.401 92.331,110.401 87.5,111.5C 85.6672,111.415 84.3339,110.748 83.5,109.5C 86.1979,109.155 88.1979,107.822 89.5,105.5C 97.2629,103.568 105.263,103.068 113.5,104C 114.337,105.011 114.67,106.178 114.5,107.5C 112.5,107.167 110.5,106.833 108.5,106.5C 108.5,108.167 108.5,109.833 108.5,111.5 Z"/></g>
<g><path style="opacity:1" fill="#723012" d="M 167.5,101.5 C 167.167,102.167 166.833,102.833 166.5,103.5C 162.154,103.334 157.821,103.501 153.5,104C 147.28,109.586 144.947,116.42 146.5,124.5C 148.681,124.284 150.347,125.117 151.5,127C 153.81,127.497 156.143,127.663 158.5,127.5C 158.833,127.5 159.167,127.5 159.5,127.5C 159.5,129.5 159.5,131.5 159.5,133.5C 156.862,132.508 154.195,131.508 151.5,130.5C 149.832,127.497 147.332,125.497 144,124.5C 143.194,118.916 143.361,113.416 144.5,108C 148.553,103.703 153.553,101.87 159.5,102.5C 159.395,97.846 160.729,97.346 163.5,101C 164.793,101.49 166.127,101.657 167.5,101.5 Z"/></g>
<g><path style="opacity:1" fill="#fdf3ca" d="M 159.5,108.5 C 163.056,108.642 166.39,109.476 169.5,111C 168.906,111.464 168.239,111.631 167.5,111.5C 164.833,111.5 162.167,111.5 159.5,111.5C 159.5,110.5 159.5,109.5 159.5,108.5 Z"/></g>
<g><path style="opacity:1" fill="#a04714" d="M 227.5,95.5 C 228.5,95.5 229.5,95.5 230.5,95.5C 230.674,97.861 231.007,100.194 231.5,102.5C 234.946,102.889 238.279,103.722 241.5,105C 243.229,106.789 243.896,108.956 243.5,111.5C 240.167,111.5 236.833,111.5 233.5,111.5C 233.52,113.143 232.853,114.476 231.5,115.5C 227.573,116.655 223.573,117.488 219.5,118C 217.733,120.39 215.4,122.057 212.5,123C 208.514,123.499 204.514,123.666 200.5,123.5C 205.93,122.75 211.264,121.25 216.5,119C 218.037,117.89 218.703,116.39 218.5,114.5C 219.873,114.657 221.207,114.49 222.5,114C 223.912,112.209 225.745,111.042 228,110.5C 227.674,105.56 227.508,100.56 227.5,95.5 Z"/></g>
<g><path style="opacity:1" fill="#eb6305" d="M 159.5,107.5 C 159.5,107.833 159.5,108.167 159.5,108.5C 159.5,109.5 159.5,110.5 159.5,111.5C 156.454,111.183 154.787,112.516 154.5,115.5C 153.449,118.344 153.449,121.344 154.5,124.5C 152.101,123.102 150.434,121.102 149.5,118.5C 150.28,114.682 151.613,111.182 153.5,108C 155.473,107.505 157.473,107.338 159.5,107.5 Z"/></g>
<g><path style="opacity:1" fill="#4c220f" d="M 174.5,95.5 C 171.609,96.7891 169.275,98.7891 167.5,101.5C 166.127,101.657 164.793,101.49 163.5,101C 160.729,97.346 159.395,97.846 159.5,102.5C 153.553,101.87 148.553,103.703 144.5,108C 143.361,113.416 143.194,118.916 144,124.5C 147.332,125.497 149.832,127.497 151.5,130.5C 154.195,131.508 156.862,132.508 159.5,133.5C 159.5,134.833 159.5,136.167 159.5,137.5C 158.482,133.87 156.649,133.537 154,136.5C 152.936,133.572 150.936,131.572 148,130.5C 147.517,129.552 147.351,128.552 147.5,127.5C 144.833,127.5 142.167,127.5 139.5,127.5C 139.803,124.412 138.47,122.746 135.5,122.5C 137.164,117.622 138.664,112.622 140,107.5C 144.508,103.293 149.675,100.46 155.5,99C 156.337,97.9887 156.67,96.8221 156.5,95.5C 159.915,95.2612 163.081,95.9278 166,97.5C 168.731,96.3834 171.565,95.7167 174.5,95.5 Z"/></g>
<g><path style="opacity:1" fill="#7e3917" d="M 230.5,95.5 C 235.606,98.184 240.606,100.851 245.5,103.5C 246.965,104.737 248.632,105.737 250.5,106.5C 254.865,107.678 259.199,109.178 263.5,111C 259.459,111.173 255.459,111.673 251.5,112.5C 248.646,116.923 244.646,119.257 239.5,119.5C 239.5,120.833 239.5,122.167 239.5,123.5C 235.1,123.317 230.766,122.651 226.5,121.5C 225.274,121.52 224.274,121.853 223.5,122.5C 220.171,122.215 217.171,122.882 214.5,124.5C 210.486,124.334 206.486,124.501 202.5,125C 201.944,125.383 201.611,125.883 201.5,126.5C 199.616,126.712 198.283,127.712 197.5,129.5C 193.939,128.206 193.606,129.04 196.5,132C 196.167,132.333 195.833,132.667 195.5,133C 192.843,133.175 190.176,133.008 187.5,132.5C 187.567,133.959 187.234,135.292 186.5,136.5C 185.402,135.399 185.235,134.066 186,132.5C 187.302,131.915 188.469,131.249 189.5,130.5C 191.048,130.179 191.715,129.179 191.5,127.5C 191.157,125.517 191.824,124.183 193.5,123.5C 195.794,127.347 198.127,127.347 200.5,123.5C 204.514,123.666 208.514,123.499 212.5,123C 215.4,122.057 217.733,120.39 219.5,118C 223.573,117.488 227.573,116.655 231.5,115.5C 232.853,114.476 233.52,113.143 233.5,111.5C 236.833,111.5 240.167,111.5 243.5,111.5C 243.896,108.956 243.229,106.789 241.5,105C 238.279,103.722 234.946,102.889 231.5,102.5C 231.007,100.194 230.674,97.861 230.5,95.5 Z"/></g>
<g><path style="opacity:1" fill="#fef6c2" d="M 159.5,113.5 C 164.262,114.092 165.596,116.592 163.5,121C 162.207,121.49 160.873,121.657 159.5,121.5C 158.833,121.5 158.167,121.5 157.5,121.5C 156.61,119.218 156.444,116.885 157,114.5C 157.671,113.748 158.504,113.414 159.5,113.5 Z"/></g>
<g><path style="opacity:1" fill="#a9460d" d="M 83.5,109.5 C 84.3339,110.748 85.6672,111.415 87.5,111.5C 92.331,110.401 96.9977,110.401 101.5,111.5C 99.5,111.5 97.5,111.5 95.5,111.5C 95.1826,114.572 95.5159,117.572 96.5,120.5C 99.6349,121.767 100.968,124.1 100.5,127.5C 98.8333,127.5 97.1667,127.5 95.5,127.5C 95.7852,125.712 95.4519,124.045 94.5,122.5C 89.6186,118.571 84.6186,114.904 79.5,111.5C 80.1834,109.824 81.5168,109.157 83.5,109.5 Z"/></g>
<g><path style="opacity:1" fill="#ec5c03" d="M 216.5,111.5 C 212.688,113.863 209.688,116.863 207.5,120.5C 202.468,120.597 197.802,121.597 193.5,123.5C 191.086,122.067 188.419,121.567 185.5,122C 186.406,123.699 186.739,125.533 186.5,127.5C 188.167,127.5 189.833,127.5 191.5,127.5C 191.715,129.179 191.048,130.179 189.5,130.5C 184.677,130.327 182.677,132.661 183.5,137.5C 176.245,138.938 168.912,139.605 161.5,139.5C 160.167,139.5 159.5,138.833 159.5,137.5C 159.5,136.167 159.5,134.833 159.5,133.5C 159.5,131.5 159.5,129.5 159.5,127.5C 165.537,127.829 171.537,127.496 177.5,126.5C 179.889,122.912 182.556,119.579 185.5,116.5C 187.409,115.652 189.409,115.318 191.5,115.5C 191.5,114.167 191.5,112.833 191.5,111.5C 194.915,111.239 194.915,110.072 191.5,108C 193.207,107.805 194.874,107.805 196.5,108C 194.875,107.147 194.542,106.147 195.5,105C 198.146,104.503 200.813,104.336 203.5,104.5C 206.244,103.795 208.911,103.795 211.5,104.5C 213.332,106.298 213.665,108.132 212.5,110C 214.058,110.21 215.391,110.71 216.5,111.5 Z"/></g>
<g><path style="opacity:1" fill="#482618" d="M -0.5,103.5 C 2.00458,103.98 4.33791,104.98 6.5,106.5C 6.83333,107.833 7.16667,109.167 7.5,110.5C 15.1744,110.154 21.6744,112.487 27,117.5C 29.1692,117.711 31.5025,117.378 34,116.5C 38.5937,117.726 43.0937,118.726 47.5,119.5C 47.5,120.5 47.5,121.5 47.5,122.5C 52.9301,122.536 58.2634,123.203 63.5,124.5C 64.9635,127.427 66.4635,130.427 68,133.5C 68.3333,133.167 68.6667,132.833 69,132.5C 72.9557,136.342 77.6224,137.675 83,136.5C 85.2513,138.377 87.7513,139.877 90.5,141C 89.7476,141.671 89.4142,142.504 89.5,143.5C 83.509,143.034 77.509,142.701 71.5,142.5C 71.5,141.5 71.5,140.5 71.5,139.5C 67.5101,139.001 63.5101,138.501 59.5,138C 60.1667,137.333 60.8333,136.667 61.5,136C 59.5273,135.505 57.5273,135.338 55.5,135.5C 55.5,134.5 55.5,133.5 55.5,132.5C 56.5,132.5 57.5,132.5 58.5,132.5C 58.5792,131.07 58.2458,129.736 57.5,128.5C 54.2317,127.513 50.8984,127.18 47.5,127.5C 42.1667,127.5 36.8333,127.5 31.5,127.5C 31.719,128.675 31.3857,129.675 30.5,130.5C 27.9665,129.212 25.4665,129.212 23,130.5C 20.6667,129.167 18.3333,127.833 16,126.5C 10.5934,127.473 5.09345,127.807 -0.5,127.5C -0.5,119.5 -0.5,111.5 -0.5,103.5 Z"/></g>
<g><path style="opacity:1" fill="#31140b" d="M 162.5,77.5 C 163.756,77.4614 164.756,77.9614 165.5,79C 171.244,79.5675 176.911,79.5675 182.5,79C 181.672,79.9147 180.672,80.5814 179.5,81C 180.624,81.2492 181.624,81.7492 182.5,82.5C 180.167,83.1667 177.833,83.8333 175.5,84.5C 176.025,85.1924 176.692,85.6924 177.5,86C 175.717,87.0665 175.217,88.5665 176,90.5C 181.116,89.8557 186.282,89.189 191.5,88.5C 194.217,86.6412 197.217,85.6412 200.5,85.5C 206.284,85.9305 211.951,86.9305 217.5,88.5C 218.086,88.2907 218.586,87.9574 219,87.5C 222.207,88.2546 223.707,90.2546 223.5,93.5C 222.636,92.3117 221.636,91.1451 220.5,90C 216.23,88.9246 211.897,88.4246 207.5,88.5C 205.116,88.5567 202.782,88.2234 200.5,87.5C 198.971,87.5288 197.804,88.1955 197,89.5C 196.667,88.8333 196.333,88.1667 196,87.5C 195.097,88.7014 193.931,89.5348 192.5,90C 187.81,90.5029 183.143,91.1696 178.5,92C 177.29,93.0391 176.29,94.2058 175.5,95.5C 175.167,95.5 174.833,95.5 174.5,95.5C 171.565,95.7167 168.731,96.3834 166,97.5C 163.081,95.9278 159.915,95.2612 156.5,95.5C 156.67,96.8221 156.337,97.9887 155.5,99C 149.675,100.46 144.508,103.293 140,107.5C 138.664,112.622 137.164,117.622 135.5,122.5C 138.47,122.746 139.803,124.412 139.5,127.5C 142.167,127.5 144.833,127.5 147.5,127.5C 147.351,128.552 147.517,129.552 148,130.5C 150.936,131.572 152.936,133.572 154,136.5C 156.649,133.537 158.482,133.87 159.5,137.5C 159.5,138.833 160.167,139.5 161.5,139.5C 166.066,140.976 170.733,141.976 175.5,142.5C 170.45,144.084 165.617,143.751 161,141.5C 159.079,143.003 156.912,143.669 154.5,143.5C 154.688,141.897 154.188,140.563 153,139.5C 150.814,138.978 148.481,138.978 146,139.5C 142.933,136.909 139.433,135.576 135.5,135.5C 134.252,129.582 130.919,126.248 125.5,125.5C 126.234,124.292 126.567,122.959 126.5,121.5C 127.314,119.369 127.814,117.036 128,114.5C 128.915,115.328 129.581,116.328 130,117.5C 132.234,115.3 134.734,113.467 137.5,112C 136.534,109.103 135.868,106.437 135.5,104C 141.913,102.987 144.913,99.1538 144.5,92.5C 145.151,90.1526 146.484,88.4859 148.5,87.5C 148.5,88.1667 148.5,88.8333 148.5,89.5C 147.225,96.1236 147.891,96.1236 150.5,89.5C 153.635,86.1919 156.635,82.6919 159.5,79C 160.527,78.4867 161.527,77.9867 162.5,77.5 Z"/></g>
<g><path style="opacity:1" fill="#b07b5c" d="M 148.5,89.5 C 149.167,89.5 149.833,89.5 150.5,89.5C 147.891,96.1236 147.225,96.1236 148.5,89.5 Z"/></g>
<g><path style="opacity:1" fill="#f1a533" d="M 159.5,111.5 C 159.5,112.167 159.5,112.833 159.5,113.5C 158.504,113.414 157.671,113.748 157,114.5C 156.444,116.885 156.61,119.218 157.5,121.5C 156.504,121.586 155.671,121.252 155,120.5C 154.506,118.866 154.34,117.199 154.5,115.5C 154.787,112.516 156.454,111.183 159.5,111.5 Z"/></g>
<g><path style="opacity:1" fill="#f07b0d" d="M 194.5,95.5 C 193.571,96.3149 192.571,97.1482 191.5,98C 193.037,99.1096 193.703,100.61 193.5,102.5C 195.143,102.52 196.476,101.853 197.5,100.5C 199.256,102.366 201.256,103.699 203.5,104.5C 200.813,104.336 198.146,104.503 195.5,105C 194.542,106.147 194.875,107.147 196.5,108C 194.874,107.805 193.207,107.805 191.5,108C 194.915,110.072 194.915,111.239 191.5,111.5C 191.5,112.833 191.5,114.167 191.5,115.5C 189.409,115.318 187.409,115.652 185.5,116.5C 182.556,119.579 179.889,122.912 177.5,126.5C 171.537,127.496 165.537,127.829 159.5,127.5C 159.167,127.5 158.833,127.5 158.5,127.5C 157.41,126.143 156.076,125.143 154.5,124.5C 153.449,121.344 153.449,118.344 154.5,115.5C 154.34,117.199 154.506,118.866 155,120.5C 155.671,121.252 156.504,121.586 157.5,121.5C 158.234,122.708 158.567,124.041 158.5,125.5C 162.616,125.459 166.616,124.793 170.5,123.5C 170.107,120.487 170.774,117.82 172.5,115.5C 173.458,115.953 174.292,116.619 175,117.5C 175.483,116.552 175.649,115.552 175.5,114.5C 180.248,114.725 184.915,114.225 189.5,113C 186.7,111.768 183.7,111.101 180.5,111C 180.833,110.667 181.167,110.333 181.5,110C 180.692,109.692 180.025,109.192 179.5,108.5C 180.167,107.167 180.833,105.833 181.5,104.5C 177.352,104.042 173.685,102.542 170.5,100C 172.692,98.9331 174.358,97.4331 175.5,95.5C 182.511,92.8993 189.845,91.566 197.5,91.5C 197.5,92.5 197.5,93.5 197.5,94.5C 195.452,94.1596 194.452,94.4929 194.5,95.5 Z"/></g>
<g><path style="opacity:1" fill="#532a17" d="M 299.5,111.5 C 299.5,113.167 299.5,114.833 299.5,116.5C 288.086,116.916 277.753,120.416 268.5,127C 263.177,127.499 257.844,127.666 252.5,127.5C 250.712,127.215 249.045,127.548 247.5,128.5C 246.315,129.853 244.981,131.02 243.5,132C 240.5,132.333 237.5,132.667 234.5,133C 232.598,134.905 230.432,136.405 228,137.5C 227.877,135.475 226.711,133.641 224.5,132C 225.308,131.692 225.975,131.192 226.5,130.5C 225.167,129.5 225.167,128.5 226.5,127.5C 222.894,125.031 218.894,124.031 214.5,124.5C 217.171,122.882 220.171,122.215 223.5,122.5C 226.568,122.547 229.568,123.047 232.5,124C 234.74,127.071 237.74,128.071 241.5,127C 246.015,122.585 251.015,118.919 256.5,116C 259.382,114.48 262.382,113.147 265.5,112C 276.828,111.5 288.162,111.333 299.5,111.5 Z"/></g>
<g><path style="opacity:1" fill="#f7d452" d="M 159.5,111.5 C 162.167,111.5 164.833,111.5 167.5,111.5C 167.082,112.222 166.416,112.722 165.5,113C 168.306,119.951 166.306,122.784 159.5,121.5C 160.873,121.657 162.207,121.49 163.5,121C 165.596,116.592 164.262,114.092 159.5,113.5C 159.5,112.833 159.5,112.167 159.5,111.5 Z"/></g>
<g><path style="opacity:1" fill="#ec5b05" d="M 108.5,111.5 C 110.367,111.955 112.2,112.622 114,113.5C 116.226,112.967 118.393,112.3 120.5,111.5C 124.132,112.733 125.798,115.399 125.5,119.5C 125.428,122.553 124.428,125.219 122.5,127.5C 120.592,128.486 119.592,130.152 119.5,132.5C 113.396,129.597 107.896,125.597 103,120.5C 102.546,118.464 101.713,116.63 100.5,115C 100.989,113.862 101.322,112.695 101.5,111.5C 102.8,110.892 104.133,110.225 105.5,109.5C 106.739,109.942 107.739,110.609 108.5,111.5 Z"/></g>
<g><path style="opacity:1" fill="#93491d" d="M 125.5,119.5 C 126.338,119.842 126.672,120.508 126.5,121.5C 126.567,122.959 126.234,124.292 125.5,125.5C 124.5,126.167 123.5,126.833 122.5,127.5C 124.428,125.219 125.428,122.553 125.5,119.5 Z"/></g>
<g><path style="opacity:1" fill="#f9ae27" d="M 170.5,107.5 C 170.584,110.327 171.25,112.994 172.5,115.5C 170.774,117.82 170.107,120.487 170.5,123.5C 166.616,124.793 162.616,125.459 158.5,125.5C 158.567,124.041 158.234,122.708 157.5,121.5C 158.167,121.5 158.833,121.5 159.5,121.5C 166.306,122.784 168.306,119.951 165.5,113C 166.416,112.722 167.082,112.222 167.5,111.5C 168.239,111.631 168.906,111.464 169.5,111C 166.39,109.476 163.056,108.642 159.5,108.5C 159.5,108.167 159.5,107.833 159.5,107.5C 163.073,105.22 166.74,105.22 170.5,107.5 Z"/></g>
<g><path style="opacity:1" fill="#923e11" d="M 79.5,111.5 C 84.6186,114.904 89.6186,118.571 94.5,122.5C 95.4519,124.045 95.7852,125.712 95.5,127.5C 93.076,127.808 90.7427,127.474 88.5,126.5C 86.3891,121.545 82.7224,118.712 77.5,118C 76.8333,117.333 76.1667,116.667 75.5,116C 77.1918,114.693 78.5251,113.193 79.5,111.5 Z"/></g>
<g><path style="opacity:1" fill="#c34b07" d="M 193.5,123.5 C 191.824,124.183 191.157,125.517 191.5,127.5C 189.833,127.5 188.167,127.5 186.5,127.5C 186.739,125.533 186.406,123.699 185.5,122C 188.419,121.567 191.086,122.067 193.5,123.5 Z"/></g>
<g><path style="opacity:1" fill="#351e16" d="M 47.5,127.5 C 47.5299,128.497 47.0299,129.164 46,129.5C 44.6994,129.04 43.366,128.706 42,128.5C 38.1657,129.617 34.6657,131.284 31.5,133.5C 32.1709,134.946 33.3376,135.612 35,135.5C 36.5505,134.946 38.0505,134.28 39.5,133.5C 40.1667,133.833 40.8333,134.167 41.5,134.5C 40.7573,135.182 40.0906,135.849 39.5,136.5C 35.7561,138.152 31.7561,138.652 27.5,138C 28.7414,136.513 28.2414,135.68 26,135.5C 21.3352,135.397 17.1685,134.064 13.5,131.5C 12.6721,132.415 11.6721,133.081 10.5,133.5C 6.88216,132.654 3.2155,132.32 -0.5,132.5C -0.5,130.833 -0.5,129.167 -0.5,127.5C 5.09345,127.807 10.5934,127.473 16,126.5C 18.3333,127.833 20.6667,129.167 23,130.5C 25.4665,129.212 27.9665,129.212 30.5,130.5C 31.3857,129.675 31.719,128.675 31.5,127.5C 36.8333,127.5 42.1667,127.5 47.5,127.5 Z"/></g>
<g><path style="opacity:1" fill="#763618" d="M 89.5,105.5 C 88.1979,107.822 86.1979,109.155 83.5,109.5C 81.5168,109.157 80.1834,109.824 79.5,111.5C 78.5251,113.193 77.1918,114.693 75.5,116C 76.1667,116.667 76.8333,117.333 77.5,118C 82.7224,118.712 86.3891,121.545 88.5,126.5C 90.7427,127.474 93.076,127.808 95.5,127.5C 95.5,130.5 95.5,133.5 95.5,136.5C 100.179,136.334 104.845,136.501 109.5,137C 110.416,137.278 111.082,137.778 111.5,138.5C 105.417,136.981 99.4165,137.314 93.5,139.5C 89.6558,137.575 85.8224,135.575 82,133.5C 80.2041,134.767 78.3707,134.767 76.5,133.5C 74.5093,129.832 71.5093,127.498 67.5,126.5C 71.1119,124.203 75.1119,122.87 79.5,122.5C 79.1667,122.167 78.8333,121.833 78.5,121.5C 75.8333,120.833 73.1667,120.167 70.5,119.5C 66.6389,121.947 62.6389,122.114 58.5,120C 60.3008,119.683 60.6341,119.016 59.5,118C 64.0395,116.42 68.3728,114.586 72.5,112.5C 77.3461,108.433 83.0127,106.1 89.5,105.5 Z"/></g>
<g><path style="opacity:1" fill="#933e11" d="M 95.5,127.5 C 97.1667,127.5 98.8333,127.5 100.5,127.5C 102.167,127.5 103.833,127.5 105.5,127.5C 105.178,129.722 105.845,131.556 107.5,133C 111.514,134.573 115.514,136.073 119.5,137.5C 119.5,135.833 119.5,134.167 119.5,132.5C 119.592,130.152 120.592,128.486 122.5,127.5C 121.507,132.777 120.84,138.11 120.5,143.5C 117.197,143.31 114.197,142.31 111.5,140.5C 111.5,139.833 111.5,139.167 111.5,138.5C 111.082,137.778 110.416,137.278 109.5,137C 104.845,136.501 100.179,136.334 95.5,136.5C 95.5,133.5 95.5,130.5 95.5,127.5 Z"/></g>
<g><path style="opacity:1" fill="#c84804" d="M 101.5,111.5 C 101.322,112.695 100.989,113.862 100.5,115C 101.713,116.63 102.546,118.464 103,120.5C 107.896,125.597 113.396,129.597 119.5,132.5C 119.5,134.167 119.5,135.833 119.5,137.5C 115.514,136.073 111.514,134.573 107.5,133C 105.845,131.556 105.178,129.722 105.5,127.5C 103.833,127.5 102.167,127.5 100.5,127.5C 100.968,124.1 99.6349,121.767 96.5,120.5C 95.5159,117.572 95.1826,114.572 95.5,111.5C 97.5,111.5 99.5,111.5 101.5,111.5 Z"/></g>
<g><path style="opacity:1" fill="#29120d" d="M 214.5,124.5 C 218.894,124.031 222.894,125.031 226.5,127.5C 225.167,128.5 225.167,129.5 226.5,130.5C 225.975,131.192 225.308,131.692 224.5,132C 226.711,133.641 227.877,135.475 228,137.5C 230.432,136.405 232.598,134.905 234.5,133C 237.5,132.667 240.5,132.333 243.5,132C 244.981,131.02 246.315,129.853 247.5,128.5C 249.045,127.548 250.712,127.215 252.5,127.5C 253.5,128.167 254.5,128.833 255.5,129.5C 253.318,130.3 251.651,131.8 250.5,134C 247.097,135.93 243.764,135.763 240.5,133.5C 240.089,134.262 239.923,135.262 240,136.5C 239.667,136.167 239.333,135.833 239,135.5C 238.311,136.357 237.478,137.023 236.5,137.5C 234.447,135.064 232.614,135.398 231,138.5C 229.991,140.025 229.491,141.692 229.5,143.5C 228.167,143.5 226.833,143.5 225.5,143.5C 225.688,145.103 225.188,146.437 224,147.5C 222.255,145.911 221.088,143.911 220.5,141.5C 219.735,142.612 218.735,143.279 217.5,143.5C 217.5,141.5 217.5,139.5 217.5,137.5C 213.76,137.382 210.427,138.382 207.5,140.5C 206.047,138.771 204.047,137.771 201.5,137.5C 198.979,135.74 198.146,133.407 199,130.5C 200.706,129.692 201.539,128.359 201.5,126.5C 201.611,125.883 201.944,125.383 202.5,125C 206.486,124.501 210.486,124.334 214.5,124.5 Z"/></g>
<g><path style="opacity:1" fill="#3e2319" d="M 299.5,116.5 C 299.5,118.833 299.5,121.167 299.5,123.5C 295.465,122.9 291.965,123.9 289,126.5C 287.452,125.316 285.952,125.483 284.5,127C 285.167,127.333 285.833,127.667 286.5,128C 281.433,133.531 275.1,136.364 267.5,136.5C 267.528,134.418 266.861,132.584 265.5,131C 262.312,129.684 258.978,129.184 255.5,129.5C 254.5,128.833 253.5,128.167 252.5,127.5C 257.844,127.666 263.177,127.499 268.5,127C 277.753,120.416 288.086,116.916 299.5,116.5 Z"/></g>
<g><path style="opacity:1" fill="#020000" d="M 39.5,136.5 C 42.4282,136.435 45.0948,135.768 47.5,134.5C 48.8451,137.502 50.1784,140.502 51.5,143.5C 56.1464,143.409 59.9797,145.076 63,148.5C 63.4974,151.146 63.6641,153.813 63.5,156.5C 67.8333,156.5 72.1667,156.5 76.5,156.5C 76.5,157.5 76.5,158.5 76.5,159.5C 74.5,159.5 72.5,159.5 70.5,159.5C 70.5,162.167 70.5,164.833 70.5,167.5C 46.8333,167.5 23.1667,167.5 -0.5,167.5C -0.5,155.833 -0.5,144.167 -0.5,132.5C 3.2155,132.32 6.88216,132.654 10.5,133.5C 11.6721,133.081 12.6721,132.415 13.5,131.5C 17.1685,134.064 21.3352,135.397 26,135.5C 28.2414,135.68 28.7414,136.513 27.5,138C 31.7561,138.652 35.7561,138.152 39.5,136.5 Z"/></g>
<g><path style="opacity:1" fill="#1f0e09" d="M 47.5,127.5 C 50.8984,127.18 54.2317,127.513 57.5,128.5C 58.2458,129.736 58.5792,131.07 58.5,132.5C 57.5,132.5 56.5,132.5 55.5,132.5C 55.5,133.5 55.5,134.5 55.5,135.5C 57.5273,135.338 59.5273,135.505 61.5,136C 60.8333,136.667 60.1667,137.333 59.5,138C 63.5101,138.501 67.5101,139.001 71.5,139.5C 71.5,140.5 71.5,141.5 71.5,142.5C 77.509,142.701 83.509,143.034 89.5,143.5C 91.5,143.5 93.5,143.5 95.5,143.5C 94.9423,144.79 93.9423,145.623 92.5,146C 88.1523,146.465 83.819,146.965 79.5,147.5C 79.5,146.167 79.5,144.833 79.5,143.5C 76.1501,143.665 72.8168,143.498 69.5,143C 68.09,142.632 67.09,141.799 66.5,140.5C 64.2573,139.526 61.924,139.192 59.5,139.5C 59.5,140.5 59.5,141.5 59.5,142.5C 57.8762,142.64 56.7096,141.973 56,140.5C 55.586,140.957 55.086,141.291 54.5,141.5C 53.5713,140.311 53.238,138.978 53.5,137.5C 52.1667,137.5 50.8333,137.5 49.5,137.5C 50.101,133.091 48.4343,131.758 44.5,133.5C 45.325,134.386 46.325,134.719 47.5,134.5C 45.0948,135.768 42.4282,136.435 39.5,136.5C 40.0906,135.849 40.7573,135.182 41.5,134.5C 40.8333,134.167 40.1667,133.833 39.5,133.5C 38.0505,134.28 36.5505,134.946 35,135.5C 33.3376,135.612 32.1709,134.946 31.5,133.5C 34.6657,131.284 38.1657,129.617 42,128.5C 43.366,128.706 44.6994,129.04 46,129.5C 47.0299,129.164 47.5299,128.497 47.5,127.5 Z"/></g>
<g><path style="opacity:1" fill="#2e1a16" d="M 299.5,123.5 C 299.5,127.167 299.5,130.833 299.5,134.5C 294.031,136.361 288.364,137.528 282.5,138C 281.328,138.419 280.328,139.085 279.5,140C 274.295,139.866 269.129,140.032 264,140.5C 260.949,139.458 258.116,137.958 255.5,136C 258.167,135.667 260.833,135.333 263.5,135C 261.206,132.525 258.539,130.692 255.5,129.5C 258.978,129.184 262.312,129.684 265.5,131C 266.861,132.584 267.528,134.418 267.5,136.5C 275.1,136.364 281.433,133.531 286.5,128C 285.833,127.667 285.167,127.333 284.5,127C 285.952,125.483 287.452,125.316 289,126.5C 291.965,123.9 295.465,122.9 299.5,123.5 Z"/></g>
<g><path style="opacity:1" fill="#0e0202" d="M 255.5,129.5 C 258.539,130.692 261.206,132.525 263.5,135C 260.833,135.333 258.167,135.667 255.5,136C 258.116,137.958 260.949,139.458 264,140.5C 269.129,140.032 274.295,139.866 279.5,140C 280.328,139.085 281.328,138.419 282.5,138C 288.364,137.528 294.031,136.361 299.5,134.5C 299.5,145.5 299.5,156.5 299.5,167.5C 297.5,167.5 295.5,167.5 293.5,167.5C 294.801,166.118 295.634,164.452 296,162.5C 296.654,163.696 297.154,163.696 297.5,162.5C 292.115,154.513 286.782,154.513 281.5,162.5C 283.521,163.855 285.188,165.521 286.5,167.5C 264.5,167.5 242.5,167.5 220.5,167.5C 219.521,165.855 218.188,164.521 216.5,163.5C 215.571,162.311 215.238,160.978 215.5,159.5C 216.833,159.5 218.167,159.5 219.5,159.5C 218.495,155.493 217.495,151.493 216.5,147.5C 216.511,145.955 216.844,144.622 217.5,143.5C 218.735,143.279 219.735,142.612 220.5,141.5C 221.088,143.911 222.255,145.911 224,147.5C 225.188,146.437 225.688,145.103 225.5,143.5C 226.833,143.5 228.167,143.5 229.5,143.5C 229.491,141.692 229.991,140.025 231,138.5C 232.614,135.398 234.447,135.064 236.5,137.5C 237.478,137.023 238.311,136.357 239,135.5C 239.333,135.833 239.667,136.167 240,136.5C 239.923,135.262 240.089,134.262 240.5,133.5C 243.764,135.763 247.097,135.93 250.5,134C 251.651,131.8 253.318,130.3 255.5,129.5 Z"/></g>
<g><path style="opacity:1" fill="#923e15" d="M 189.5,130.5 C 188.469,131.249 187.302,131.915 186,132.5C 185.235,134.066 185.402,135.399 186.5,136.5C 189.85,136.335 193.183,136.502 196.5,137C 195.833,137.667 195.167,138.333 194.5,139C 191.361,139.754 188.361,140.754 185.5,142C 182.183,142.498 178.85,142.665 175.5,142.5C 170.733,141.976 166.066,140.976 161.5,139.5C 168.912,139.605 176.245,138.938 183.5,137.5C 182.677,132.661 184.677,130.327 189.5,130.5 Z"/></g>
<g><path style="opacity:1" fill="#3b1609" d="M 201.5,126.5 C 201.539,128.359 200.706,129.692 199,130.5C 198.146,133.407 198.979,135.74 201.5,137.5C 204.047,137.771 206.047,138.771 207.5,140.5C 203.648,142.299 199.648,143.132 195.5,143C 188.654,143.821 181.987,143.654 175.5,142.5C 178.85,142.665 182.183,142.498 185.5,142C 188.361,140.754 191.361,139.754 194.5,139C 195.167,138.333 195.833,137.667 196.5,137C 193.183,136.502 189.85,136.335 186.5,136.5C 187.234,135.292 187.567,133.959 187.5,132.5C 190.176,133.008 192.843,133.175 195.5,133C 195.833,132.667 196.167,132.333 196.5,132C 193.606,129.04 193.939,128.206 197.5,129.5C 198.283,127.712 199.616,126.712 201.5,126.5 Z"/></g>
<g><path style="opacity:1" fill="#0d0100" d="M 95.5,143.5 C 95.5,142.5 95.5,141.5 95.5,140.5C 97.9372,140.244 100.271,139.577 102.5,138.5C 105.399,139.642 108.399,140.308 111.5,140.5C 111.5,141.5 111.5,142.5 111.5,143.5C 112.5,143.5 113.5,143.5 114.5,143.5C 114.5,144.5 114.5,145.5 114.5,146.5C 116.591,146.682 118.591,146.348 120.5,145.5C 122.69,147.524 125.023,149.357 127.5,151C 121.285,150.98 120.951,152.48 126.5,155.5C 127.429,156.689 127.762,158.022 127.5,159.5C 116.913,159.864 116.913,160.864 127.5,162.5C 132.792,163.495 138.125,163.828 143.5,163.5C 143.5,164.833 143.5,166.167 143.5,167.5C 119.167,167.5 94.8333,167.5 70.5,167.5C 70.5,164.833 70.5,162.167 70.5,159.5C 72.5,159.5 74.5,159.5 76.5,159.5C 76.5,158.5 76.5,157.5 76.5,156.5C 72.1667,156.5 67.8333,156.5 63.5,156.5C 63.6641,153.813 63.4974,151.146 63,148.5C 59.9797,145.076 56.1464,143.409 51.5,143.5C 50.1784,140.502 48.8451,137.502 47.5,134.5C 46.325,134.719 45.325,134.386 44.5,133.5C 48.4343,131.758 50.101,133.091 49.5,137.5C 50.8333,137.5 52.1667,137.5 53.5,137.5C 53.238,138.978 53.5713,140.311 54.5,141.5C 55.086,141.291 55.586,140.957 56,140.5C 56.7096,141.973 57.8762,142.64 59.5,142.5C 59.5,141.5 59.5,140.5 59.5,139.5C 61.924,139.192 64.2573,139.526 66.5,140.5C 67.09,141.799 68.09,142.632 69.5,143C 72.8168,143.498 76.1501,143.665 79.5,143.5C 79.5,144.833 79.5,146.167 79.5,147.5C 83.819,146.965 88.1523,146.465 92.5,146C 93.9423,145.623 94.9423,144.79 95.5,143.5 Z"/></g>
<g><path style="opacity:1" fill="#170602" d="M 125.5,125.5 C 130.919,126.248 134.252,129.582 135.5,135.5C 139.433,135.576 142.933,136.909 146,139.5C 148.481,138.978 150.814,138.978 153,139.5C 154.188,140.563 154.688,141.897 154.5,143.5C 156.912,143.669 159.079,143.003 161,141.5C 165.617,143.751 170.45,144.084 175.5,142.5C 181.987,143.654 188.654,143.821 195.5,143C 199.648,143.132 203.648,142.299 207.5,140.5C 210.427,138.382 213.76,137.382 217.5,137.5C 217.5,139.5 217.5,141.5 217.5,143.5C 216.844,144.622 216.511,145.955 216.5,147.5C 217.495,151.493 218.495,155.493 219.5,159.5C 218.167,159.5 216.833,159.5 215.5,159.5C 215.238,160.978 215.571,162.311 216.5,163.5C 218.188,164.521 219.521,165.855 220.5,167.5C 194.833,167.5 169.167,167.5 143.5,167.5C 143.5,166.167 143.5,164.833 143.5,163.5C 138.125,163.828 132.792,163.495 127.5,162.5C 116.913,160.864 116.913,159.864 127.5,159.5C 127.762,158.022 127.429,156.689 126.5,155.5C 120.951,152.48 121.285,150.98 127.5,151C 125.023,149.357 122.69,147.524 120.5,145.5C 118.591,146.348 116.591,146.682 114.5,146.5C 114.5,145.5 114.5,144.5 114.5,143.5C 113.5,143.5 112.5,143.5 111.5,143.5C 111.5,142.5 111.5,141.5 111.5,140.5C 114.197,142.31 117.197,143.31 120.5,143.5C 120.84,138.11 121.507,132.777 122.5,127.5C 123.5,126.833 124.5,126.167 125.5,125.5 Z"/></g>
<g><path style="opacity:1" fill="#625c58" d="M 293.5,167.5 C 291.167,167.5 288.833,167.5 286.5,167.5C 285.188,165.521 283.521,163.855 281.5,162.5C 286.782,154.513 292.115,154.513 297.5,162.5C 297.154,163.696 296.654,163.696 296,162.5C 295.634,164.452 294.801,166.118 293.5,167.5 Z"/></g>
<g><path style="opacity:1" fill="#29221d" d="M 288.5,162.5 C 287.342,163.95 287.842,164.95 290,165.5C 290.483,164.552 290.649,163.552 290.5,162.5C 291.675,162.281 292.675,162.614 293.5,163.5C 290.73,167.462 288.063,167.462 285.5,163.5C 286.325,162.614 287.325,162.281 288.5,162.5 Z"/></g>
<g><path style="opacity:1" fill="#c1b7ae" d="M 290.5,160.5 C 290.5,161.167 290.5,161.833 290.5,162.5C 290.649,163.552 290.483,164.552 290,165.5C 287.842,164.95 287.342,163.95 288.5,162.5C 288.5,162.167 288.5,161.833 288.5,161.5C 288.711,159.576 289.377,159.243 290.5,160.5 Z"/></g>
<g><path style="opacity:1" fill="#181512" d="M 290.5,160.5 C 289.377,159.243 288.711,159.576 288.5,161.5C 285.812,159.775 286.145,158.442 289.5,157.5C 290.5,158 291.5,158.5 292.5,159C 293.567,161.427 292.9,161.927 290.5,160.5 Z"/></g>
</svg>
