<?xml version="1.0" encoding="UTF-8"?>
<!DOCTYPE svg PUBLIC "-//W3C//DTD SVG 1.1//EN" "http://www.w3.org/Graphics/SVG/1.1/DTD/svg11.dtd">
<svg xmlns="http://www.w3.org/2000/svg" version="1.1" width="225px" height="225px" style="shape-rendering:geometricPrecision; text-rendering:geometricPrecision; image-rendering:optimizeQuality; fill-rule:evenodd; clip-rule:evenodd" xmlns:xlink="http://www.w3.org/1999/xlink">
<g><path style="opacity:1" fill="#fcfcfc" d="M -0.5,-0.5 C 74.5,-0.5 149.5,-0.5 224.5,-0.5C 224.5,74.5 224.5,149.5 224.5,224.5C 149.5,224.5 74.5,224.5 -0.5,224.5C -0.5,149.5 -0.5,74.5 -0.5,-0.5 Z"/></g>
<g><path style="opacity:1" fill="#ada929" d="M 132.5,32.5 C 133.5,32.5 134.5,32.5 135.5,32.5C 135.567,33.9587 135.234,35.2921 134.5,36.5C 132.06,37.2378 130.06,38.5712 128.5,40.5C 127.844,41.2778 127.011,41.9444 126,42.5C 125.235,42.4301 124.735,42.0967 124.5,41.5C 124.721,40.2652 125.388,39.2652 126.5,38.5C 125.833,38.1667 125.167,37.8333 124.5,37.5C 124.709,36.914 125.043,36.414 125.5,36C 124.354,35.3551 123.354,34.5217 122.5,33.5C 122.167,33.8333 121.833,34.1667 121.5,34.5C 123.447,36.2756 123.78,38.2756 122.5,40.5C 121.614,39.675 121.281,38.675 121.5,37.5C 120.022,37.762 118.689,37.4287 117.5,36.5C 118.811,35.7425 119.311,34.7425 119,33.5C 117.266,34.2489 115.433,34.7489 113.5,35C 114.448,35.4828 115.448,35.6495 116.5,35.5C 116.263,36.791 116.596,37.791 117.5,38.5C 115.012,40.3878 112.012,41.0545 108.5,40.5C 108.141,38.2341 108.808,36.4007 110.5,35C 108.567,34.7489 106.734,34.2489 105,33.5C 104.309,35.8912 103.309,35.8912 102,33.5C 100.913,35.9316 100.413,35.5983 100.5,32.5C 102.665,32.8841 104.332,32.2174 105.5,30.5C 102.905,31.024 100.239,31.024 97.5,30.5C 97.3802,27.7952 98.3802,27.1285 100.5,28.5C 101.216,27.689 102.05,27.0223 103,26.5C 104.69,27.1495 106.523,27.1495 108.5,26.5C 108.579,27.9305 108.246,29.2638 107.5,30.5C 110.833,31.8333 114.167,31.8333 117.5,30.5C 116.355,29.109 116.355,27.7757 117.5,26.5C 120.793,28.181 124.126,28.5143 127.5,27.5C 127.773,29.451 127.107,30.951 125.5,32C 127.895,33.5978 130.228,33.7645 132.5,32.5 Z"/></g>
<g><path style="opacity:1" fill="#c9c42a" d="M 137.5,42.5 C 135.518,41.5088 133.518,40.5088 131.5,39.5C 132.993,38.8589 133.993,37.8589 134.5,36.5C 135.234,35.2921 135.567,33.9587 135.5,32.5C 134.5,32.5 133.5,32.5 132.5,32.5C 132.633,29.1043 133.633,28.7709 135.5,31.5C 137.585,30.3531 139.085,31.0197 140,33.5C 140.893,32.2888 141.726,32.2888 142.5,33.5C 140.046,36.0758 138.379,39.0758 137.5,42.5 Z"/></g>
<g><path style="opacity:1" fill="#b4b02a" d="M 92.5,32.5 C 91.2267,33.0768 91.2267,33.7435 92.5,34.5C 93.7946,35.0983 95.1279,35.5983 96.5,36C 95.8333,36.3333 95.1667,36.6667 94.5,37C 97.4752,37.0435 100.475,36.8769 103.5,36.5C 103.721,40.7954 102.388,41.4621 99.5,38.5C 96.9551,38.0501 94.4551,38.7168 92,40.5C 90.6315,39.2974 89.1315,38.2974 87.5,37.5C 86.8182,38.2427 86.1515,38.9094 85.5,39.5C 85.6495,38.448 85.4828,37.448 85,36.5C 83.5134,35.8448 82.3467,34.8448 81.5,33.5C 82.3914,32.4104 83.3914,32.4104 84.5,33.5C 85.3449,31.2381 86.6783,30.5714 88.5,31.5C 89.5237,30.1468 90.857,29.4802 92.5,29.5C 92.5,30.5 92.5,31.5 92.5,32.5 Z"/></g>
<g><path style="opacity:1" fill="#6c6636" d="M 64.5,37.5 C 66.3792,38.3414 68.3792,38.6747 70.5,38.5C 68.8103,39.1031 67.3103,40.1031 66,41.5C 64.8118,40.4366 64.3118,39.1033 64.5,37.5 Z"/></g>
<g><path style="opacity:1" fill="#897730" d="M 154.5,38.5 C 156.5,38.5 158.5,38.5 160.5,38.5C 159.25,41.006 158.584,43.6726 158.5,46.5C 156.131,46.1489 153.797,45.9822 151.5,46C 151.833,46.3333 152.167,46.6667 152.5,47C 151.552,47.4828 150.552,47.6495 149.5,47.5C 150.11,46.609 150.443,45.609 150.5,44.5C 151.5,44.5 152.5,44.5 153.5,44.5C 153.714,42.8561 153.38,41.3561 152.5,40C 153.416,39.7216 154.082,39.2216 154.5,38.5 Z"/></g>
<g><path style="opacity:1" fill="#ddda2b" d="M 87.5,44.5 C 87.1667,43.1667 86.8333,41.8333 86.5,40.5C 87.4959,40.5858 88.3292,40.2524 89,39.5C 89.1667,40.3333 89.3333,41.1667 89.5,42C 89.3158,43.3756 88.6491,44.2089 87.5,44.5 Z"/></g>
<g><path style="opacity:1" fill="#6a652a" d="M 108.5,40.5 C 107.849,39.9094 107.182,39.2427 106.5,38.5C 104.58,41.898 102.247,42.2313 99.5,39.5C 99.0024,40.6034 98.6691,41.6034 98.5,42.5C 97.7836,41.689 96.9503,41.0223 96,40.5C 94.5603,41.1476 93.0603,41.4809 91.5,41.5C 91.5479,44.2919 90.2146,46.1253 87.5,47C 88.0944,47.4643 88.7611,47.631 89.5,47.5C 89.5,48.1667 89.5,48.8333 89.5,49.5C 86.6771,48.6149 86.0105,46.9483 87.5,44.5C 88.6491,44.2089 89.3158,43.3756 89.5,42C 89.3333,41.1667 89.1667,40.3333 89,39.5C 88.3292,40.2524 87.4959,40.5858 86.5,40.5C 85.8333,40.5 85.5,40.1667 85.5,39.5C 86.1515,38.9094 86.8182,38.2427 87.5,37.5C 89.1315,38.2974 90.6315,39.2974 92,40.5C 94.4551,38.7168 96.9551,38.0501 99.5,38.5C 102.388,41.4621 103.721,40.7954 103.5,36.5C 100.475,36.8769 97.4752,37.0435 94.5,37C 95.1667,36.6667 95.8333,36.3333 96.5,36C 95.1279,35.5983 93.7946,35.0983 92.5,34.5C 91.2267,33.7435 91.2267,33.0768 92.5,32.5C 92.56,33.0431 92.8933,33.3764 93.5,33.5C 95.444,32.8108 97.444,32.3108 99.5,32C 98.5842,31.7216 97.9175,31.2216 97.5,30.5C 100.239,31.024 102.905,31.024 105.5,30.5C 104.332,32.2174 102.665,32.8841 100.5,32.5C 100.413,35.5983 100.913,35.9316 102,33.5C 103.309,35.8912 104.309,35.8912 105,33.5C 106.734,34.2489 108.567,34.7489 110.5,35C 108.808,36.4007 108.141,38.2341 108.5,40.5 Z"/></g>
<g><path style="opacity:1" fill="#494424" d="M 124.5,41.5 C 123.127,41.6567 121.793,41.49 120.5,41C 119.922,39.583 118.922,38.7496 117.5,38.5C 116.596,37.791 116.263,36.791 116.5,35.5C 115.448,35.6495 114.448,35.4828 113.5,35C 115.433,34.7489 117.266,34.2489 119,33.5C 119.311,34.7425 118.811,35.7425 117.5,36.5C 118.689,37.4287 120.022,37.762 121.5,37.5C 121.281,38.675 121.614,39.675 122.5,40.5C 123.78,38.2756 123.447,36.2756 121.5,34.5C 121.833,34.1667 122.167,33.8333 122.5,33.5C 123.354,34.5217 124.354,35.3551 125.5,36C 125.043,36.414 124.709,36.914 124.5,37.5C 125.167,37.8333 125.833,38.1667 126.5,38.5C 125.388,39.2652 124.721,40.2652 124.5,41.5 Z"/></g>
<g><path style="opacity:1" fill="#575227" d="M 134.5,36.5 C 133.993,37.8589 132.993,38.8589 131.5,39.5C 133.518,40.5088 135.518,41.5088 137.5,42.5C 137.672,43.4916 137.338,44.1583 136.5,44.5C 135.534,41.8753 134.534,41.8753 133.5,44.5C 132.833,43.5 132.167,42.5 131.5,41.5C 130.808,42.0253 130.308,42.6919 130,43.5C 129.768,42.2625 129.268,41.2625 128.5,40.5C 130.06,38.5712 132.06,37.2378 134.5,36.5 Z"/></g>
<g><path style="opacity:1" fill="#d8d329" d="M 162.5,39.5 C 161.896,42.2177 160.563,44.551 158.5,46.5C 158.584,43.6726 159.25,41.006 160.5,38.5C 161.623,37.2426 162.289,37.5759 162.5,39.5 Z"/></g>
<g><path style="opacity:1" fill="#a28b2d" d="M 154.5,38.5 C 154.082,39.2216 153.416,39.7216 152.5,40C 153.38,41.3561 153.714,42.8561 153.5,44.5C 152.5,44.5 151.5,44.5 150.5,44.5C 149.599,40.7593 150.932,38.7593 154.5,38.5 Z"/></g>
<g><path style="opacity:1" fill="#907e2e" d="M 64.5,37.5 C 64.3118,39.1033 64.8118,40.4366 66,41.5C 67.3103,40.1031 68.8103,39.1031 70.5,38.5C 71.8221,38.33 72.9887,38.6634 74,39.5C 74.4955,41.4727 74.6621,43.4727 74.5,45.5C 69.6032,45.7973 65.2699,47.464 61.5,50.5C 63.9955,52.905 63.8288,55.2383 61,57.5C 60.5026,60.146 60.3359,62.8127 60.5,65.5C 59.2528,60.9839 59.2528,56.3172 60.5,51.5C 58.9907,49.8196 57.6573,47.9862 56.5,46C 58.6933,42.6424 61.36,39.8091 64.5,37.5 Z"/></g>
<g><path style="opacity:1" fill="#a39f29" d="M 92.5,56.5 C 91.2638,54.351 90.2638,52.0177 89.5,49.5C 89.5,48.8333 89.5,48.1667 89.5,47.5C 95.2187,43.7865 101.552,42.2865 108.5,43C 107.833,43.3333 107.167,43.6667 106.5,44C 107.623,45.0437 108.956,45.7104 110.5,46C 108.19,46.4966 105.857,46.6633 103.5,46.5C 103.5,47.5 103.5,48.5 103.5,49.5C 102.448,49.3505 101.448,49.5172 100.5,50C 102.5,50.3333 104.5,50.6667 106.5,51C 105.027,51.7096 104.36,52.8762 104.5,54.5C 101.402,54.5875 101.068,54.0875 103.5,53C 101.741,52.2025 100.074,52.3691 98.5,53.5C 99.5063,54.3957 99.5063,55.0623 98.5,55.5C 95.9811,52.8975 93.9811,53.2308 92.5,56.5 Z"/></g>
<g><path style="opacity:1" fill="#989231" d="M 74.5,46.5 C 79.4951,46.1248 81.4951,48.4582 80.5,53.5C 80.2062,55.2755 80.0395,57.2755 80,59.5C 79.0266,57.6079 78.3599,55.6079 78,53.5C 77.1887,54.9597 76.3554,55.293 75.5,54.5C 76.09,53.2011 77.09,52.3678 78.5,52C 75.4615,51.6466 72.7948,50.4799 70.5,48.5C 70.0024,49.6034 69.6691,50.6034 69.5,51.5C 68.4593,49.0087 67.6259,49.0087 67,51.5C 66.2496,50.8742 65.4162,50.3742 64.5,50C 67.6051,48.1319 70.9385,46.9652 74.5,46.5 Z"/></g>
<g><path style="opacity:1" fill="#868137" d="M 149.5,47.5 C 149.047,48.4584 148.381,49.2917 147.5,50C 147.833,50.1667 148.167,50.3333 148.5,50.5C 150.078,49.3595 151.744,48.8595 153.5,49C 151.51,50.7506 149.177,51.7506 146.5,52C 148.923,52.7319 150.09,54.2319 150,56.5C 147.277,52.2443 146.11,52.5776 146.5,57.5C 145.778,57.9175 145.278,58.5842 145,59.5C 145.284,57.3208 145.117,55.3208 144.5,53.5C 144.338,51.4727 144.505,49.4727 145,47.5C 146.49,46.2721 147.99,46.2721 149.5,47.5 Z"/></g>
<g><path style="opacity:1" fill="#83772e" d="M 162.5,39.5 C 164.151,40.9701 165.985,42.3034 168,43.5C 168.167,44.3333 168.333,45.1667 168.5,46C 167.692,48.0749 166.358,49.7416 164.5,51C 165.782,56.3093 165.782,61.476 164.5,66.5C 165.161,61.7155 164.161,57.3822 161.5,53.5C 161.709,52.914 162.043,52.414 162.5,52C 161.167,51.3333 159.833,50.6667 158.5,50C 159.5,49.6667 160.5,49.3333 161.5,49C 160.429,48.1482 159.429,47.3149 158.5,46.5C 160.563,44.551 161.896,42.2177 162.5,39.5 Z"/></g>
<g><path style="opacity:1" fill="#cbc82b" d="M 108.5,40.5 C 112.012,41.0545 115.012,40.3878 117.5,38.5C 118.922,38.7496 119.922,39.583 120.5,41C 121.793,41.49 123.127,41.6567 124.5,41.5C 124.735,42.0967 125.235,42.4301 126,42.5C 127.011,41.9444 127.844,41.2778 128.5,40.5C 129.268,41.2625 129.768,42.2625 130,43.5C 130.308,42.6919 130.808,42.0253 131.5,41.5C 132.167,42.5 132.833,43.5 133.5,44.5C 134.534,41.8753 135.534,41.8753 136.5,44.5C 136.539,45.5832 136.873,46.5832 137.5,47.5C 136.758,48.2868 135.925,48.9535 135,49.5C 133.558,53.6086 132.058,57.6086 130.5,61.5C 129.292,60.7659 127.959,60.4326 126.5,60.5C 124.884,59.0108 122.884,58.0108 120.5,57.5C 121.376,56.7492 122.376,56.2492 123.5,56C 119.853,55.2255 116.186,54.5588 112.5,54C 114.5,53.6667 116.5,53.3333 118.5,53C 114.167,52.3333 109.833,52.3333 105.5,53C 106.126,53.7504 106.626,54.5838 107,55.5C 109.894,53.0068 112.061,53.6734 113.5,57.5C 110.482,57.6646 107.482,57.498 104.5,57C 105.706,55.9823 105.373,55.4823 103.5,55.5C 102.833,55.6667 102.167,55.8333 101.5,56C 102.308,56.3076 102.975,56.8076 103.5,57.5C 100.652,58.659 97.9851,59.9924 95.5,61.5C 94.8333,61.5 94.1667,61.5 93.5,61.5C 92.962,59.8828 92.6287,58.2161 92.5,56.5C 93.9811,53.2308 95.9811,52.8975 98.5,55.5C 99.5063,55.0623 99.5063,54.3957 98.5,53.5C 100.074,52.3691 101.741,52.2025 103.5,53C 101.068,54.0875 101.402,54.5875 104.5,54.5C 104.36,52.8762 105.027,51.7096 106.5,51C 104.5,50.6667 102.5,50.3333 100.5,50C 101.448,49.5172 102.448,49.3505 103.5,49.5C 103.5,48.5 103.5,47.5 103.5,46.5C 105.857,46.6633 108.19,46.4966 110.5,46C 108.956,45.7104 107.623,45.0437 106.5,44C 107.167,43.6667 107.833,43.3333 108.5,43C 101.552,42.2865 95.2187,43.7865 89.5,47.5C 88.7611,47.631 88.0944,47.4643 87.5,47C 90.2146,46.1253 91.5479,44.2919 91.5,41.5C 93.0603,41.4809 94.5603,41.1476 96,40.5C 96.9503,41.0223 97.7836,41.689 98.5,42.5C 98.6691,41.6034 99.0024,40.6034 99.5,39.5C 102.247,42.2313 104.58,41.898 106.5,38.5C 107.182,39.2427 107.849,39.9094 108.5,40.5 Z"/></g>
<g><path style="opacity:1" fill="#787428" d="M 126.5,60.5 C 122.96,60.2474 119.627,59.5808 116.5,58.5C 115.791,57.596 114.791,57.2627 113.5,57.5C 112.061,53.6734 109.894,53.0068 107,55.5C 106.626,54.5838 106.126,53.7504 105.5,53C 109.833,52.3333 114.167,52.3333 118.5,53C 116.5,53.3333 114.5,53.6667 112.5,54C 116.186,54.5588 119.853,55.2255 123.5,56C 122.376,56.2492 121.376,56.7492 120.5,57.5C 122.884,58.0108 124.884,59.0108 126.5,60.5 Z"/></g>
<g><path style="opacity:1" fill="#666224" d="M 115.5,43.5 C 117.628,42.3709 119.961,42.2042 122.5,43C 120.519,43.6054 120.185,44.6054 121.5,46C 119.5,46.3333 117.5,46.6667 115.5,47C 116.833,47.3333 118.167,47.6667 119.5,48C 119.043,48.414 118.709,48.914 118.5,49.5C 119.729,50.2811 121.062,50.7811 122.5,51C 121.874,51.7504 121.374,52.5838 121,53.5C 120.29,52.0267 119.124,51.3601 117.5,51.5C 117.5,50.5 117.5,49.5 117.5,48.5C 113.486,48.6655 109.486,48.4988 105.5,48C 109.769,48.0379 113.602,46.8712 117,44.5C 118.84,45.8331 119.34,45.6665 118.5,44C 117.552,43.5172 116.552,43.3505 115.5,43.5 Z"/></g>
<g><path style="opacity:1" fill="#5d5923" d="M 121.5,49.5 C 122.209,48.596 123.209,48.2627 124.5,48.5C 124.36,50.1238 125.027,51.2904 126.5,52C 125.552,52.4828 124.552,52.6495 123.5,52.5C 123.715,50.8212 123.048,49.8212 121.5,49.5 Z"/></g>
<g><path style="opacity:1" fill="#ece91f" d="M 116.5,58.5 C 119.627,59.5808 122.96,60.2474 126.5,60.5C 127.514,61.6737 128.847,62.3404 130.5,62.5C 130.833,63.1667 131.167,63.8333 131.5,64.5C 124.889,62.2112 118.055,60.8779 111,60.5C 105.367,60.5991 100.034,61.9325 95,64.5C 94.5,64.3333 94,64.1667 93.5,64C 94.3805,63.2917 95.0472,62.4584 95.5,61.5C 102.346,59.5261 109.346,58.5261 116.5,58.5 Z"/></g>
<g><path style="opacity:1" fill="#e3df2b" d="M 86.5,60.5 C 88.6208,60.3253 90.6208,60.6586 92.5,61.5C 91.8953,63.0257 90.7286,64.0257 89,64.5C 88.6667,63.8333 88.3333,63.1667 88,62.5C 87.1841,63.8228 86.0174,64.4894 84.5,64.5C 84.7329,62.9382 85.3995,61.6049 86.5,60.5 Z"/></g>
<g><path style="opacity:1" fill="#4c4627" d="M 113.5,57.5 C 114.791,57.2627 115.791,57.596 116.5,58.5C 109.346,58.5261 102.346,59.5261 95.5,61.5C 97.9851,59.9924 100.652,58.659 103.5,57.5C 102.975,56.8076 102.308,56.3076 101.5,56C 102.167,55.8333 102.833,55.6667 103.5,55.5C 105.373,55.4823 105.706,55.9823 104.5,57C 107.482,57.498 110.482,57.6646 113.5,57.5 Z"/></g>
<g><path style="opacity:1" fill="#e2de28" d="M 140.5,61.5 C 140.344,65.1351 139.178,65.4685 137,62.5C 136.722,63.4158 136.222,64.0825 135.5,64.5C 135.671,61.2027 135.005,60.8694 133.5,63.5C 132.893,63.3764 132.56,63.0431 132.5,62.5C 134.799,60.2313 137.466,59.898 140.5,61.5 Z"/></g>
<g><path style="opacity:1" fill="#231f22" d="M 126.5,60.5 C 127.959,60.4326 129.292,60.7659 130.5,61.5C 130.5,61.8333 130.5,62.1667 130.5,62.5C 128.847,62.3404 127.514,61.6737 126.5,60.5 Z"/></g>
<g><path style="opacity:1" fill="#241e17" d="M 131.5,64.5 C 132.833,64.5 134.167,64.5 135.5,64.5C 136.222,64.0825 136.722,63.4158 137,62.5C 139.178,65.4685 140.344,65.1351 140.5,61.5C 141.167,61.5 141.833,61.5 142.5,61.5C 141.731,64.4352 141.064,67.4352 140.5,70.5C 140.361,73.3654 140.695,76.3654 141.5,79.5C 140.167,82.8333 140.167,86.1667 141.5,89.5C 141.068,90.7095 140.401,91.7095 139.5,92.5C 139.5,90.8333 139.5,89.1667 139.5,87.5C 139.5,80.1667 139.5,72.8333 139.5,65.5C 121.5,65.5 103.5,65.5 85.5,65.5C 85.8016,68.0593 85.4682,70.3926 84.5,72.5C 84.5,71.5 84.5,70.5 84.5,69.5C 84.5,67.8333 84.5,66.1667 84.5,64.5C 86.0174,64.4894 87.1841,63.8228 88,62.5C 88.3333,63.1667 88.6667,63.8333 89,64.5C 90.7286,64.0257 91.8953,63.0257 92.5,61.5C 92.8333,61.5 93.1667,61.5 93.5,61.5C 94.1667,61.5 94.8333,61.5 95.5,61.5C 95.0472,62.4584 94.3805,63.2917 93.5,64C 94,64.1667 94.5,64.3333 95,64.5C 100.034,61.9325 105.367,60.5991 111,60.5C 118.055,60.8779 124.889,62.2112 131.5,64.5 Z"/></g>
<g><path style="opacity:1" fill="#696523" d="M 135.5,64.5 C 134.167,64.5 132.833,64.5 131.5,64.5C 131.167,63.8333 130.833,63.1667 130.5,62.5C 131.167,62.5 131.833,62.5 132.5,62.5C 132.56,63.0431 132.893,63.3764 133.5,63.5C 135.005,60.8694 135.671,61.2027 135.5,64.5 Z"/></g>
<g><path style="opacity:1" fill="#23346f" d="M 139.5,87.5 C 138.833,87.5 138.167,87.5 137.5,87.5C 137.5,87.1667 137.5,86.8333 137.5,86.5C 138.491,80.021 138.824,73.3543 138.5,66.5C 129.983,66.1739 121.65,66.5073 113.5,67.5C 112.833,67.5 112.167,67.5 111.5,67.5C 103.35,66.5073 95.0168,66.1739 86.5,66.5C 86.5,73.5 86.5,80.5 86.5,87.5C 85.8333,83.1667 85.1667,78.8333 84.5,74.5C 84.5,73.8333 84.5,73.1667 84.5,72.5C 85.4682,70.3926 85.8016,68.0593 85.5,65.5C 103.5,65.5 121.5,65.5 139.5,65.5C 139.5,72.8333 139.5,80.1667 139.5,87.5 Z"/></g>
<g><path style="opacity:1" fill="#484341" d="M 181.5,65.5 C 184.292,66.3918 185.625,68.3918 185.5,71.5C 184.18,69.5368 182.846,67.5368 181.5,65.5 Z"/></g>
<g><path style="opacity:1" fill="#29429b" d="M 111.5,67.5 C 112.167,71.5 112.833,71.5 113.5,67.5C 121.65,66.5073 129.983,66.1739 138.5,66.5C 138.824,73.3543 138.491,80.021 137.5,86.5C 127.172,71.7983 113.839,68.2983 97.5,76C 92.8726,78.7883 89.5393,82.6217 87.5,87.5C 87.1667,87.5 86.8333,87.5 86.5,87.5C 86.5,80.5 86.5,73.5 86.5,66.5C 95.0168,66.1739 103.35,66.5073 111.5,67.5 Z"/></g>
<g><path style="opacity:1" fill="#77722c" d="M 82.5,58.5 C 83.2679,59.2625 83.7679,60.2625 84,61.5C 84.6708,60.7476 85.5041,60.4142 86.5,60.5C 85.3995,61.6049 84.7329,62.9382 84.5,64.5C 84.5,66.1667 84.5,67.8333 84.5,69.5C 83.5,70.8333 82.5,70.8333 81.5,69.5C 81.8283,67.6086 82.495,66.1086 83.5,65C 83.4056,62.0459 82.9056,61.8792 82,64.5C 81.5,63.5 81,62.5 80.5,61.5C 81.6119,60.7348 82.2786,59.7348 82.5,58.5 Z"/></g>
<g><path style="opacity:1" fill="#e4e23f" d="M 111.5,67.5 C 112.167,67.5 112.833,67.5 113.5,67.5C 112.833,71.5 112.167,71.5 111.5,67.5 Z"/></g>
<g><path style="opacity:1" fill="#d0ca28" d="M 51.5,64.5 C 46.3589,63.8127 44.1922,65.8127 45,70.5C 43.6766,73.0586 41.8433,73.7253 39.5,72.5C 40.8134,67.7864 43.6467,64.4531 48,62.5C 49.6991,62.3866 50.8658,63.0532 51.5,64.5 Z"/></g>
<g><path style="opacity:1" fill="#ada826" d="M 181.5,65.5 C 182.846,67.5368 184.18,69.5368 185.5,71.5C 188.297,72.8082 188.131,73.4749 185,73.5C 180.707,72.7161 178.707,70.0494 179,65.5C 174.863,63.5063 173.03,64.8396 173.5,69.5C 173.667,70.8333 173.833,72.1667 174,73.5C 177.03,77.6947 180.53,81.3613 184.5,84.5C 186.181,87.582 186.848,90.9153 186.5,94.5C 185.833,94.8333 185.167,95.1667 184.5,95.5C 183.127,95.6567 181.793,95.49 180.5,95C 181.737,94.7679 182.737,94.2679 183.5,93.5C 184.629,91.3718 184.796,89.0385 184,86.5C 181,83.5 178,80.5 175,77.5C 172.954,74.8655 171.787,71.8655 171.5,68.5C 172.338,63.0015 175.338,61.3349 180.5,63.5C 180.863,64.1835 181.196,64.8501 181.5,65.5 Z"/></g>
<g><path style="opacity:1" fill="#cac32c" d="M 81.5,69.5 C 82.5,70.8333 83.5,70.8333 84.5,69.5C 84.5,70.5 84.5,71.5 84.5,72.5C 84.5,73.1667 84.5,73.8333 84.5,74.5C 83.6281,77.4215 83.6281,80.4215 84.5,83.5C 82.8958,84.287 82.2291,85.6203 82.5,87.5C 79.9805,84.5526 76.9805,82.0526 73.5,80C 72.0039,79.4926 70.8373,79.9926 70,81.5C 68.1554,80.9505 66.6554,79.9505 65.5,78.5C 66.2624,78.0894 67.2624,77.9227 68.5,78C 67.5494,77.2825 67.3828,76.4491 68,75.5C 68.9147,76.3279 69.5814,77.3279 70,78.5C 70.3333,77.8333 70.6667,77.1667 71,76.5C 77.6524,81.716 78.1524,80.8827 72.5,74C 73.9743,74.9726 75.4743,75.4726 77,75.5C 76.8053,70.3864 77.472,70.3864 79,75.5C 79.0023,72.9488 79.8356,70.9488 81.5,69.5 Z"/></g>
<g><path style="opacity:1" fill="#ccc52c" d="M 144.5,53.5 C 145.117,55.3208 145.284,57.3208 145,59.5C 145.278,58.5842 145.778,57.9175 146.5,57.5C 146.343,58.8734 146.51,60.2068 147,61.5C 147.333,61.1667 147.667,60.8333 148,60.5C 149.419,61.4601 150.919,62.2935 152.5,63C 150.368,63.9204 148.368,65.0871 146.5,66.5C 149.505,67.1077 152.505,66.7744 155.5,65.5C 156.167,65.5 156.833,65.5 157.5,65.5C 158.222,65.9175 158.722,66.5842 159,67.5C 159.333,66.5 159.667,65.5 160,64.5C 160.494,66.1341 160.66,67.8008 160.5,69.5C 159.5,69.5 158.5,69.5 157.5,69.5C 157.703,71.3904 157.037,72.8904 155.5,74C 156.357,74.6891 157.023,75.5224 157.5,76.5C 157.277,77.9667 156.944,79.4667 156.5,81C 156.167,81.1667 155.833,81.3333 155.5,81.5C 154.749,80.624 154.249,79.624 154,78.5C 151.574,80.7853 148.907,82.7853 146,84.5C 146.979,82.7215 146.646,81.0548 145,79.5C 144.623,80.9423 143.79,81.9423 142.5,82.5C 141.596,81.791 141.263,80.791 141.5,79.5C 140.695,76.3654 140.361,73.3654 140.5,70.5C 141.064,67.4352 141.731,64.4352 142.5,61.5C 142.283,58.5794 142.949,55.9128 144.5,53.5 Z"/></g>
<g><path style="opacity:1" fill="#6e6734" d="M 60.5,66.5 C 61.3213,69.6414 61.8213,72.9748 62,76.5C 62.6988,71.7193 63.1988,71.5526 63.5,76C 63.3333,77.1667 63.1667,78.3333 63,79.5C 62.6667,79.1667 62.3333,78.8333 62,78.5C 61.2917,79.3805 60.4584,80.0472 59.5,80.5C 60.3833,75.8969 60.7166,71.2303 60.5,66.5 Z"/></g>
<g><path style="opacity:1" fill="#c2be2e" d="M 51.5,64.5 C 52.1174,64.6107 52.6174,64.944 53,65.5C 53.8214,68.5541 53.6548,71.5541 52.5,74.5C 48.8397,78.4942 45.173,82.4942 41.5,86.5C 38.5895,90.5381 39.5895,93.3714 44.5,95C 39.178,95.4933 37.178,92.9933 38.5,87.5C 42.8012,83.0277 46.9679,78.3611 51,73.5C 51.498,70.5184 51.6646,67.5184 51.5,64.5 Z"/></g>
<g><path style="opacity:1" fill="#ebe12b" d="M 74.5,45.5 C 74.5,45.8333 74.5,46.1667 74.5,46.5C 70.9385,46.9652 67.6051,48.1319 64.5,50C 65.4162,50.3742 66.2496,50.8742 67,51.5C 67.6259,49.0087 68.4593,49.0087 69.5,51.5C 69.6691,50.6034 70.0024,49.6034 70.5,48.5C 72.7948,50.4799 75.4615,51.6466 78.5,52C 77.09,52.3678 76.09,53.2011 75.5,54.5C 76.3554,55.293 77.1887,54.9597 78,53.5C 78.3599,55.6079 79.0266,57.6079 80,59.5C 80.0395,57.2755 80.2062,55.2755 80.5,53.5C 81.4408,55.0495 82.1075,56.7162 82.5,58.5C 82.2786,59.7348 81.6119,60.7348 80.5,61.5C 81,62.5 81.5,63.5 82,64.5C 82.9056,61.8792 83.4056,62.0459 83.5,65C 82.495,66.1086 81.8283,67.6086 81.5,69.5C 79.8356,70.9488 79.0023,72.9488 79,75.5C 77.472,70.3864 76.8053,70.3864 77,75.5C 75.4743,75.4726 73.9743,74.9726 72.5,74C 78.1524,80.8827 77.6524,81.716 71,76.5C 70.6667,77.1667 70.3333,77.8333 70,78.5C 69.5814,77.3279 68.9147,76.3279 68,75.5C 67.3828,76.4491 67.5494,77.2825 68.5,78C 67.2624,77.9227 66.2624,78.0894 65.5,78.5C 66.6554,79.9505 68.1554,80.9505 70,81.5C 70.8373,79.9926 72.0039,79.4926 73.5,80C 76.9805,82.0526 79.9805,84.5526 82.5,87.5C 82.3284,88.4916 82.6618,89.1583 83.5,89.5C 84.0256,91.2303 85.0256,92.5637 86.5,93.5C 87.0654,95.9521 87.7321,98.2854 88.5,100.5C 88.8432,102.483 88.1765,103.817 86.5,104.5C 85.7784,104.082 85.2784,103.416 85,102.5C 84.5357,103.094 84.369,103.761 84.5,104.5C 82.7675,101.961 81.7675,98.9611 81.5,95.5C 79.1182,93.785 77.1182,91.785 75.5,89.5C 74.1639,87.9897 72.9973,86.3231 72,84.5C 71.2888,86.3668 71.7888,87.8668 73.5,89C 72.2899,90.0391 71.2899,91.2058 70.5,92.5C 68.847,92.6596 67.5137,93.3263 66.5,94.5C 59.3164,94.0185 55.6497,97.3518 55.5,104.5C 53.3529,106.737 51.0196,108.737 48.5,110.5C 46.2475,110.916 44.7475,112.249 44,114.5C 43.2042,117.039 43.3709,119.372 44.5,121.5C 44.9528,122.458 45.6195,123.292 46.5,124C 49.1042,124.39 51.4375,125.224 53.5,126.5C 52.9045,129.113 52.0712,129.113 51,126.5C 50.6667,127.167 50.3333,127.833 50,128.5C 47.3883,128.984 44.8883,128.318 42.5,126.5C 42.1583,125.662 41.4916,125.328 40.5,125.5C 40.4963,121.973 40.1629,118.473 39.5,115C 39.3948,112.822 40.0615,110.988 41.5,109.5C 42.9063,109.027 43.573,108.027 43.5,106.5C 44.2216,106.082 44.7216,105.416 45,104.5C 45.4986,100.848 45.6653,97.1817 45.5,93.5C 50.1464,89.1885 54.8131,84.8551 59.5,80.5C 60.4584,80.0472 61.2917,79.3805 62,78.5C 62.3333,78.8333 62.6667,79.1667 63,79.5C 63.1667,78.3333 63.3333,77.1667 63.5,76C 63.1988,71.5526 62.6988,71.7193 62,76.5C 61.8213,72.9748 61.3213,69.6414 60.5,66.5C 60.5,66.1667 60.5,65.8333 60.5,65.5C 60.3359,62.8127 60.5026,60.146 61,57.5C 63.8288,55.2383 63.9955,52.905 61.5,50.5C 65.2699,47.464 69.6032,45.7973 74.5,45.5 Z"/></g>
<g><path style="opacity:1" fill="#757126" d="M 63.5,56.5 C 64.8984,59.8991 66.7317,62.8991 69,65.5C 64.6788,64.0497 62.8455,61.0497 63.5,56.5 Z"/></g>
<g><path style="opacity:1" fill="#ebe12a" d="M 158.5,46.5 C 159.429,47.3149 160.429,48.1482 161.5,49C 160.5,49.3333 159.5,49.6667 158.5,50C 159.833,50.6667 161.167,51.3333 162.5,52C 162.043,52.414 161.709,52.914 161.5,53.5C 164.161,57.3822 165.161,61.7155 164.5,66.5C 163.679,69.6414 163.179,72.9748 163,76.5C 162.301,71.7193 161.801,71.5526 161.5,76C 161.667,77.1667 161.833,78.3333 162,79.5C 162.333,79.1667 162.667,78.8333 163,78.5C 164.039,79.7101 165.206,80.7101 166.5,81.5C 170.685,85.742 175.018,89.742 179.5,93.5C 179.956,97.6643 180.622,101.664 181.5,105.5C 182.884,108.354 184.55,111.02 186.5,113.5C 185.818,117.138 185.318,120.805 185,124.5C 183.855,125.636 182.688,126.636 181.5,127.5C 179.584,129.116 178.084,128.782 177,126.5C 175.691,128.891 174.691,128.891 174,126.5C 172.913,128.932 172.413,128.598 172.5,125.5C 175.272,125.241 177.605,124.241 179.5,122.5C 181.385,120.205 181.885,117.538 181,114.5C 180.252,112.249 178.752,110.916 176.5,110.5C 174.525,108.863 172.525,107.196 170.5,105.5C 169.774,102.821 168.941,100.154 168,97.5C 166.67,96.4178 165.17,95.7512 163.5,95.5C 162.081,94.5489 160.415,94.2155 158.5,94.5C 158.027,93.0937 157.027,92.427 155.5,92.5C 153.861,91.5275 152.527,90.1942 151.5,88.5C 149.5,88.5 148.5,89.5 148.5,91.5C 146.852,92.8098 145.186,94.1431 143.5,95.5C 143.232,98.9611 142.232,101.961 140.5,104.5C 139.833,104.5 139.167,104.5 138.5,104.5C 138.279,101.903 137.779,101.903 137,104.5C 136.616,102.803 136.782,101.137 137.5,99.5C 137.166,96.812 137.832,94.4786 139.5,92.5C 140.401,91.7095 141.068,90.7095 141.5,89.5C 143.753,87.5497 144.086,85.2163 142.5,82.5C 143.79,81.9423 144.623,80.9423 145,79.5C 146.646,81.0548 146.979,82.7215 146,84.5C 148.907,82.7853 151.574,80.7853 154,78.5C 154.249,79.624 154.749,80.624 155.5,81.5C 155.833,81.3333 156.167,81.1667 156.5,81C 156.944,79.4667 157.277,77.9667 157.5,76.5C 157.023,75.5224 156.357,74.6891 155.5,74C 157.037,72.8904 157.703,71.3904 157.5,69.5C 158.5,69.5 159.5,69.5 160.5,69.5C 160.66,67.8008 160.494,66.1341 160,64.5C 159.667,65.5 159.333,66.5 159,67.5C 158.722,66.5842 158.222,65.9175 157.5,65.5C 160.26,63.4923 161.927,61.159 162.5,58.5C 161.917,56.9984 161.084,55.6651 160,54.5C 160.488,58.7997 158.988,62.4663 155.5,65.5C 152.505,66.7744 149.505,67.1077 146.5,66.5C 148.368,65.0871 150.368,63.9204 152.5,63C 150.919,62.2935 149.419,61.4601 148,60.5C 147.667,60.8333 147.333,61.1667 147,61.5C 146.51,60.2068 146.343,58.8734 146.5,57.5C 146.11,52.5776 147.277,52.2443 150,56.5C 150.09,54.2319 148.923,52.7319 146.5,52C 149.177,51.7506 151.51,50.7506 153.5,49C 151.744,48.8595 150.078,49.3595 148.5,50.5C 148.167,50.3333 147.833,50.1667 147.5,50C 148.381,49.2917 149.047,48.4584 149.5,47.5C 150.552,47.6495 151.552,47.4828 152.5,47C 152.167,46.6667 151.833,46.3333 151.5,46C 153.797,45.9822 156.131,46.1489 158.5,46.5 Z"/></g>
<g><path style="opacity:1" fill="#827c26" d="M 157.5,65.5 C 156.833,65.5 156.167,65.5 155.5,65.5C 158.988,62.4663 160.488,58.7997 160,54.5C 161.084,55.6651 161.917,56.9984 162.5,58.5C 161.927,61.159 160.26,63.4923 157.5,65.5 Z"/></g>
<g><path style="opacity:1" fill="#59542e" d="M 164.5,66.5 C 164.016,71.7592 164.683,76.7592 166.5,81.5C 165.206,80.7101 164.039,79.7101 163,78.5C 162.667,78.8333 162.333,79.1667 162,79.5C 161.833,78.3333 161.667,77.1667 161.5,76C 161.801,71.5526 162.301,71.7193 163,76.5C 163.179,72.9748 163.679,69.6414 164.5,66.5 Z"/></g>
<g><path style="opacity:1" fill="#ef3129" d="M 137.5,86.5 C 137.5,86.8333 137.5,87.1667 137.5,87.5C 136.833,87.5 136.167,87.5 135.5,87.5C 125.931,72.8221 113.264,69.6555 97.5,78C 93.7676,80.3156 91.101,83.4823 89.5,87.5C 88.8333,87.5 88.1667,87.5 87.5,87.5C 89.5393,82.6217 92.8726,78.7883 97.5,76C 113.839,68.2983 127.172,71.7983 137.5,86.5 Z"/></g>
<g><path style="opacity:1" fill="#f4eb2f" d="M 135.5,87.5 C 134.833,87.5 134.167,87.5 133.5,87.5C 127.198,77.6899 118.198,73.8565 106.5,76C 99.9151,77.9384 94.9151,81.7717 91.5,87.5C 90.8333,87.5 90.1667,87.5 89.5,87.5C 91.101,83.4823 93.7676,80.3156 97.5,78C 113.264,69.6555 125.931,72.8221 135.5,87.5 Z"/></g>
<g><path style="opacity:1" fill="#25ae4e" d="M 133.5,87.5 C 132.833,87.5 132.167,87.5 131.5,87.5C 123.487,77.4966 113.487,74.9966 101.5,80C 98.3343,82.0001 95.6676,84.5001 93.5,87.5C 92.8333,87.5 92.1667,87.5 91.5,87.5C 94.9151,81.7717 99.9151,77.9384 106.5,76C 118.198,73.8565 127.198,77.6899 133.5,87.5 Z"/></g>
<g><path style="opacity:1" fill="#2a449d" d="M 131.5,87.5 C 118.833,87.5 106.167,87.5 93.5,87.5C 95.6676,84.5001 98.3343,82.0001 101.5,80C 113.487,74.9966 123.487,77.4966 131.5,87.5 Z"/></g>
<g><path style="opacity:1" fill="#e3da41" d="M 111.5,79.5 C 116.131,80.5197 116.631,82.5197 113,85.5C 109.168,84.1984 108.668,82.1984 111.5,79.5 Z"/></g>
<g><path style="opacity:1" fill="#d2d0cf" d="M 84.5,83.5 C 84.7947,85.7354 84.4614,87.7354 83.5,89.5C 82.6618,89.1583 82.3284,88.4916 82.5,87.5C 82.2291,85.6203 82.8958,84.287 84.5,83.5 Z"/></g>
<g><path style="opacity:1" fill="#837f6b" d="M 141.5,79.5 C 141.263,80.791 141.596,81.791 142.5,82.5C 144.086,85.2163 143.753,87.5497 141.5,89.5C 140.167,86.1667 140.167,82.8333 141.5,79.5 Z"/></g>
<g><path style="opacity:1" fill="#312c21" d="M 151.5,88.5 C 151.709,87.0783 152.209,85.745 153,84.5C 153.773,86.3524 153.273,87.6857 151.5,88.5 Z"/></g>
<g><path style="opacity:1" fill="#f8f9fa" d="M 86.5,87.5 C 86.8333,87.5 87.1667,87.5 87.5,87.5C 88.1667,87.5 88.8333,87.5 89.5,87.5C 90.1667,87.5 90.8333,87.5 91.5,87.5C 92.1667,87.5 92.8333,87.5 93.5,87.5C 106.167,87.5 118.833,87.5 131.5,87.5C 132.167,87.5 132.833,87.5 133.5,87.5C 134.167,87.5 134.833,87.5 135.5,87.5C 136.167,87.5 136.833,87.5 137.5,87.5C 138.167,87.5 138.833,87.5 139.5,87.5C 139.5,89.1667 139.5,90.8333 139.5,92.5C 137.832,94.4786 137.166,96.812 137.5,99.5C 121.244,100.484 104.911,100.818 88.5,100.5C 87.7321,98.2854 87.0654,95.9521 86.5,93.5C 86.5,91.5 86.5,89.5 86.5,87.5 Z"/></g>
<g><path style="opacity:1" fill="#373435" d="M 84.5,74.5 C 85.1667,78.8333 85.8333,83.1667 86.5,87.5C 86.5,89.5 86.5,91.5 86.5,93.5C 85.0256,92.5637 84.0256,91.2303 83.5,89.5C 84.4614,87.7354 84.7947,85.7354 84.5,83.5C 83.6281,80.4215 83.6281,77.4215 84.5,74.5 Z"/></g>
<g><path style="opacity:1" fill="#35322d" d="M 151.5,88.5 C 152.527,90.1942 153.861,91.5275 155.5,92.5C 153.516,92.6168 151.85,91.9501 150.5,90.5C 149.817,90.8627 149.15,91.1961 148.5,91.5C 148.5,89.5 149.5,88.5 151.5,88.5 Z"/></g>
<g><path style="opacity:1" fill="#6c6541" d="M 184.5,84.5 C 185.75,84.5774 186.583,85.244 187,86.5C 187.801,89.367 187.634,92.0336 186.5,94.5C 186.848,90.9153 186.181,87.582 184.5,84.5 Z"/></g>
<g><path style="opacity:1" fill="#2d2926" d="M 75.5,89.5 C 74.078,90.925 72.4113,91.925 70.5,92.5C 71.2899,91.2058 72.2899,90.0391 73.5,89C 71.7888,87.8668 71.2888,86.3668 72,84.5C 72.9973,86.3231 74.1639,87.9897 75.5,89.5 Z"/></g>
<g><path style="opacity:1" fill="#ececeb" d="M 75.5,89.5 C 77.1182,91.785 79.1182,93.785 81.5,95.5C 81.7675,98.9611 82.7675,101.961 84.5,104.5C 84.8245,111.687 84.4912,118.687 83.5,125.5C 83.0472,124.542 82.3805,123.708 81.5,123C 76.9836,122.58 73.6502,120.413 71.5,116.5C 70.9322,111.363 70.2656,106.363 69.5,101.5C 68.6618,101.158 68.3284,100.492 68.5,99.5C 68.1075,97.7162 67.4408,96.0495 66.5,94.5C 67.5137,93.3263 68.847,92.6596 70.5,92.5C 72.4113,91.925 74.078,90.925 75.5,89.5 Z"/></g>
<g><path style="opacity:1" fill="#e7e6e6" d="M 155.5,92.5 C 157.027,92.427 158.027,93.0937 158.5,94.5C 158.5,95.1667 158.5,95.8333 158.5,96.5C 156.75,97.6594 155.75,99.326 155.5,101.5C 158.63,113.349 154.297,120.682 142.5,123.5C 141.614,124.325 141.281,125.325 141.5,126.5C 140.501,119.923 140.167,112.59 140.5,104.5C 142.232,101.961 143.232,98.9611 143.5,95.5C 145.186,94.1431 146.852,92.8098 148.5,91.5C 149.15,91.1961 149.817,90.8627 150.5,90.5C 151.85,91.9501 153.516,92.6168 155.5,92.5 Z"/></g>
<g><path style="opacity:1" fill="#f34c4a" d="M 112.5,89.5 C 113.309,90.4687 114.309,91.3021 115.5,92C 114.036,93.864 113.036,96.0306 112.5,98.5C 111.964,96.0306 110.964,93.864 109.5,92C 111.119,91.7645 112.119,90.9311 112.5,89.5 Z"/></g>
<g><path style="opacity:1" fill="#00001a" d="M 158.5,94.5 C 160.415,94.2155 162.081,94.5489 163.5,95.5C 161.708,95.366 160.042,95.6993 158.5,96.5C 158.5,95.8333 158.5,95.1667 158.5,94.5 Z"/></g>
<g><path style="opacity:1" fill="#4d493f" d="M 41.5,86.5 C 41.3379,88.5273 41.5045,90.5273 42,92.5C 43.0113,93.3366 44.1779,93.67 45.5,93.5C 45.6653,97.1817 45.4986,100.848 45,104.5C 44.7216,105.416 44.2216,106.082 43.5,106.5C 43.5,103.167 43.5,99.8333 43.5,96.5C 41.2776,96.822 39.4443,96.1554 38,94.5C 37.2042,91.9615 37.3709,89.6282 38.5,87.5C 37.178,92.9933 39.178,95.4933 44.5,95C 39.5895,93.3714 38.5895,90.5381 41.5,86.5 Z"/></g>
<g><path style="opacity:1" fill="#1e1c21" d="M 66.5,94.5 C 67.4408,96.0495 68.1075,97.7162 68.5,99.5C 64.1773,94.1313 60.5106,94.798 57.5,101.5C 58.7701,102.288 59.7701,103.288 60.5,104.5C 58.7659,103.438 57.0992,103.438 55.5,104.5C 55.6497,97.3518 59.3164,94.0185 66.5,94.5 Z"/></g>
<g><path style="opacity:1" fill="#1f1d23" d="M 163.5,95.5 C 165.17,95.7512 166.67,96.4178 168,97.5C 168.941,100.154 169.774,102.821 170.5,105.5C 169.518,104.859 168.518,104.193 167.5,103.5C 166.583,104.127 165.583,104.461 164.5,104.5C 165.456,103.341 166.456,102.174 167.5,101C 166.35,99.019 165.016,97.1857 163.5,95.5 Z"/></g>
<g><path style="opacity:1" fill="#ede32a" d="M 68.5,99.5 C 68.3284,100.492 68.6618,101.158 69.5,101.5C 69.3342,106.179 69.5008,110.845 70,115.5C 70.3826,116.056 70.8826,116.389 71.5,116.5C 73.6502,120.413 76.9836,122.58 81.5,123C 82.3805,123.708 83.0472,124.542 83.5,125.5C 82.1667,125.833 80.8333,126.167 79.5,126.5C 78.5,126.5 77.5,126.5 76.5,126.5C 76.1788,124.952 75.1788,124.285 73.5,124.5C 71.5211,121.854 69.1878,119.521 66.5,117.5C 65.9771,113.29 64.8105,109.29 63,105.5C 62.3292,104.748 61.4959,104.414 60.5,104.5C 59.7701,103.288 58.7701,102.288 57.5,101.5C 60.5106,94.798 64.1773,94.1313 68.5,99.5 Z"/></g>
<g><path style="opacity:1" fill="#28241b" d="M 158.5,96.5 C 158.25,98.674 157.25,100.341 155.5,101.5C 155.75,99.326 156.75,97.6594 158.5,96.5 Z"/></g>
<g><path style="opacity:1" fill="#e7de29" d="M 163.5,95.5 C 165.016,97.1857 166.35,99.019 167.5,101C 166.456,102.174 165.456,103.341 164.5,104.5C 163.206,105.29 162.039,106.29 161,107.5C 160.667,110.5 160.333,113.5 160,116.5C 156.595,118.402 154.095,121.069 152.5,124.5C 150.435,124.517 148.435,124.85 146.5,125.5C 145.508,125.328 144.842,125.662 144.5,126.5C 143.5,126.5 142.5,126.5 141.5,126.5C 141.281,125.325 141.614,124.325 142.5,123.5C 154.297,120.682 158.63,113.349 155.5,101.5C 157.25,100.341 158.25,98.674 158.5,96.5C 160.042,95.6993 161.708,95.366 163.5,95.5 Z"/></g>
<g><path style="opacity:1" fill="#46434c" d="M 179.5,93.5 C 180.833,93.5 182.167,93.5 183.5,93.5C 182.737,94.2679 181.737,94.7679 180.5,95C 181.793,95.49 183.127,95.6567 184.5,95.5C 183.791,96.404 182.791,96.7373 181.5,96.5C 181.5,99.5 181.5,102.5 181.5,105.5C 180.622,101.664 179.956,97.6643 179.5,93.5 Z"/></g>
<g><path style="opacity:1" fill="#73c7c6" d="M 137.5,99.5 C 136.782,101.137 136.616,102.803 137,104.5C 137.779,101.903 138.279,101.903 138.5,104.5C 139.449,109.74 139.782,115.073 139.5,120.5C 136.326,120.998 132.993,120.998 129.5,120.5C 128.659,118.621 128.325,116.621 128.5,114.5C 125.753,114.187 123.086,114.52 120.5,115.5C 119.691,117.071 119.357,118.738 119.5,120.5C 115.5,120.5 111.5,120.5 107.5,120.5C 107.545,117.923 106.545,115.923 104.5,114.5C 104.5,111.833 104.5,109.167 104.5,106.5C 104.5,105.167 104.5,103.833 104.5,102.5C 103.167,102.5 101.833,102.5 100.5,102.5C 100.5,103.833 100.5,105.167 100.5,106.5C 100.658,109.902 100.324,113.236 99.5,116.5C 97.8235,117.183 97.1568,118.517 97.5,120.5C 93.8333,119.167 90.1667,119.167 86.5,120.5C 86.5,115.167 86.5,109.833 86.5,104.5C 88.1765,103.817 88.8432,102.483 88.5,100.5C 104.911,100.818 121.244,100.484 137.5,99.5 Z"/></g>
<g><path style="opacity:1" fill="#eae9e8" d="M 60.5,104.5 C 61.4959,104.414 62.3292,104.748 63,105.5C 64.8105,109.29 65.9771,113.29 66.5,117.5C 69.1878,119.521 71.5211,121.854 73.5,124.5C 67.797,125.082 62.1303,126.082 56.5,127.5C 55.4163,127.315 54.4163,126.982 53.5,126.5C 51.4375,125.224 49.1042,124.39 46.5,124C 45.6195,123.292 44.9528,122.458 44.5,121.5C 43.8867,117.071 45.22,113.405 48.5,110.5C 51.0196,108.737 53.3529,106.737 55.5,104.5C 57.0992,103.438 58.7659,103.438 60.5,104.5 Z"/></g>
<g><path style="opacity:1" fill="#47322d" d="M 104.5,106.5 C 103.167,106.5 101.833,106.5 100.5,106.5C 100.5,105.167 100.5,103.833 100.5,102.5C 101.833,102.5 103.167,102.5 104.5,102.5C 104.5,103.833 104.5,105.167 104.5,106.5 Z"/></g>
<g><path style="opacity:1" fill="#eeeded" d="M 170.5,105.5 C 172.525,107.196 174.525,108.863 176.5,110.5C 179.231,113.927 180.231,117.927 179.5,122.5C 177.605,124.241 175.272,125.241 172.5,125.5C 171.601,126.472 170.434,127.138 169,127.5C 163.399,126.268 157.899,125.268 152.5,124.5C 154.095,121.069 156.595,118.402 160,116.5C 160.333,113.5 160.667,110.5 161,107.5C 162.039,106.29 163.206,105.29 164.5,104.5C 165.583,104.461 166.583,104.127 167.5,103.5C 168.518,104.193 169.518,104.859 170.5,105.5 Z"/></g>
<g><path style="opacity:1" fill="#48454e" d="M 69.5,101.5 C 70.2656,106.363 70.9322,111.363 71.5,116.5C 70.8826,116.389 70.3826,116.056 70,115.5C 69.5008,110.845 69.3342,106.179 69.5,101.5 Z"/></g>
<g><path style="opacity:1" fill="#45402b" d="M 48.5,110.5 C 45.22,113.405 43.8867,117.071 44.5,121.5C 43.3709,119.372 43.2042,117.039 44,114.5C 44.7475,112.249 46.2475,110.916 48.5,110.5 Z"/></g>
<g><path style="opacity:1" fill="#777470" d="M 176.5,110.5 C 178.752,110.916 180.252,112.249 181,114.5C 181.885,117.538 181.385,120.205 179.5,122.5C 180.231,117.927 179.231,113.927 176.5,110.5 Z"/></g>
<g><path style="opacity:1" fill="#696252" d="M 41.5,109.5 C 40.0615,110.988 39.3948,112.822 39.5,115C 40.1629,118.473 40.4963,121.973 40.5,125.5C 39.8826,125.389 39.3826,125.056 39,124.5C 38.3333,119.833 38.3333,115.167 39,110.5C 39.6708,109.748 40.5041,109.414 41.5,109.5 Z"/></g>
<g><path style="opacity:1" fill="#423f3b" d="M 73.5,124.5 C 75.1788,124.285 76.1788,124.952 76.5,126.5C 66.6018,126.913 56.7685,127.913 47,129.5C 43.3428,129.689 41.1762,129.356 40.5,128.5C 42.9935,128.869 43.6602,128.203 42.5,126.5C 44.8883,128.318 47.3883,128.984 50,128.5C 50.3333,127.833 50.6667,127.167 51,126.5C 52.0712,129.113 52.9045,129.113 53.5,126.5C 54.4163,126.982 55.4163,127.315 56.5,127.5C 62.1303,126.082 67.797,125.082 73.5,124.5 Z"/></g>
<g><path style="opacity:1" fill="#454237" d="M 152.5,124.5 C 157.899,125.268 163.399,126.268 169,127.5C 170.434,127.138 171.601,126.472 172.5,125.5C 172.413,128.598 172.913,128.932 174,126.5C 174.691,128.891 175.691,128.891 177,126.5C 178.084,128.782 179.584,129.116 181.5,127.5C 184.335,128.201 187.335,128.367 190.5,128C 189.117,129.271 188.117,130.771 187.5,132.5C 186.226,131.811 186.226,130.977 187.5,130C 173.605,129.256 159.938,127.756 146.5,125.5C 148.435,124.85 150.435,124.517 152.5,124.5 Z"/></g>
<g><path style="opacity:1" fill="#d1d1d1" d="M 146.5,125.5 C 159.938,127.756 173.605,129.256 187.5,130C 186.226,130.977 186.226,131.811 187.5,132.5C 189.027,132.427 190.027,133.094 190.5,134.5C 184.577,135.971 178.577,136.971 172.5,137.5C 170.833,137.5 169.167,137.5 167.5,137.5C 167.918,136.778 168.584,136.278 169.5,136C 167.699,135.683 167.366,135.016 168.5,134C 169.449,133.383 170.282,133.549 171,134.5C 171.882,130.973 171.382,130.307 169.5,132.5C 168.252,131.96 167.085,131.293 166,130.5C 165.51,131.793 165.343,133.127 165.5,134.5C 164.167,134.5 162.833,134.5 161.5,134.5C 161.762,133.022 161.429,131.689 160.5,130.5C 159.494,130.938 159.494,131.604 160.5,132.5C 153.854,132.982 147.354,133.982 141,135.5C 140.392,133.934 139.558,132.6 138.5,131.5C 140.059,129.376 142.059,127.709 144.5,126.5C 144.842,125.662 145.508,125.328 146.5,125.5 Z"/></g>
<g><path style="opacity:1" fill="#393737" d="M 86.5,104.5 C 86.5,109.833 86.5,115.167 86.5,120.5C 90.1667,119.167 93.8333,119.167 97.5,120.5C 97.1568,118.517 97.8235,117.183 99.5,116.5C 101.781,116.923 103.448,116.256 104.5,114.5C 106.545,115.923 107.545,117.923 107.5,120.5C 111.5,120.5 115.5,120.5 119.5,120.5C 122.833,121.833 126.167,121.833 129.5,120.5C 132.993,120.998 136.326,120.998 139.5,120.5C 139.782,115.073 139.449,109.74 138.5,104.5C 139.167,104.5 139.833,104.5 140.5,104.5C 140.167,112.59 140.501,119.923 141.5,126.5C 142.5,126.5 143.5,126.5 144.5,126.5C 142.059,127.709 140.059,129.376 138.5,131.5C 136.821,131.892 135.154,132.392 133.5,133C 119.167,133.667 104.833,133.667 90.5,133C 89.255,132.209 87.9217,131.709 86.5,131.5C 86.6309,130.624 86.2975,129.957 85.5,129.5C 83.396,128.481 81.396,127.481 79.5,126.5C 80.8333,126.167 82.1667,125.833 83.5,125.5C 84.4912,118.687 84.8245,111.687 84.5,104.5C 84.369,103.761 84.5357,103.094 85,102.5C 85.2784,103.416 85.7784,104.082 86.5,104.5 Z"/></g>
<g><path style="opacity:1" fill="#fcfdfd" d="M 87.5,128.5 C 104.167,128.5 120.833,128.5 137.5,128.5C 137.423,129.75 136.756,130.583 135.5,131C 120.167,131.667 104.833,131.667 89.5,131C 88.6195,130.292 87.9528,129.458 87.5,128.5 Z"/></g>
<g><path style="opacity:1" fill="#65c7c5" d="M 90.5,122.5 C 90.9175,123.222 91.5842,123.722 92.5,124C 90.6675,124.748 89.0009,125.748 87.5,127C 90.4726,127.383 93.306,126.883 96,125.5C 99.6929,127.017 103.193,126.684 106.5,124.5C 109.076,125.883 108.742,126.717 105.5,127C 107.5,127.667 109.5,127.667 111.5,127C 111.167,126.667 110.833,126.333 110.5,126C 112.329,125.727 113.829,124.893 115,123.5C 121.011,122.987 127.011,123.653 133,125.5C 134.167,125.333 135.333,125.167 136.5,125C 134.833,124.667 133.167,124.333 131.5,124C 134.036,123.814 136.369,123.314 138.5,122.5C 139.794,124.68 139.461,126.68 137.5,128.5C 120.833,128.5 104.167,128.5 87.5,128.5C 86.5386,126.735 86.2053,124.735 86.5,122.5C 87.8333,122.5 89.1667,122.5 90.5,122.5 Z"/></g>
<g><path style="opacity:1" fill="#9fdcdb" d="M 138.5,122.5 C 136.369,123.314 134.036,123.814 131.5,124C 133.167,124.333 134.833,124.667 136.5,125C 135.333,125.167 134.167,125.333 133,125.5C 127.011,123.653 121.011,122.987 115,123.5C 113.829,124.893 112.329,125.727 110.5,126C 110.833,126.333 111.167,126.667 111.5,127C 109.5,127.667 107.5,127.667 105.5,127C 108.742,126.717 109.076,125.883 106.5,124.5C 103.193,126.684 99.6929,127.017 96,125.5C 93.306,126.883 90.4726,127.383 87.5,127C 89.0009,125.748 90.6675,124.748 92.5,124C 91.5842,123.722 90.9175,123.222 90.5,122.5C 106.458,122.194 122.458,122.194 138.5,122.5 Z"/></g>
<g><path style="opacity:1" fill="#622727" d="M 129.5,120.5 C 126.167,121.833 122.833,121.833 119.5,120.5C 119.357,118.738 119.691,117.071 120.5,115.5C 123.086,114.52 125.753,114.187 128.5,114.5C 128.325,116.621 128.659,118.621 129.5,120.5 Z"/></g>
<g><path style="opacity:1" fill="#f05c29" d="M 98.5,117.5 C 101.167,117.5 103.833,117.5 106.5,117.5C 106.5,118.5 106.5,119.5 106.5,120.5C 103.833,120.5 101.167,120.5 98.5,120.5C 98.5,119.5 98.5,118.5 98.5,117.5 Z"/></g>
<g><path style="opacity:1" fill="#c54a20" d="M 100.5,106.5 C 101.833,106.5 103.167,106.5 104.5,106.5C 104.5,109.167 104.5,111.833 104.5,114.5C 103.448,116.256 101.781,116.923 99.5,116.5C 100.324,113.236 100.658,109.902 100.5,106.5 Z"/></g>
<g><path style="opacity:1" fill="#dedede" d="M 76.5,126.5 C 77.5,126.5 78.5,126.5 79.5,126.5C 81.396,127.481 83.396,128.481 85.5,129.5C 86.2975,129.957 86.6309,130.624 86.5,131.5C 85.4415,132.6 84.6082,133.934 84,135.5C 82.9505,134.483 81.7839,134.316 80.5,135C 82.3008,135.317 82.6341,135.984 81.5,137C 83.3869,137.78 85.0536,137.613 86.5,136.5C 88.6977,136.409 89.0311,137.075 87.5,138.5C 86.7611,138.369 86.0944,138.536 85.5,139C 86.4061,140.699 86.7394,142.533 86.5,144.5C 77.7925,145.964 69.1258,145.797 60.5,144C 60.1667,143.667 59.8333,143.333 59.5,143C 63.2812,142.633 63.9478,141.3 61.5,139C 67.8679,139.998 74.2013,139.665 80.5,138C 74.5,137.667 68.5,137.333 62.5,137C 61.2625,136.768 60.2625,136.268 59.5,135.5C 57.901,135.232 56.5676,135.566 55.5,136.5C 48.6287,137.813 41.6287,137.813 34.5,136.5C 33.479,135.998 33.3123,135.332 34,134.5C 35.0736,133.382 36.2402,132.382 37.5,131.5C 36.6872,130.186 35.6872,129.019 34.5,128C 36.7116,127.211 38.7116,127.378 40.5,128.5C 41.1762,129.356 43.3428,129.689 47,129.5C 56.7685,127.913 66.6018,126.913 76.5,126.5 Z"/></g>
<g><path style="opacity:1" fill="#8f8e8e" d="M 59.5,135.5 C 62.0284,134.492 64.1951,132.826 66,130.5C 66.6172,131.449 66.4506,132.282 65.5,133C 66.8333,133.667 68.1667,133.667 69.5,133C 67.8078,131.599 67.1412,129.766 67.5,127.5C 70.5983,127.413 70.9316,127.913 68.5,129C 71.1667,129.667 71.1667,130.333 68.5,131C 71.4757,131.757 73.309,130.591 74,127.5C 74.8005,130.635 76.6338,132.802 79.5,134C 72.8229,134.453 66.1562,134.953 59.5,135.5 Z"/></g>
<g><path style="opacity:1" fill="#393737" d="M 86.5,131.5 C 85.9035,133.398 85.9035,135.065 86.5,136.5C 85.0536,137.613 83.3869,137.78 81.5,137C 82.6341,135.984 82.3008,135.317 80.5,135C 81.7839,134.316 82.9505,134.483 84,135.5C 84.6082,133.934 85.4415,132.6 86.5,131.5 Z"/></g>
<g><path style="opacity:1" fill="#252223" d="M 87.5,138.5 C 89.0311,137.075 88.6977,136.409 86.5,136.5C 88.3432,135.717 90.3432,135.05 92.5,134.5C 93.9122,135.806 95.5789,136.64 97.5,137C 94.2072,137.826 90.8738,138.326 87.5,138.5 Z"/></g>
<g><path style="opacity:1" fill="#413f40" d="M 190.5,134.5 C 191.239,134.369 191.906,134.536 192.5,135C 191.377,136.044 190.044,136.71 188.5,137C 183.177,137.499 177.844,137.666 172.5,137.5C 178.577,136.971 184.577,135.971 190.5,134.5 Z"/></g>
<g><path style="opacity:1" fill="#504f4f" d="M 165.5,144.5 C 165.389,145.117 165.056,145.617 164.5,146C 155.181,147.282 145.847,147.115 136.5,145.5C 137.333,143.248 137.333,141.081 136.5,139C 124.923,137.064 113.256,136.064 101.5,136C 110.691,135.234 119.858,135.401 129,136.5C 131.754,134.19 134.587,134.024 137.5,136C 137.167,136.333 136.833,136.667 136.5,137C 137.416,137.374 138.25,137.874 139,138.5C 138.865,140.425 138.698,142.425 138.5,144.5C 140.5,144.5 142.5,144.5 144.5,144.5C 145.003,139.5 145.336,139.833 145.5,145.5C 152.196,145.609 158.863,145.276 165.5,144.5 Z"/></g>
<g><path style="opacity:1" fill="#616060" d="M 167.5,137.5 C 166.71,138.794 165.71,139.961 164.5,141C 165.416,141.278 166.082,141.778 166.5,142.5C 162.473,142.719 161.806,141.552 164.5,139C 159.455,138.449 154.455,138.782 149.5,140C 150.38,141.356 150.714,142.856 150.5,144.5C 149.5,144.5 148.5,144.5 147.5,144.5C 147.854,142.459 147.854,140.626 147.5,139C 144.832,138.433 142.166,137.933 139.5,137.5C 139.167,135.5 138.833,133.5 138.5,131.5C 139.558,132.6 140.392,133.934 141,135.5C 147.354,133.982 153.854,132.982 160.5,132.5C 159.494,131.604 159.494,130.938 160.5,130.5C 161.429,131.689 161.762,133.022 161.5,134.5C 162.833,134.5 164.167,134.5 165.5,134.5C 165.343,133.127 165.51,131.793 166,130.5C 167.085,131.293 168.252,131.96 169.5,132.5C 171.382,130.307 171.882,130.973 171,134.5C 170.282,133.549 169.449,133.383 168.5,134C 167.366,135.016 167.699,135.683 169.5,136C 168.584,136.278 167.918,136.778 167.5,137.5 Z"/></g>
<g><path style="opacity:1" fill="#f2f2f2" d="M 145.5,134.5 C 152.23,134.226 158.897,134.726 165.5,136C 157.859,137.966 150.192,137.966 142.5,136C 143.737,135.768 144.737,135.268 145.5,134.5 Z"/></g>
<g><path style="opacity:1" fill="#dedddd" d="M 86.5,131.5 C 87.9217,131.709 89.255,132.209 90.5,133C 104.833,133.667 119.167,133.667 133.5,133C 135.154,132.392 136.821,131.892 138.5,131.5C 138.833,133.5 139.167,135.5 139.5,137.5C 142.166,137.933 144.832,138.433 147.5,139C 147.854,140.626 147.854,142.459 147.5,144.5C 148.5,144.5 149.5,144.5 150.5,144.5C 150.714,142.856 150.38,141.356 149.5,140C 154.455,138.782 159.455,138.449 164.5,139C 161.806,141.552 162.473,142.719 166.5,142.5C 166.167,143.167 165.833,143.833 165.5,144.5C 158.863,145.276 152.196,145.609 145.5,145.5C 145.336,139.833 145.003,139.5 144.5,144.5C 142.5,144.5 140.5,144.5 138.5,144.5C 138.698,142.425 138.865,140.425 139,138.5C 138.25,137.874 137.416,137.374 136.5,137C 136.833,136.667 137.167,136.333 137.5,136C 134.587,134.024 131.754,134.19 129,136.5C 119.858,135.401 110.691,135.234 101.5,136C 113.256,136.064 124.923,137.064 136.5,139C 137.333,141.081 137.333,143.248 136.5,145.5C 135.448,145.649 134.448,145.483 133.5,145C 135.211,143.867 135.711,142.367 135,140.5C 133.509,142.004 131.676,142.837 129.5,143C 132.937,143.649 133.104,144.149 130,144.5C 129.167,144.333 128.333,144.167 127.5,144C 127.833,143 128.167,142 128.5,141C 128,140.5 127.5,140 127,139.5C 126.51,140.793 126.343,142.127 126.5,143.5C 125.167,143.5 123.833,143.5 122.5,143.5C 111.546,143.113 100.713,143.78 90,145.5C 88.0972,143.559 87.2639,141.226 87.5,138.5C 90.8738,138.326 94.2072,137.826 97.5,137C 95.5789,136.64 93.9122,135.806 92.5,134.5C 90.3432,135.05 88.3432,135.717 86.5,136.5C 85.9035,135.065 85.9035,133.398 86.5,131.5 Z"/></g>
<g><path style="opacity:1" fill="#6c6b6b" d="M 136.5,145.5 C 131.918,146.186 127.252,145.852 122.5,144.5C 122.5,144.167 122.5,143.833 122.5,143.5C 123.833,143.5 125.167,143.5 126.5,143.5C 126.343,142.127 126.51,140.793 127,139.5C 127.5,140 128,140.5 128.5,141C 128.167,142 127.833,143 127.5,144C 128.333,144.167 129.167,144.333 130,144.5C 133.104,144.149 132.937,143.649 129.5,143C 131.676,142.837 133.509,142.004 135,140.5C 135.711,142.367 135.211,143.867 133.5,145C 134.448,145.483 135.448,145.649 136.5,145.5 Z"/></g>
<g><path style="opacity:1" fill="#212020" d="M 166.5,142.5 C 170.139,143.268 169.806,143.934 165.5,144.5C 165.833,143.833 166.167,143.167 166.5,142.5 Z"/></g>
<g><path style="opacity:1" fill="#393838" d="M 55.5,136.5 C 56.5676,135.566 57.901,135.232 59.5,135.5C 60.2625,136.268 61.2625,136.768 62.5,137C 68.5,137.333 74.5,137.667 80.5,138C 74.2013,139.665 67.8679,139.998 61.5,139C 63.9478,141.3 63.2812,142.633 59.5,143C 59.8333,143.333 60.1667,143.667 60.5,144C 69.1258,145.797 77.7925,145.964 86.5,144.5C 86.7394,142.533 86.4061,140.699 85.5,139C 86.0944,138.536 86.7611,138.369 87.5,138.5C 87.2639,141.226 88.0972,143.559 90,145.5C 100.713,143.78 111.546,143.113 122.5,143.5C 122.5,143.833 122.5,144.167 122.5,144.5C 103.746,145.498 85.079,146.331 66.5,147C 62.825,146.443 59.4917,145.11 56.5,143C 58.087,142.138 59.7536,141.471 61.5,141C 59.8863,138.873 57.8863,137.373 55.5,136.5 Z"/></g>
<g><path style="opacity:1" fill="#565454" d="M 81.5,154.5 C 83.1992,154.34 84.8659,154.506 86.5,155C 82.6221,155.949 82.6221,157.115 86.5,158.5C 85.675,159.386 84.675,159.719 83.5,159.5C 83.5,160.5 83.5,161.5 83.5,162.5C 84.552,162.351 85.552,162.517 86.5,163C 84.8659,163.494 83.1992,163.66 81.5,163.5C 81.5,160.5 81.5,157.5 81.5,154.5 Z"/></g>
<g><path style="opacity:1" fill="#282626" d="M 122.5,154.5 C 123.314,156.631 123.814,158.964 124,161.5C 125,162.833 126,162.833 127,161.5C 127.333,159.167 127.667,156.833 128,154.5C 128.777,157.429 128.61,160.263 127.5,163C 125.888,163.72 124.388,163.554 123,162.5C 122.503,159.854 122.336,157.187 122.5,154.5 Z"/></g>
<g><path style="opacity:1" fill="#292526" d="M 107.5,155.5 C 111.908,154.373 112.908,154.373 110.5,155.5C 110.664,158.187 110.497,160.854 110,163.5C 110.053,160.325 109.22,157.658 107.5,155.5 Z"/></g>
<g><path style="opacity:1" fill="#535151" d="M 52.5,154.5 C 54.1992,154.34 55.8659,154.506 57.5,155C 53.6221,155.949 53.6221,157.115 57.5,158.5C 56.675,159.386 55.675,159.719 54.5,159.5C 54.5,160.5 54.5,161.5 54.5,162.5C 55.552,162.351 56.552,162.517 57.5,163C 55.8659,163.494 54.1992,163.66 52.5,163.5C 52.5,160.5 52.5,157.5 52.5,154.5 Z"/></g>
<g><path style="opacity:1" fill="#302d2e" d="M 195.5,154.5 C 197.5,154.5 199.5,154.5 201.5,154.5C 201.664,157.187 201.497,159.854 201,162.5C 198.733,163.935 196.733,163.602 195,161.5C 194.444,159.115 194.61,156.782 195.5,154.5 Z"/></g>
<g><path style="opacity:1" fill="#efefef" d="M 196.5,155.5 C 197.833,155.5 199.167,155.5 200.5,155.5C 200.662,157.527 200.495,159.527 200,161.5C 199,162.833 198,162.833 197,161.5C 196.505,159.527 196.338,157.527 196.5,155.5 Z"/></g>
<g><path style="opacity:1" fill="#312e2f" d="M 22.5,154.5 C 24.1992,154.34 25.8659,154.506 27.5,155C 29.0093,158.669 27.6759,160.169 23.5,159.5C 23.6567,160.873 23.49,162.207 23,163.5C 22.502,160.518 22.3354,157.518 22.5,154.5 Z"/></g>
<g><path style="opacity:1" fill="#f8f8f8" d="M 23.5,155.5 C 24.5,155.5 25.5,155.5 26.5,155.5C 26.5,156.5 26.5,157.5 26.5,158.5C 25.5,158.5 24.5,158.5 23.5,158.5C 23.5,157.5 23.5,156.5 23.5,155.5 Z"/></g>
<g><path style="opacity:1" fill="#312f2f" d="M 37.5,154.5 C 43.2093,153.678 44.5427,155.511 41.5,160C 42.7717,161.246 43.105,162.413 42.5,163.5C 41.5,162.167 40.5,160.833 39.5,159.5C 38.7189,160.729 38.2189,162.062 38,163.5C 37.502,160.518 37.3354,157.518 37.5,154.5 Z"/></g>
<g><path style="opacity:1" fill="#f1f1f1" d="M 38.5,155.5 C 39.5,155.5 40.5,155.5 41.5,155.5C 41.5,156.5 41.5,157.5 41.5,158.5C 40.5,158.5 39.5,158.5 38.5,158.5C 38.5,157.5 38.5,156.5 38.5,155.5 Z"/></g>
<g><path style="opacity:1" fill="#444343" d="M 67.5,154.5 C 73.3239,154.347 73.6572,155.013 68.5,156.5C 73.6945,158.058 73.6945,159.058 68.5,159.5C 68.6567,160.873 68.49,162.207 68,163.5C 67.502,160.518 67.3354,157.518 67.5,154.5 Z"/></g>
<g><path style="opacity:1" fill="#2f2d2d" d="M 138.5,154.5 C 144.167,154.664 144.5,154.997 139.5,155.5C 139.5,156.5 139.5,157.5 139.5,158.5C 140.873,158.343 142.207,158.51 143.5,159C 143.167,159.333 142.833,159.667 142.5,160C 144.26,160.965 144.594,162.132 143.5,163.5C 142.5,162.167 141.5,160.833 140.5,159.5C 139.719,160.729 139.219,162.062 139,163.5C 138.502,160.518 138.335,157.518 138.5,154.5 Z"/></g>
<g><path style="opacity:1" fill="#636262" d="M 155.5,154.5 C 158.538,156.251 159.705,158.917 159,162.5C 157.644,161.62 156.144,161.286 154.5,161.5C 154.674,159.139 155.007,156.806 155.5,154.5 Z"/></g>
<g><path style="opacity:1" fill="#454444" d="M 184.5,155.5 C 185.629,157.628 185.796,159.961 185,162.5C 183.301,163.406 181.467,163.739 179.5,163.5C 179.5,160.5 179.5,157.5 179.5,154.5C 181.415,154.216 183.081,154.549 184.5,155.5 Z"/></g>
<g><path style="opacity:1" fill="#f8f8f8" d="M 184.5,155.5 C 184.5,157.5 184.5,159.5 184.5,161.5C 183.5,161.5 182.5,161.5 181.5,161.5C 181.5,159.5 181.5,157.5 181.5,155.5C 182.5,155.5 183.5,155.5 184.5,155.5 Z"/></g>
<g><path style="opacity:1" fill="#065aab" d="M 39.5,185.5 C 38.4324,184.566 37.099,184.232 35.5,184.5C 36.1667,188.5 36.8333,192.5 37.5,196.5C 32.5,196.5 27.5,196.5 22.5,196.5C 22.1849,193.789 22.8516,191.456 24.5,189.5C 24.5332,182.087 23.8665,174.754 22.5,167.5C 30.1739,167.334 37.8406,167.5 45.5,168C 53.6147,169.397 56.1147,173.897 53,181.5C 52.0754,182.047 51.2421,182.713 50.5,183.5C 51.8109,186.135 53.4776,188.469 55.5,190.5C 56.4656,192.396 56.7989,194.396 56.5,196.5C 52.8183,196.665 49.1516,196.499 45.5,196C 43.5993,192.356 41.5993,188.856 39.5,185.5 Z"/></g>
<g><path style="opacity:1" fill="#0c5aab" d="M 86.5,187.5 C 86.5,190.5 86.5,193.5 86.5,196.5C 77.5,196.5 68.5,196.5 59.5,196.5C 59.5,194.5 59.5,192.5 59.5,190.5C 60.8117,188.257 61.4783,185.59 61.5,182.5C 60.9126,177.466 60.246,172.466 59.5,167.5C 68.8333,167.5 78.1667,167.5 87.5,167.5C 87.5,170.833 87.5,174.167 87.5,177.5C 84.8333,177.5 82.1667,177.5 79.5,177.5C 79.5,176.5 79.5,175.5 79.5,174.5C 77.1667,174.5 74.8333,174.5 72.5,174.5C 72.5,176.167 72.5,177.833 72.5,179.5C 74.5,179.5 76.5,179.5 78.5,179.5C 78.5,181.167 78.5,182.833 78.5,184.5C 76.5,184.5 74.5,184.5 72.5,184.5C 72.5,186.5 72.5,188.5 72.5,190.5C 74.8333,190.5 77.1667,190.5 79.5,190.5C 79.5,189.5 79.5,188.5 79.5,187.5C 81.8333,187.5 84.1667,187.5 86.5,187.5 Z"/></g>
<g><path style="opacity:1" fill="#145cac" d="M 98.5,167.5 C 105.536,168.413 112.536,168.413 119.5,167.5C 119.5,171.167 119.5,174.833 119.5,178.5C 115.414,179.154 112.081,177.988 109.5,175C 104.366,173.958 101.699,176.124 101.5,181.5C 101.667,184.687 102.667,187.521 104.5,190C 106.167,190.667 107.833,190.667 109.5,190C 110.747,188.054 112.08,186.22 113.5,184.5C 120.342,185.772 121.342,188.939 116.5,194C 107.662,199.314 99.495,198.481 92,191.5C 86.958,181.3 89.1247,173.3 98.5,167.5 Z"/></g>
<g><path style="opacity:1" fill="#145cac" d="M 122.5,167.5 C 128.167,167.5 133.833,167.5 139.5,167.5C 139.5,169.833 139.5,172.167 139.5,174.5C 138.5,174.5 137.5,174.5 136.5,174.5C 136.5,179.833 136.5,185.167 136.5,190.5C 137.5,190.5 138.5,190.5 139.5,190.5C 139.5,192.833 139.5,195.167 139.5,197.5C 133.833,197.5 128.167,197.5 122.5,197.5C 122.5,195.167 122.5,192.833 122.5,190.5C 123.5,190.5 124.5,190.5 125.5,190.5C 125.5,185.167 125.5,179.833 125.5,174.5C 124.5,174.5 123.5,174.5 122.5,174.5C 122.5,172.167 122.5,169.833 122.5,167.5 Z"/></g>
<g><path style="opacity:1" fill="#1f60ae" d="M 142.5,167.5 C 152.167,167.5 161.833,167.5 171.5,167.5C 171.5,170.833 171.5,174.167 171.5,177.5C 168.833,177.5 166.167,177.5 163.5,177.5C 163.5,176.5 163.5,175.5 163.5,174.5C 161.5,174.5 159.5,174.5 157.5,174.5C 157.5,176.167 157.5,177.833 157.5,179.5C 159.167,179.5 160.833,179.5 162.5,179.5C 162.5,181.5 162.5,183.5 162.5,185.5C 160.833,185.5 159.167,185.5 157.5,185.5C 157.5,186.833 157.5,188.167 157.5,189.5C 158.5,189.5 159.5,189.5 160.5,189.5C 160.5,192.167 160.5,194.833 160.5,197.5C 154.5,197.5 148.5,197.5 142.5,197.5C 142.5,194.833 142.5,192.167 142.5,189.5C 143.5,189.5 144.5,189.5 145.5,189.5C 145.5,184.5 145.5,179.5 145.5,174.5C 144.5,174.5 143.5,174.5 142.5,174.5C 142.5,172.167 142.5,169.833 142.5,167.5 Z"/></g>
<g><path style="opacity:1" fill="#2260ae" d="M 173.5,167.5 C 182.833,167.5 192.167,167.5 201.5,167.5C 201.5,170.5 201.5,173.5 201.5,176.5C 196.833,175.833 192.167,175.167 187.5,174.5C 187.5,176.167 187.5,177.833 187.5,179.5C 189.5,179.5 191.5,179.5 193.5,179.5C 193.5,181.5 193.5,183.5 193.5,185.5C 191.5,185.5 189.5,185.5 187.5,185.5C 187.5,186.833 187.5,188.167 187.5,189.5C 192.111,188.515 196.778,187.848 201.5,187.5C 201.5,190.833 201.5,194.167 201.5,197.5C 192.167,197.5 182.833,197.5 173.5,197.5C 174.079,192.341 174.746,187.175 175.5,182C 174.874,177.138 174.207,172.305 173.5,167.5 Z"/></g>
<g><path style="opacity:1" fill="#eaeff6" d="M 35.5,173.5 C 38.6405,172.908 40.9739,173.908 42.5,176.5C 42.3918,177.442 42.0585,178.275 41.5,179C 39.5273,179.495 37.5273,179.662 35.5,179.5C 35.5,177.5 35.5,175.5 35.5,173.5 Z"/></g>
<g><path style="opacity:1" fill="#92aed3" d="M 39.5,185.5 C 38.5,185.5 37.5,185.5 36.5,185.5C 37.799,189.37 38.4657,193.37 38.5,197.5C 32.8333,197.5 27.1667,197.5 21.5,197.5C 21.5,194.833 21.5,192.167 21.5,189.5C 22.5,189.5 23.5,189.5 24.5,189.5C 22.8516,191.456 22.1849,193.789 22.5,196.5C 27.5,196.5 32.5,196.5 37.5,196.5C 36.8333,192.5 36.1667,188.5 35.5,184.5C 37.099,184.232 38.4324,184.566 39.5,185.5 Z"/></g>
<g><path style="opacity:1" fill="#87a6cf" d="M 86.5,187.5 C 87.4794,190.625 87.8128,193.958 87.5,197.5C 77.8333,197.5 68.1667,197.5 58.5,197.5C 58.1984,194.941 58.5318,192.607 59.5,190.5C 59.5,192.5 59.5,194.5 59.5,196.5C 68.5,196.5 77.5,196.5 86.5,196.5C 86.5,193.5 86.5,190.5 86.5,187.5 Z"/></g>
</svg>
